<svg viewBox="0 0 1498 400" xmlns="http://www.w3.org/2000/svg">
    <g>
        <g>
            <g>
                <g>
                    <g>
                        <line x1="58" y1="365.6018862132327" x2="53" y2="365.6018862132327" style="visibility: inherit;"
                              fill="rgb(0, 0, 0)" stroke="rgb(204, 204, 204)" stroke-width="1px"></line>
                        <line x1="58" y1="338.3116244178575" x2="53" y2="338.3116244178575" style="visibility: inherit;"
                              fill="rgb(0, 0, 0)" stroke="rgb(204, 204, 204)" stroke-width="1px"></line>
                        <line x1="58" y1="311.0213626224823" x2="53" y2="311.0213626224823" style="visibility: inherit;"
                              fill="rgb(0, 0, 0)" stroke="rgb(204, 204, 204)" stroke-width="1px"></line>
                        <line x1="58" y1="283.73110082710707" x2="53" y2="283.73110082710707"
                              style="visibility: inherit;" fill="rgb(0, 0, 0)" stroke="rgb(204, 204, 204)"
                              stroke-width="1px"></line>
                        <line x1="58" y1="256.4408390317318" x2="53" y2="256.4408390317318" style="visibility: inherit;"
                              fill="rgb(0, 0, 0)" stroke="rgb(204, 204, 204)" stroke-width="1px"></line>
                        <line x1="58" y1="229.15057723635658" x2="53" y2="229.15057723635658"
                              style="visibility: inherit;" fill="rgb(0, 0, 0)" stroke="rgb(204, 204, 204)"
                              stroke-width="1px"></line>
                        <line x1="58" y1="201.86031544098137" x2="53" y2="201.86031544098137"
                              style="visibility: inherit;" fill="rgb(0, 0, 0)" stroke="rgb(204, 204, 204)"
                              stroke-width="1px"></line>
                        <line x1="58" y1="174.57005364560612" x2="53" y2="174.57005364560612"
                              style="visibility: inherit;" fill="rgb(0, 0, 0)" stroke="rgb(204, 204, 204)"
                              stroke-width="1px"></line>
                        <line x1="58" y1="147.27979185023094" x2="53" y2="147.27979185023094"
                              style="visibility: inherit;" fill="rgb(0, 0, 0)" stroke="rgb(204, 204, 204)"
                              stroke-width="1px"></line>
                        <line x1="58" y1="119.98953005485566" x2="53" y2="119.98953005485566"
                              style="visibility: inherit;" fill="rgb(0, 0, 0)" stroke="rgb(204, 204, 204)"
                              stroke-width="1px"></line>
                        <line x1="58" y1="92.69926825948045" x2="53" y2="92.69926825948045" style="visibility: inherit;"
                              fill="rgb(0, 0, 0)" stroke="rgb(204, 204, 204)" stroke-width="1px"></line>
                        <line x1="58" y1="65.40900646410518" x2="53" y2="65.40900646410518" style="visibility: inherit;"
                              fill="rgb(0, 0, 0)" stroke="rgb(204, 204, 204)" stroke-width="1px"></line>
                        <line x1="58" y1="38.11874466873002" x2="53" y2="38.11874466873002" style="visibility: inherit;"
                              fill="rgb(0, 0, 0)" stroke="rgb(204, 204, 204)" stroke-width="1px"></line>
                        <line x1="58" y1="10.828482873354801" x2="53" y2="10.828482873354801"
                              style="visibility: inherit;" fill="rgb(0, 0, 0)" stroke="rgb(204, 204, 204)"
                              stroke-width="1px"></line>
                    </g>
                    <g transform="translate(48, 0)">
                        <text x="0" y="365.6018862132327" dx="0em" dy="0.3em"
                              style="text-anchor: end; visibility: inherit; font-family: &quot;Helvetica Neue&quot;, sans-serif; font-size: 12px; font-weight: 200;"
                              fill="rgb(50, 49, 63)" stroke="none" stroke-width="1px">0.06
                        </text>
                        <text x="0" y="338.3116244178575" dx="0em" dy="0.3em"
                              style="text-anchor: end; visibility: inherit; font-family: &quot;Helvetica Neue&quot;, sans-serif; font-size: 12px; font-weight: 200;"
                              fill="rgb(50, 49, 63)" stroke="none" stroke-width="1px">0.08
                        </text>
                        <text x="0" y="311.0213626224823" dx="0em" dy="0.3em"
                              style="text-anchor: end; visibility: inherit; font-family: &quot;Helvetica Neue&quot;, sans-serif; font-size: 12px; font-weight: 200;"
                              fill="rgb(50, 49, 63)" stroke="none" stroke-width="1px">0.1
                        </text>
                        <text x="0" y="283.73110082710707" dx="0em" dy="0.3em"
                              style="text-anchor: end; visibility: inherit; font-family: &quot;Helvetica Neue&quot;, sans-serif; font-size: 12px; font-weight: 200;"
                              fill="rgb(50, 49, 63)" stroke="none" stroke-width="1px">0.12
                        </text>
                        <text x="0" y="256.4408390317318" dx="0em" dy="0.3em"
                              style="text-anchor: end; visibility: inherit; font-family: &quot;Helvetica Neue&quot;, sans-serif; font-size: 12px; font-weight: 200;"
                              fill="rgb(50, 49, 63)" stroke="none" stroke-width="1px">0.14
                        </text>
                        <text x="0" y="229.15057723635658" dx="0em" dy="0.3em"
                              style="text-anchor: end; visibility: inherit; font-family: &quot;Helvetica Neue&quot;, sans-serif; font-size: 12px; font-weight: 200;"
                              fill="rgb(50, 49, 63)" stroke="none" stroke-width="1px">0.16
                        </text>
                        <text x="0" y="201.86031544098137" dx="0em" dy="0.3em"
                              style="text-anchor: end; visibility: inherit; font-family: &quot;Helvetica Neue&quot;, sans-serif; font-size: 12px; font-weight: 200;"
                              fill="rgb(50, 49, 63)" stroke="none" stroke-width="1px">0.18
                        </text>
                        <text x="0" y="174.57005364560612" dx="0em" dy="0.3em"
                              style="text-anchor: end; visibility: inherit; font-family: &quot;Helvetica Neue&quot;, sans-serif; font-size: 12px; font-weight: 200;"
                              fill="rgb(50, 49, 63)" stroke="none" stroke-width="1px">0.2
                        </text>
                        <text x="0" y="147.27979185023094" dx="0em" dy="0.3em"
                              style="text-anchor: end; visibility: inherit; font-family: &quot;Helvetica Neue&quot;, sans-serif; font-size: 12px; font-weight: 200;"
                              fill="rgb(50, 49, 63)" stroke="none" stroke-width="1px">0.22
                        </text>
                        <text x="0" y="119.98953005485566" dx="0em" dy="0.3em"
                              style="text-anchor: end; visibility: inherit; font-family: &quot;Helvetica Neue&quot;, sans-serif; font-size: 12px; font-weight: 200;"
                              fill="rgb(50, 49, 63)" stroke="none" stroke-width="1px">0.24
                        </text>
                        <text x="0" y="92.69926825948045" dx="0em" dy="0.3em"
                              style="text-anchor: end; visibility: inherit; font-family: &quot;Helvetica Neue&quot;, sans-serif; font-size: 12px; font-weight: 200;"
                              fill="rgb(50, 49, 63)" stroke="none" stroke-width="1px">0.26
                        </text>
                        <text x="0" y="65.40900646410518" dx="0em" dy="0.3em"
                              style="text-anchor: end; visibility: inherit; font-family: &quot;Helvetica Neue&quot;, sans-serif; font-size: 12px; font-weight: 200;"
                              fill="rgb(50, 49, 63)" stroke="none" stroke-width="1px">0.28
                        </text>
                        <text x="0" y="38.11874466873002" dx="0em" dy="0.3em"
                              style="text-anchor: end; visibility: inherit; font-family: &quot;Helvetica Neue&quot;, sans-serif; font-size: 12px; font-weight: 200;"
                              fill="rgb(50, 49, 63)" stroke="none" stroke-width="1px">0.3
                        </text>
                        <text x="0" y="10.828482873354801" dx="0em" dy="0.3em"
                              style="text-anchor: end; visibility: inherit; font-family: &quot;Helvetica Neue&quot;, sans-serif; font-size: 12px; font-weight: 200;"
                              fill="rgb(50, 49, 63)" stroke="none" stroke-width="1px">0.32
                        </text>
                    </g>
                    <line x1="58" y1="0" x2="58" y2="378" fill="rgb(0, 0, 0)" stroke="rgb(204, 204, 204)"
                          stroke-width="1px"></line>
                </g>
            </g>
            <g transform="translate(58, 0)" clip-path="url(#clip_0)">
                <clipPath id="clip_0">
                    <rect width="1440" height="378"></rect>
                </clipPath>
                <g>
                    <g>
                        <g>
                            <line x1="41.400064956328904" y1="0" x2="41.400064956328904" y2="378" fill="rgb(0, 0, 0)"
                                  stroke="rgb(60, 60, 60)" stroke-width="1px" opacity="0.25"></line>
                            <line x1="240.11687086953407" y1="0" x2="240.11687086953407" y2="378" fill="rgb(0, 0, 0)"
                                  stroke="rgb(60, 60, 60)" stroke-width="1px" opacity="0.25"></line>
                            <line x1="438.8336767827393" y1="0" x2="438.8336767827393" y2="378" fill="rgb(0, 0, 0)"
                                  stroke="rgb(60, 60, 60)" stroke-width="1px" opacity="0.25"></line>
                            <line x1="637.5504826959444" y1="0" x2="637.5504826959444" y2="378" fill="rgb(0, 0, 0)"
                                  stroke="rgb(60, 60, 60)" stroke-width="1px" opacity="0.25"></line>
                            <line x1="836.2672886091497" y1="0" x2="836.2672886091497" y2="378" fill="rgb(0, 0, 0)"
                                  stroke="rgb(60, 60, 60)" stroke-width="1px" opacity="0.25"></line>
                            <line x1="1034.9840945223548" y1="0" x2="1034.9840945223548" y2="378" fill="rgb(0, 0, 0)"
                                  stroke="rgb(60, 60, 60)" stroke-width="1px" opacity="0.25"></line>
                            <line x1="1233.70090043556" y1="0" x2="1233.70090043556" y2="378" fill="rgb(0, 0, 0)"
                                  stroke="rgb(60, 60, 60)" stroke-width="1px" opacity="0.25"></line>
                            <line x1="1432.4177063487653" y1="0" x2="1432.4177063487653" y2="378" fill="rgb(0, 0, 0)"
                                  stroke="rgb(60, 60, 60)" stroke-width="1px" opacity="0.25"></line>
                        </g>
                        <g>
                            <line x1="0" y1="365.6018862132327" x2="1440" y2="365.6018862132327" fill="rgb(0, 0, 0)"
                                  stroke="rgb(60, 60, 60)" stroke-width="1px" opacity="0.25"></line>
                            <line x1="0" y1="338.3116244178575" x2="1440" y2="338.3116244178575" fill="rgb(0, 0, 0)"
                                  stroke="rgb(60, 60, 60)" stroke-width="1px" opacity="0.25"></line>
                            <line x1="0" y1="311.0213626224823" x2="1440" y2="311.0213626224823" fill="rgb(0, 0, 0)"
                                  stroke="rgb(60, 60, 60)" stroke-width="1px" opacity="0.25"></line>
                            <line x1="0" y1="283.73110082710707" x2="1440" y2="283.73110082710707" fill="rgb(0, 0, 0)"
                                  stroke="rgb(60, 60, 60)" stroke-width="1px" opacity="0.25"></line>
                            <line x1="0" y1="256.4408390317318" x2="1440" y2="256.4408390317318" fill="rgb(0, 0, 0)"
                                  stroke="rgb(60, 60, 60)" stroke-width="1px" opacity="0.25"></line>
                            <line x1="0" y1="229.15057723635658" x2="1440" y2="229.15057723635658" fill="rgb(0, 0, 0)"
                                  stroke="rgb(60, 60, 60)" stroke-width="1px" opacity="0.25"></line>
                            <line x1="0" y1="201.86031544098137" x2="1440" y2="201.86031544098137" fill="rgb(0, 0, 0)"
                                  stroke="rgb(60, 60, 60)" stroke-width="1px" opacity="0.25"></line>
                            <line x1="0" y1="174.57005364560612" x2="1440" y2="174.57005364560612" fill="rgb(0, 0, 0)"
                                  stroke="rgb(60, 60, 60)" stroke-width="1px" opacity="0.25"></line>
                            <line x1="0" y1="147.27979185023094" x2="1440" y2="147.27979185023094" fill="rgb(0, 0, 0)"
                                  stroke="rgb(60, 60, 60)" stroke-width="1px" opacity="0.25"></line>
                            <line x1="0" y1="119.98953005485566" x2="1440" y2="119.98953005485566" fill="rgb(0, 0, 0)"
                                  stroke="rgb(60, 60, 60)" stroke-width="1px" opacity="0.25"></line>
                            <line x1="0" y1="92.69926825948045" x2="1440" y2="92.69926825948045" fill="rgb(0, 0, 0)"
                                  stroke="rgb(60, 60, 60)" stroke-width="1px" opacity="0.25"></line>
                            <line x1="0" y1="65.40900646410518" x2="1440" y2="65.40900646410518" fill="rgb(0, 0, 0)"
                                  stroke="rgb(60, 60, 60)" stroke-width="1px" opacity="0.25"></line>
                            <line x1="0" y1="38.11874466873002" x2="1440" y2="38.11874466873002" fill="rgb(0, 0, 0)"
                                  stroke="rgb(60, 60, 60)" stroke-width="1px" opacity="0.25"></line>
                            <line x1="0" y1="10.828482873354801" x2="1440" y2="10.828482873354801" fill="rgb(0, 0, 0)"
                                  stroke="rgb(60, 60, 60)" stroke-width="1px" opacity="0.25"></line>
                        </g>
                    </g>
                </g>
                <g>
                    <g>
                        <line x1="0" y1="447.4726715993584" x2="1440" y2="447.4726715993584" fill="rgb(0, 0, 0)"
                              stroke="rgb(153, 153, 153)" stroke-width="1.5px"></line>
                    </g>
                </g>
                <g>
                    <g>
                        <line x1="41.400064956328904" y1="0" x2="41.400064956328904" y2="378" fill="rgb(0, 0, 0)"
                              stroke="rgb(153, 153, 153)" stroke-width="1.5px"></line>
                    </g>
                </g>
                <g>
                    <g>
                        <g>
                            <g>
                                <g>
                                    <path stroke="rgb(0, 200, 50)" stroke-width="2px"
                                          d="M334.5073536783065,61.541781997562225L339.4752738261367,64.227522173934L344.4431939739668,73.23767698993777L349.41111412179697,96.97247133593106L354.3790342696271,88.57276403052316L359.3469544174572,92.49606636758205L364.31487456528737,81.75603751771467L369.2827947131174,86.7789210430268L374.25071486094765,103.3356129497248L379.2186350087777,94.23915556773898L384.1865551566078,79.23830553008253L389.154475304438,65.99321809739769L394.1223954522681,73.42731246852867L399.0903156000983,77.92343980207363L404.05823574792834,64.96059689988851L409.02615589575845,77.52170212776855L413.9940760435886,78.59108606430169L418.96199619141873,92.91938707229593L423.9299163392489,93.97182863169604L428.897836487079,102.07380807330316L433.8657566349092,83.59258931882852L438.8336767827393,76.81209563214958L443.80159693056936,80.31677504686377L448.76951707839953,87.52751010309254L453.73743722622964,89.93632759075791L458.7053573740598,83.9989247327602L463.67327752188993,92.02300541217727L468.6411976697201,89.644985776868L473.6091178175502,81.63011393917532L478.57703796538027,71.76826749170056L483.54495811321044,74.11086983210544L488.51287826104056,85.26898223817545L493.4807984088707,77.85318846540503L498.44871855670084,64.65403419615268L503.4166387045309,65.42554769711836L508.3845588523611,70.24948145467852L513.3524790001912,70.58626166093006L518.3203991480214,79.06003410835183L523.2883192958515,83.26624565176945L528.2562394436817,65.86425128012036L533.2241595915117,65.98955082524407L538.1920797393418,73.35644847647899L543.159999887172,78.47887905134138L548.1279200350021,66.78045348668894L553.0958401828323,74.23343471852826L558.0637603306624,78.52850955670687L563.0316804784926,76.87972193187079L567.9996006263226,86.82091547128454L572.9675207741527,76.32928836438055L577.935440921983,83.48551582004171L582.9033610698131,64.45489436020966L587.8712812176432,79.43347317099267L592.8392013654733,84.32879357036819L597.8071215133034,87.09860261478889L602.7750416611335,75.80654342158505L607.7429618089636,73.79398136277752L612.7108819567939,77.2255810578738L617.678802104624,64.9499086140151L622.6467222524541,83.25993994866343L627.6146424002842,76.93133374862458L632.5825625481143,72.5438780204538L637.5504826959444,81.71970852031802L642.5184028437745,87.01033790794776L647.4863229916048,92.30242472535667L652.4542431394349,88.32329350109285L657.422163287265,88.68748263049463L662.3900834350951,77.3775025013561L667.3580035829252,84.71058156424823L672.3259237307553,69.55272506488461L677.2938438785854,70.90689544507859L682.2617640264157,80.29584264516359L687.2296841742458,91.21805838429475L692.1976043220759,100.0142430913823L697.165524469906,84.72054600485029L702.1334446177361,83.5207745970726L707.1013647655662,102.48458604370018L712.0692849133964,81.52080713814803L717.0372050612266,86.59634696037966L722.0051252090567,83.11973417368114L726.9730453568868,64.1765014896398L731.9409655047168,70.68773379934947L736.9088856525472,71.23242126058602L741.8768058003773,63.99903431652149L746.8447259482073,78.8969415304561L751.8126460960374,72.14698913513007L756.7805662438675,67.46053788725351L761.7484863916977,82.67410165624665L766.7164065395278,76.63916078707962L771.684326687358,83.78358277133549L776.6522468351881,67.28858990204395L781.6201669830183,75.70760655186331L786.5880871308484,78.57985630716223L791.5560072786785,72.6843574491877L796.5239274265086,77.2189564878077L801.4918475743386,76.89330106529053L806.459767722169,88.91019821462345L811.4276878699991,93.96625801473385L816.3956080178291,74.93972048939787L821.3635281656592,65.45028938599063L826.3314483134893,75.52559406378481L831.2993684613195,82.08839406493604L836.2672886091497,96.36765594410014L841.2352087569798,88.32128505511196L846.2031289048099,78.11426523192665L851.17104905264,87.78438882544151L856.1389692004702,98.06801582663036L861.1068893483003,90.14032301006336L866.0748094961305,80.49106614626919L871.0427296439605,63.58986710027176L876.0106497917908,74.99741217726586L880.9785699396209,74.2563129221461L885.9464900874509,77.77598610437917L890.914410235281,70.81080810623706L895.8823303831111,73.52316734264991L900.8502505309414,65.08841068777463L905.8181706787715,84.22121652686371L910.7860908266016,79.73653416046233L915.7540109744317,86.4417567044976L920.7219311222618,86.0958848306268L925.689851270092,85.71381127237805L930.6577714179222,92.03514324228775L935.6256915657523,76.73494868039319L940.5936117135823,76.30315738594265L945.5615318614124,66.84712115710744L950.5294520092427,67.71259407759123L955.4973721570727,78.04445253436057L960.4652923049028,82.7265949893972L965.433212452733,67.85588754962146L970.4011326005632,68.79917924043991L975.3690527483933,89.64855993440221L980.3369728962234,83.09135779541879L985.3048930440535,65.09184133353472L990.2728131918836,66.48756510453472L995.2407333397139,88.05700378750345L1000.208653487544,93.1617256439115L1005.1765736353741,81.33782527284433L1010.1444937832042,91.68148992750383L1015.1124139310342,100.74351100544601L1020.0803340788646,88.84192001943171L1025.0482542266946,61.52114195231303L1030.0161743745248,70.2327797068574L1034.9840945223548,83.76299213884931L1039.9520146701848,67.82160545552892L1044.9199348180152,76.29622597600655L1049.8878549658452,66.22785135933293L1054.8557751136752,66.7885788071286L1059.8236952615055,75.77460077278522L1064.7916154093357,63.87592861992573L1069.7595355571657,84.58420576747204L1074.727455704996,82.57050950192001L1079.695375852826,63.882072933141956L1084.6632960006561,80.74181332361769L1089.6312161484864,68.30119670135679L1094.5991362963164,84.52596841999014L1099.5670564441466,84.06954974557505L1104.5349765919766,89.84645756353979L1109.5028967398068,64.33654217183243L1114.470816887637,84.07806489794609L1119.438737035467,91.66359347952175L1124.406657183297,74.02152102301443L1129.3745773311273,68.41462573234406L1134.3424974789573,79.21592657073177L1139.3104176267875,65.00383633464395L1144.2783377746177,66.48679195278879L1149.2462579224477,77.74765428504492L1154.214178070278,76.11949427814494L1159.1820982181082,78.1633807969709L1164.1500183659382,85.49951081945244L1169.1179385137684,93.05332729018102L1174.0858586615984,91.22091373262055L1179.0537788094286,79.33643048082507L1184.0216989572589,67.31322370775149L1188.9896191050889,84.46256128343435L1193.957539252919,81.22037428977205L1198.925459400749,78.40541952507954L1203.893379548579,63.81610278731296L1208.8612996964093,90.46045279934123L1213.8292198442396,68.90992168271373L1218.7971399920696,63.03511424785529L1223.7650601398998,70.02950988159745L1228.7329802877298,78.40588656894772L1233.70090043556,76.41857883802157L1238.6688205833902,71.26822732394214L1243.6367407312202,55.61344764858228L1248.6046608790505,67.14643394118718L1253.5725810268807,66.68215023704937L1258.5405011747107,70.84818339355246L1263.508421322541,64.89392575050124L1268.476341470371,71.22217383283214L1273.444261618201,73.71936315880356L1278.4121817660312,80.3157105815178L1283.3801019138614,66.93695231966888L1288.3480220616914,76.48595486401973L1293.3159422095216,76.57056663626275L1298.2838623573516,82.33131835833643L1303.2517825051818,66.15742986443985L1308.219702653012,65.53055883719571L1313.187622800842,78.45479464088294L1318.1555429486723,79.78801112723028L1323.1234630965023,72.4304605649142L1328.0913832443325,75.60447375581435L1333.0593033921627,93.21662004030793L1338.0272235399927,86.346155042536L1342.9951436878227,80.10028461876556L1347.963063835653,67.18790786651203L1352.9309839834832,61.292977993101715L1357.8989041313132,69.5275005900782L1362.8668242791434,81.48948975193798L1367.8347444269734,72.32465557249145L1372.8026645748037,74.07644083381871L1377.7705847226339,83.5860771879806L1382.7385048704639,76.92426984486605L1387.706425018294,76.21402532323589L1392.674345166124,74.0443777497357L1397.6422653139543,75.35850778852523L1402.6101854617846,68.02732569489353L1407.5781056096146,72.86361870384349L1412.5460257574446,83.70606964271747L1417.5139459052748,68.97735390361498L1422.481866053105,83.41193378675928L1427.449786200935,96.43949865383075L1432.4177063487653,59.53523796748942L1437.3856264965953,54.101294624789205L1442.3535466444255,64.64530543523762"
                                          style="fill: none;" fill="none"></path>
                                </g>
                                <g>
                                    <path stroke="rgb(0, 200, 50)" stroke-width="2px"
                                          d="M41.400064956328904,298.26004980447556L46.367985104159025,247.88695752326146L51.33590525198917,230.55960017848997L56.30382539981929,214.01113420207304L61.27174554764942,175.8199467767757L66.23966569547954,129.83058981208424L71.20758584330967,119.82274581292398L76.1755059911398,107.18798801622819L81.14342613896993,115.67387715323468L86.11134628680007,98.82631034125012L91.0792664346302,102.20523002055376L96.04718658246033,92.25586566635133L101.01510673029044,88.98128371741404L105.98302687812058,98.20224637916039L110.95094702595071,87.88289759085632L115.91886717378084,78.74585943822854L120.88678732161097,93.58233948510787L125.85470746944111,80.13292194192206L130.82262761727122,90.03176623113848L135.79054776510137,80.02898932030126L140.75846791293148,80.4040097285403L145.72638806076162,90.83758800677003L150.69430820859174,84.01735711349244L155.66222835642188,73.87802477723744L160.63014850425202,73.78151153022907L165.59806865208213,96.94463096485754L170.56598879991228,78.17490212274527L175.53390894774242,75.4379536254458L180.50182909557253,89.98831547099724L185.46974924340265,75.38182712093891L190.4376693912328,85.99591203397313L195.40558953906293,87.78270994085153L200.37350968689307,89.3612260382643L205.34142983472316,81.58084644344257L210.3093499825533,76.98113632587177L215.27727013038344,87.48754475421975L220.24519027821356,96.00800264415648L225.2131104260437,101.1117076489744L230.18103057387384,105.09559218180465L235.14895072170393,82.36065679379897L240.11687086953407,88.21607598576543L245.0847910173642,87.00442306294445L250.05271116519435,85.97147668405114L255.0206313130245,102.84882901285818L259.98855146085464,67.33672081498543L264.9564716086847,87.11891444723301L269.92439175651486,76.04898584417964L274.892311904345,72.440730940344L279.86023205217515,88.64942468677197L284.82815220000526,89.46717036600472L289.7960723478354,85.53458022558931L294.76399249566555,88.58019775706629L299.7319126434956,93.62466985483587L304.6998327913258,82.98190676559449L309.6677529391559,84.09007761677975L314.63567308698606,85.80205172934257L319.6035932348162,80.27453248806779L324.5715133826463,68.31451594739218L329.5394335304764,63.14774544054774"
                                          style="fill: none;" fill="none"></path>
                                </g>
                                <g>
                                    <path stroke="rgb(238, 51, 119)" stroke-width="2px"
                                          d="M41.400064956328904,273.2455761435213L46.367985104159025,243.82752397529197L51.33590525198917,248.04227504151334L56.30382539981929,236.510042530953L61.27174554764942,232.21971172779598L66.23966569547954,237.4736801647064L71.20758584330967,248.51557499475348L76.1755059911398,231.72202032355378L81.14342613896993,237.0598096980838L86.11134628680007,237.50210818848788L91.0792664346302,243.49311959877275L96.04718658246033,245.97293897303774L101.01510673029044,228.32213665751297L105.98302687812058,223.19810193152324L110.95094702595071,210.17957204280174L115.91886717378084,208.7672633770042L120.88678732161097,219.27001631715586L125.85470746944111,209.47028128052412L130.82262761727122,209.0885681935813L135.79054776510137,201.26445329670872L140.75846791293148,197.2910187673395L145.72638806076162,195.86187625655785L150.69430820859174,176.41843188274441L155.66222835642188,180.4417202141503L160.63014850425202,154.45323338075897L165.59806865208213,143.6319979135755L170.56598879991228,150.09248074015557L175.53390894774242,148.6612353045224L180.50182909557253,152.21909635206163L185.46974924340265,151.6813690489258L190.4376693912328,146.52970011339133L195.40558953906293,131.73707526956605L200.37350968689307,139.7818144301782L205.34142983472316,140.81356030928896L210.3093499825533,144.27171478888064L215.27727013038344,136.6753470446608L220.24519027821356,134.89096953992416L225.2131104260437,128.05467792564102L230.18103057387384,139.736096169244L235.14895072170393,136.25270555452866L240.11687086953407,128.53810991498787L245.0847910173642,120.07340309700186L250.05271116519435,126.07836851276147L255.0206313130245,120.53041461693243L259.98855146085464,130.72249247994682L264.9564716086847,131.22166250293094L269.92439175651486,144.28819070919073L274.892311904345,126.70690683456493L279.86023205217515,124.76981476596927L284.82815220000526,120.85495120684328L289.7960723478354,134.82144868621444L294.76399249566555,123.81278238343359L299.7319126434956,134.0356182004173L304.6998327913258,129.65355931531658L309.6677529391559,123.80182925873993L314.63567308698606,103.3653721911457L319.6035932348162,110.28742615490665L324.5715133826463,126.74005723128829L329.5394335304764,130.97672131524908L334.5073536783065,125.02902926777247L339.4752738261367,130.4199858241634L344.4431939739668,117.55193773824851L349.41111412179697,124.397075762788L354.3790342696271,130.4843933183068L359.3469544174572,131.20275695920688L364.31487456528737,114.37876606128634L369.2827947131174,119.47710731948945L374.25071486094765,125.41484408490919L379.2186350087777,122.43669912751147L384.1865551566078,120.47761428895154L389.154475304438,101.8515654861659L394.1223954522681,114.85193141122227L399.0903156000983,126.77598201156653L404.05823574792834,124.2701369750639L409.02615589575845,131.16122004099222L413.9940760435886,132.42412998454697L418.96199619141873,133.76145408459539L423.9299163392489,136.04433542661383L428.897836487079,126.80848190231245L433.8657566349092,133.87104762033556L438.8336767827393,133.54619213109942L443.80159693056936,123.96910985093047L448.76951707839953,114.8142035239066L453.73743722622964,105.49241540398441L458.7053573740598,108.04377458836444L463.67327752188993,101.32398710428976L468.6411976697201,101.63425645765244L473.6091178175502,102.78320781718139L478.57703796538027,106.75237708840154L483.54495811321044,120.5751520475875L488.51287826104056,124.2923178634945L493.4807984088707,127.36458668627239L498.44871855670084,114.44270725630429L503.4166387045309,97.65914937503499L508.3845588523611,99.15239649872859L513.3524790001912,110.28256659890087L518.3203991480214,116.48169921149099L523.2883192958515,109.68076075030746L528.2562394436817,105.41423570099431L533.2241595915117,105.00944805460426L538.1920797393418,115.15707992628126L543.159999887172,92.50855998847743L548.1279200350021,120.64037145492313L553.0958401828323,101.51258413511897L558.0637603306624,111.8423276846006L563.0316804784926,99.13631638567546L567.9996006263226,86.25917163201967L572.9675207741527,92.96541350934382L577.935440921983,95.79580278381542L582.9033610698131,96.41575430015297L587.8712812176432,109.9789756382279L592.8392013654733,103.24718899371675L597.8071215133034,107.68893906207916L602.7750416611335,103.05533798619558L607.7429618089636,89.89107129353692L612.7108819567939,105.27982612739686L617.678802104624,103.21974698542869L622.6467222524541,104.29736206094253L627.6146424002842,111.26840430715538L632.5825625481143,94.36443032885887L637.5504826959444,111.4824210491393L642.5184028437745,102.48741599045218L647.4863229916048,94.20024679710946L652.4542431394349,98.42729440411318L657.422163287265,102.90874929595128L662.3900834350951,91.17683683146299L667.3580035829252,101.89344012999254L672.3259237307553,99.03944351179001L677.2938438785854,88.74771433390583L682.2617640264157,95.99205335163714L687.2296841742458,99.82274796280927L692.1976043220759,92.28725086927165L697.165524469906,102.59096729119972L702.1334446177361,87.5389082161239L707.1013647655662,83.10968380735017L712.0692849133964,103.22468716037133L717.0372050612266,103.62459876502243L722.0051252090567,91.86108793623828L726.9730453568868,93.05342883021575L731.9409655047168,79.51326607290724L736.9088856525472,84.60331635226026L741.8768058003773,79.13539335253842L746.8447259482073,93.00872345338934L751.8126460960374,75.41103641199635L756.7805662438675,77.81161354334097L761.7484863916977,95.98743302675467L766.7164065395278,84.88168569450488L771.684326687358,77.18480093341543L776.6522468351881,83.19940992141431L781.6201669830183,92.35453262494792L786.5880871308484,95.92650437006574L791.5560072786785,83.12704462253828L796.5239274265086,83.10503795798775L801.4918475743386,77.43865913757884L806.459767722169,94.33083876755381L811.4276878699991,82.06018050806631L816.3956080178291,88.18660323621083L821.3635281656592,90.02983778614345L826.3314483134893,77.23758127365005L831.2993684613195,83.71905272164668L836.2672886091497,95.00372760988927L841.2352087569798,90.64195574764994L846.2031289048099,87.48401648143243L851.17104905264,82.56182985562566L856.1389692004702,96.630366589571L861.1068893483003,90.95463390970895L866.0748094961305,85.34942363344271L871.0427296439605,95.73109224040775L876.0106497917908,104.14382016456165L880.9785699396209,88.84838797164531L885.9464900874509,84.00927777483321L890.914410235281,88.22823126165008L895.8823303831111,99.90764421652369L900.8502505309414,104.58218176774301L905.8181706787715,91.84426860873566L910.7860908266016,89.00199263350703L915.7540109744317,92.17740532056166L920.7219311222618,98.686892038368L925.689851270092,93.77568081216475L930.6577714179222,83.61381093686248L935.6256915657523,105.73676104496502L940.5936117135823,89.6411944580534L945.5615318614124,89.85846633566865L950.5294520092427,102.6672426379871L955.4973721570727,92.47910079970524L960.4652923049028,95.50725259655451L965.433212452733,75.8489279073492L970.4011326005632,73.39693519308446L975.3690527483933,81.81122601850188L980.3369728962234,89.2189991342745L985.3048930440535,98.57269983416768L990.2728131918836,87.92182371906972L995.2407333397139,83.84118149455463L1000.208653487544,80.40448434181707L1005.1765736353741,83.14712451920491L1010.1444937832042,87.65615795411003L1015.1124139310342,92.44216422281863L1020.0803340788646,100.17106095761596L1025.0482542266946,86.4024943101648L1030.0161743745248,77.2339823891719L1034.9840945223548,81.605032994039L1039.9520146701848,84.13442660212081L1044.9199348180152,88.87233943766222L1049.8878549658452,83.69702159581755L1054.8557751136752,87.42737951752338L1059.8236952615055,94.51997138976998L1064.7916154093357,90.99977010932264L1069.7595355571657,88.96034003008685L1074.727455704996,80.15606295154402L1079.695375852826,81.0315056995056L1084.6632960006561,87.418929200724L1089.6312161484864,97.40553374720622L1094.5991362963164,79.51345041320565L1099.5670564441466,89.58596759118512L1104.5349765919766,83.3213644027357L1109.5028967398068,85.23723456708228L1114.470816887637,95.3994870677318L1119.438737035467,86.44500249560122L1124.406657183297,72.9279672231637L1129.3745773311273,64.91176762812142L1134.3424974789573,78.80299589887557L1139.3104176267875,86.40033058579439L1144.2783377746177,79.74459900288127L1149.2462579224477,77.03546807881622L1154.214178070278,98.06874221699405L1159.1820982181082,81.49020652711107L1164.1500183659382,85.8157887648706L1169.1179385137684,100.41744424580872L1174.0858586615984,88.3037449676919L1179.0537788094286,87.20230729013724L1184.0216989572589,82.53334784902785L1188.9896191050889,79.56024890805008L1193.957539252919,86.86014106969685L1198.925459400749,79.97089490731395L1203.893379548579,81.06510449947763L1208.8612996964093,87.82362702009709L1213.8292198442396,83.93987085374488L1218.7971399920696,77.04690005204372L1223.7650601398998,87.33197954968807L1228.7329802877298,93.84851033522733L1233.70090043556,82.09993590899137L1238.6688205833902,100.87238837901947L1243.6367407312202,101.40458734437829L1248.6046608790505,103.23712460967045L1253.5725810268807,91.11680882670731L1258.5405011747107,71.73502044654543L1263.508421322541,78.20239716223699L1268.476341470371,88.19705369337095L1273.444261618201,96.23394440013112L1278.4121817660312,84.72460242491417L1283.3801019138614,87.75704765229739L1288.3480220616914,78.17607039843364L1293.3159422095216,82.33854049423451L1298.2838623573516,91.44451350160574L1303.2517825051818,84.30278301605568L1308.219702653012,72.44713511344918L1313.187622800842,77.53427842821083L1318.1555429486723,80.78238069620369L1323.1234630965023,85.25074777269276L1328.0913832443325,77.69127785654257L1333.0593033921627,87.38024600679279L1338.0272235399927,74.83124395039857L1342.9951436878227,94.79964270558173L1347.963063835653,97.17461902204576L1352.9309839834832,85.0181136733346L1357.8989041313132,71.68133760680769L1362.8668242791434,80.50624526694156L1367.8347444269734,95.36900731304257L1372.8026645748037,73.86380809646982L1377.7705847226339,76.03635349417408L1382.7385048704639,77.92090795238187L1387.706425018294,73.61987775570265L1392.674345166124,72.92853162522772L1397.6422653139543,72.04935758870232L1402.6101854617846,71.09171504079376L1407.5781056096146,53.804498753426856L1412.5460257574446,47.9129131687597L1417.5139459052748,70.23850035409197L1422.481866053105,61.3818235294483L1427.449786200935,61.63466965026197L1432.4177063487653,71.73350423971311L1437.3856264965953,71.6373576786043L1442.3535466444255,68.58637105017806"
                                          style="fill: none;" fill="none"></path>
                                </g>
                                <g>
                                    <path stroke="rgb(51, 187, 238)" stroke-width="2px"
                                          d="M41.400064956328904,267.68660089056976L46.367985104159025,233.89469374962385L51.33590525198917,250.2126122225526L56.30382539981929,238.55081691104425L61.27174554764942,224.23432149290468L66.23966569547954,211.65502067677318L71.20758584330967,205.29369292936258L76.1755059911398,194.75734849905086L81.14342613896993,173.59312066934262L86.11134628680007,161.1617406246323L91.0792664346302,155.33072328267914L96.04718658246033,140.25659092742487L101.01510673029044,133.84399857004468L105.98302687812058,132.13714971699275L110.95094702595071,114.94993839456782L115.91886717378084,120.54496561477896L120.88678732161097,119.49173205674316L125.85470746944111,106.89377929473267L130.82262761727122,109.67048992325891L135.79054776510137,122.05540633765642L140.75846791293148,104.51996020385286L145.72638806076162,94.08940430913316L150.69430820859174,98.14909126086093L155.66222835642188,106.6482154548263L160.63014850425202,119.41469142050715L165.59806865208213,108.63202411587076L170.56598879991228,102.8547420394508L175.53390894774242,81.85444229400952L180.50182909557253,87.51002240298851L185.46974924340265,93.05555297502963L190.4376693912328,111.56188937391147L195.40558953906293,93.78338573390852L200.37350968689307,97.4147232780291L205.34142983472316,100.49357345500385L210.3093499825533,104.39485836188004L215.27727013038344,97.23626707963132L220.24519027821356,96.78009237266167L225.2131104260437,97.7830515646354L230.18103057387384,107.74008021187325L235.14895072170393,98.46073586162038L240.11687086953407,102.96786883687594L245.0847910173642,108.06017858141342L250.05271116519435,101.61797147063248L255.0206313130245,108.87177735510159L259.98855146085464,94.46032603358071L264.9564716086847,107.21510932832717L269.92439175651486,93.27963842460542L274.892311904345,92.35271117902079L279.86023205217515,92.4021306362157L284.82815220000526,118.3368029389897L289.7960723478354,104.06985035639684L294.76399249566555,97.39626981556103L299.7319126434956,88.8943412372127L304.6998327913258,95.84910166187478L309.6677529391559,113.28905699413548L314.63567308698606,119.43027143331972L319.6035932348162,105.37414270245114L324.5715133826463,105.68997431431575L329.5394335304764,111.08177297341138L334.5073536783065,107.716531071941L339.4752738261367,95.83625661686307L344.4431939739668,92.42163522532371L349.41111412179697,82.3316096472036L354.3790342696271,86.55912086364793L359.3469544174572,102.35910374290086L364.31487456528737,94.33775554568518L369.2827947131174,100.25903031427993L374.25071486094765,107.895320718741L379.2186350087777,98.44043974452501L384.1865551566078,98.09383292829887L389.154475304438,110.4552054103824L394.1223954522681,95.42605492715074L399.0903156000983,88.51444284231383L404.05823574792834,96.60662096995776L409.02615589575845,93.56275332632691L413.9940760435886,86.1098423732198L418.96199619141873,85.75462537644813L423.9299163392489,83.49406710531309L428.897836487079,78.35443534355181L433.8657566349092,69.08836469487716L438.8336767827393,79.2087844592877L443.80159693056936,105.05730968237492L448.76951707839953,100.41200708453414L453.73743722622964,92.27759516171062L458.7053573740598,101.85333742653182L463.67327752188993,96.83879228552894L468.6411976697201,101.9661146641202L473.6091178175502,97.23956454124192L478.57703796538027,105.17869628804988L483.54495811321044,103.14695177998988L488.51287826104056,90.30168091591554L493.4807984088707,95.32523115985953L498.44871855670084,111.32619472986164L503.4166387045309,86.72206131711533L508.3845588523611,75.78409431584873L513.3524790001912,84.1860580941252L518.3203991480214,90.86247124077306L523.2883192958515,83.42688647993538L528.2562394436817,94.08433355386654L533.2241595915117,106.49296016936091L538.1920797393418,92.83374680798198L543.159999887172,101.16670530888302L548.1279200350021,74.14576261376448L553.0958401828323,87.35142823277448L558.0637603306624,99.58138466121926L563.0316804784926,87.21040824882976L567.9996006263226,81.43905889694247L572.9675207741527,88.4483689651953L577.935440921983,92.01245909697133L582.9033610698131,90.36570064101522L587.8712812176432,74.57495014971283L592.8392013654733,84.5767589789516L597.8071215133034,100.97188481110766L602.7750416611335,97.59090148291438L607.7429618089636,90.25390543705458L612.7108819567939,87.41289362801467L617.678802104624,94.58812931537591L622.6467222524541,99.32916749094386L627.6146424002842,105.2517080777983L632.5825625481143,106.29407105728842L637.5504826959444,112.6192151343414L642.5184028437745,93.48930820784278L647.4863229916048,107.38234498148898L652.4542431394349,103.50574861107106L657.422163287265,108.2119675657998L662.3900834350951,86.81268021069872L667.3580035829252,95.15833726690596L672.3259237307553,89.6187585817778L677.2938438785854,84.93022168793942L682.2617640264157,85.2822025984774L687.2296841742458,84.98897222390667L692.1976043220759,97.98263496101788L697.165524469906,93.99891925121273L702.1334446177361,80.08933643697401L707.1013647655662,95.78326202744512L712.0692849133964,94.6713550309837L717.0372050612266,90.372580811283L722.0051252090567,86.13289324071161L726.9730453568868,94.82335244438656L731.9409655047168,103.83509592768081L736.9088856525472,105.43737083477708L741.8768058003773,100.65753589148915L746.8447259482073,102.48842184566774L751.8126460960374,92.30214759920523L756.7805662438675,87.36368564379319L761.7484863916977,78.54210944040148L766.7164065395278,77.35858501840488L771.684326687358,96.99157446671114L776.6522468351881,91.94867751753662L781.6201669830183,90.04254009223553L786.5880871308484,86.21992093395272L791.5560072786785,87.26465762962584L796.5239274265086,87.63853906850176L801.4918475743386,74.60798514611554L806.459767722169,81.09475268765237L811.4276878699991,99.09156644808166L816.3956080178291,83.89847031310802L821.3635281656592,83.88419853133263L826.3314483134893,96.32407961241506L831.2993684613195,103.30307905103973L836.2672886091497,100.05116624915439L841.2352087569798,87.29448400852988L846.2031289048099,91.92422832717881L851.17104905264,88.90090142399646L856.1389692004702,88.98969056328752L861.1068893483003,85.57117102285014L866.0748094961305,84.44869421138134L871.0427296439605,77.50190607815983L876.0106497917908,93.64468057657109L880.9785699396209,93.93079491609814L885.9464900874509,77.4766347220704L890.914410235281,86.91201189263029L895.8823303831111,89.73824267560065L900.8502505309414,88.70008393159935L905.8181706787715,103.80286653473365"
                                          style="fill: none;" fill="none"></path>
                                </g>
                                <g>
                                    <path stroke="rgb(0, 119, 187)" stroke-width="2px"
                                          d="M41.400064956328904,216.7761034127829L46.367985104159025,230.7919759899671L51.33590525198917,251.35620392541443L56.30382539981929,230.14959091221408L61.27174554764942,178.02185886822798L66.23966569547954,147.23964374607849L71.20758584330967,119.78143469920917L76.1755059911398,103.65451156106911L81.14342613896993,99.39329554583207L86.11134628680007,108.24460669974997L91.0792664346302,117.21589294706251L96.04718658246033,98.26582885208472L101.01510673029044,105.05352366891077L105.98302687812058,82.4481022818182L110.95094702595071,91.67040249366573L115.91886717378084,95.53664281653204L120.88678732161097,90.74526363064786L125.85470746944111,89.14221020686347L130.82262761727122,80.78898894299175L135.79054776510137,71.780572437861L140.75846791293148,78.0525544590281L145.72638806076162,95.6954659124778L150.69430820859174,80.80184275523533L155.66222835642188,78.50124324565962L160.63014850425202,103.11552953751408L165.59806865208213,92.83691454389236L170.56598879991228,99.79471031696846L175.53390894774242,91.9469020231349L180.50182909557253,65.32193475286016L185.46974924340265,70.2844705718361L190.4376693912328,79.74252608268085L195.40558953906293,94.3084982439974L200.37350968689307,82.81572236103062L205.34142983472316,79.82967552682885L210.3093499825533,71.7244067860725L215.27727013038344,70.16380848926349L220.24519027821356,87.74453288745104L225.2131104260437,75.72483112163673L230.18103057387384,90.3720262573159L235.14895072170393,85.61578770797286L240.11687086953407,85.0773461012264L245.0847910173642,79.84668552965286L250.05271116519435,81.8502775021114L255.0206313130245,92.40822671973342L259.98855146085464,86.13617589822246L264.9564716086847,93.44781526746294L269.92439175651486,88.6289963250839L274.892311904345,74.22119698460534L279.86023205217515,86.63663869543376L284.82815220000526,81.31100992102222L289.7960723478354,87.14614208052603L294.76399249566555,82.47885359411288L299.7319126434956,83.27883964576841L304.6998327913258,93.60692651476904L309.6677529391559,89.86374738322701L314.63567308698606,91.71030844874724L319.6035932348162,89.52143378891395L324.5715133826463,49.253195085612845L329.5394335304764,71.87696247626536L334.5073536783065,61.98375891477093L339.4752738261367,76.24516305635564L344.4431939739668,82.49400606010863L349.41111412179697,92.37421627346583L354.3790342696271,85.79099860464669L359.3469544174572,84.65486550411447L364.31487456528737,83.35650078558376L369.2827947131174,96.34753285774923L374.25071486094765,88.36409248250231L379.2186350087777,77.36784132783072L384.1865551566078,85.21591952293159L389.154475304438,68.52744187622244L394.1223954522681,74.34275689617033L399.0903156000983,85.31509044934478L404.05823574792834,76.16357890461711L409.02615589575845,94.62836969123913L413.9940760435886,87.4485043188028L418.96199619141873,69.15413691377444L423.9299163392489,80.7638851234799L428.897836487079,71.1184502057688L433.8657566349092,64.71257931514663L438.8336767827393,77.44040678919015L443.80159693056936,72.38994922552746L448.76951707839953,92.12864338726791L453.73743722622964,80.42947288446356L458.7053573740598,74.01015018734984L463.67327752188993,82.66704121014715L468.6411976697201,81.48170602890013L473.6091178175502,82.51136810932206L478.57703796538027,85.14246085994876L483.54495811321044,100.05183986385606L488.51287826104056,79.9827331790799L493.4807984088707,83.24047118095257L498.44871855670084,67.17089733854334L503.4166387045309,72.69808616003485L508.3845588523611,77.91855728898747L513.3524790001912,88.01891158623482L518.3203991480214,78.18069031060816L523.2883192958515,72.89573304834164L528.2562394436817,86.31182434416633L533.2241595915117,93.94572578349761L538.1920797393418,89.57048381983026L543.159999887172,89.10746465685781L548.1279200350021,84.63738546923383L553.0958401828323,75.53501636232431L558.0637603306624,86.16309171962422L563.0316804784926,84.88564746344866L567.9996006263226,75.38277035873341L572.9675207741527,73.76653393003744L577.935440921983,81.62332772813909L582.9033610698131,69.27911859848325L587.8712812176432,76.69329210196707L592.8392013654733,71.85202868913098L597.8071215133034,61.043554959456344L602.7750416611335,77.20118405997601L607.7429618089636,94.24999559123228L612.7108819567939,70.729443575951L617.678802104624,79.14159416720724L622.6467222524541,94.9732416837769L627.6146424002842,87.38131665618852L632.5825625481143,83.01126405361731L637.5504826959444,71.05796059549749L642.5184028437745,90.50590926884934L647.4863229916048,73.54019761555622L652.4542431394349,78.48296379317839L657.422163287265,84.11622467639194L662.3900834350951,81.31539266530183L667.3580035829252,92.99292130566562L672.3259237307553,85.96499422030962L677.2938438785854,79.58858225074272L682.2617640264157,78.70378439250544L687.2296841742458,84.12566435380108L692.1976043220759,83.25676123462267L697.165524469906,69.70248750972621L702.1334446177361,64.14960122464629L707.1013647655662,61.14317784041111L712.0692849133964,61.225569293831256L717.0372050612266,71.12401519646744L722.0051252090567,81.95821862390437L726.9730453568868,76.39855776002702L731.9409655047168,77.03384685210534L736.9088856525472,73.45164872173291L741.8768058003773,57.86668979542213L746.8447259482073,54.59867972227494L751.8126460960374,65.23494527493853L756.7805662438675,80.21095380959144L761.7484863916977,75.95075067620127L766.7164065395278,73.53423154274498L771.684326687358,83.7424730262913L776.6522468351881,82.30316590612483L781.6201669830183,92.58494858610862L786.5880871308484,80.21642543349043L791.5560072786785,79.7727684667069L796.5239274265086,71.80857398623834L801.4918475743386,78.24220860657238L806.459767722169,81.43744478849277L811.4276878699991,74.14447281183732L816.3956080178291,67.46854687347121L821.3635281656592,53.713018333758725L826.3314483134893,60.4988394582079L831.2993684613195,94.64629046428661L836.2672886091497,65.311216590649L841.2352087569798,68.6348117407706L846.2031289048099,62.280796914311225L851.17104905264,70.96279810726782L856.1389692004702,62.65635578536995L861.1068893483003,75.28761195986442L866.0748094961305,81.82289782741947L871.0427296439605,86.70879576733444L876.0106497917908,85.97720701036269L880.9785699396209,76.89150080070436L885.9464900874509,62.94108135156313L890.914410235281,79.44692500319013L895.8823303831111,99.1718054424627L900.8502505309414,87.68830760621717L905.8181706787715,74.44755610228998L910.7860908266016,69.23689245385708L915.7540109744317,56.05111167238067L920.7219311222618,75.54406897133151L925.689851270092,61.44327793855939L930.6577714179222,74.46521979295301L935.6256915657523,62.03805609347876L940.5936117135823,67.43682112408385L945.5615318614124,72.86958662536273L950.5294520092427,70.25956836324008L955.4973721570727,75.36026488086355L960.4652923049028,86.56719508003351L965.433212452733,84.59374538715105L970.4011326005632,78.4452178522015L975.3690527483933,80.07896658905833L980.3369728962234,65.74292449705905L985.3048930440535,74.80121214824732L990.2728131918836,74.04941999664055L995.2407333397139,71.81684631008608L1000.208653487544,66.45558692327296L1005.1765736353741,58.30933212812545L1010.1444937832042,63.65948746930155L1015.1124139310342,62.300362655085394L1020.0803340788646,95.13050420445467L1025.0482542266946,69.82836410953735L1030.0161743745248,78.47179241578789L1034.9840945223548,80.74780185668811L1039.9520146701848,86.73809095309133L1044.9199348180152,70.90136845284991L1049.8878549658452,59.06605609225784L1054.8557751136752,66.4650657838427L1059.8236952615055,67.87257716571821L1064.7916154093357,80.35066595738141L1069.7595355571657,62.62676553810405L1074.727455704996,71.43174963150949L1079.695375852826,66.94239102817056L1084.6632960006561,72.04303168076501L1089.6312161484864,70.4333744847388L1094.5991362963164,51.773536921965274L1099.5670564441466,63.63970815557997L1104.5349765919766,63.807754071449324L1109.5028967398068,65.83120554212047L1114.470816887637,73.80164988090826L1119.438737035467,67.88245251754734L1124.406657183297,80.86038967449008L1129.3745773311273,79.51188190819192L1134.3424974789573,71.29636903070559L1139.3104176267875,75.57894753169086L1144.2783377746177,91.0376928394366L1149.2462579224477,88.21061965126756L1154.214178070278,83.33825800957811L1159.1820982181082,90.16879888713328L1164.1500183659382,67.62841735174084L1169.1179385137684,72.87181818595207L1174.0858586615984,75.80099700499329L1179.0537788094286,72.6653473077235L1184.0216989572589,79.81849070448106L1188.9896191050889,82.12662745056417L1193.957539252919,69.3352741985571L1198.925459400749,66.85346140249084L1203.893379548579,71.05330736535177L1208.8612996964093,71.52140353671001L1213.8292198442396,59.07433784193523L1218.7971399920696,79.49504492837991L1223.7650601398998,72.64390423761728L1228.7329802877298,77.32253946692072L1233.70090043556,57.5904626335215L1238.6688205833902,63.754167590300995L1243.6367407312202,63.94504149444157L1248.6046608790505,65.89514632427444L1253.5725810268807,71.75845312595249L1258.5405011747107,75.3645162799969L1263.508421322541,83.58665939684033L1268.476341470371,71.94523129477562L1273.444261618201,71.21786369222599L1278.4121817660312,67.70386152906792L1283.3801019138614,100.68957163517308L1288.3480220616914,95.61088655390171L1293.3159422095216,77.43098535750943L1298.2838623573516,86.72296385449744L1303.2517825051818,87.58175958654965L1308.219702653012,76.36224887327546L1313.187622800842,60.701459129910404L1318.1555429486723,73.54063306505651L1323.1234630965023,78.028106695156L1328.0913832443325,78.13316733882186L1333.0593033921627,86.5602033324883L1338.0272235399927,85.76330235242551L1342.9951436878227,77.81501618638589L1347.963063835653,74.77675316934614L1352.9309839834832,80.56109548255523L1357.8989041313132,87.12193136963958L1362.8668242791434,91.0298846523221L1367.8347444269734,71.03103255113172L1372.8026645748037,84.81047960371933L1377.7705847226339,91.48850485033557L1382.7385048704639,85.07529944163105L1387.706425018294,63.20135178699121L1392.674345166124,84.37300102107838L1397.6422653139543,73.45086225422767L1402.6101854617846,87.38444952074462L1407.5781056096146,75.02773978812644L1412.5460257574446,70.63139851153562L1417.5139459052748,62.63739964621038L1422.481866053105,66.749476224462L1427.449786200935,81.20570576533737L1432.4177063487653,81.76905604556947L1437.3856264965953,73.53994352311827L1442.3535466444255,75.71456799147114"
                                          style="fill: none;" fill="none"></path>
                                </g>
                            </g>
                        </g>
                    </g>
                    <g opacity="0.2">
                        <g>
                            <g>
                                <g>
                                    <path style="fill: none;" stroke="rgb(0, 200, 50)" stroke-width="2px"
                                          d="M334.5073536783065,61.541781997562225L339.4752738261367,65.10844495178384L344.4431939739668,77.16235626531193L349.41111412179697,108.1485107860297L354.3790342696271,84.5203599397496L359.3469544174572,94.40374170396484L364.31487456528737,76.52040817228237L369.2827947131174,89.22956524933409L374.25071486094765,111.4157728258379L379.2186350087777,89.79941312895039L384.1865551566078,71.91656758517598L389.154475304438,59.52838455463899L394.1223954522681,77.05585290438171L399.0903156000983,80.11797702734668L404.05823574792834,58.633496062607605L409.02615589575845,83.65271743925052L413.9940760435886,79.11304726205174L418.96199619141873,99.9129625231256L423.9299163392489,94.4855203442209L428.897836487079,106.02834565539274L433.8657566349092,74.57199445244675L438.8336767827393,73.50256895197225L443.80159693056936,82.02739238019785L448.76951707839953,91.04703554717838L453.73743722622964,91.112059935925L458.7053573740598,81.1009066711207L463.67327752188993,95.93952098189175L468.6411976697201,88.48428571677658L473.6091178175502,77.71809316125399L478.57703796538027,66.95474720186161L483.54495811321044,75.25428287920778L488.51287826104056,90.71520376970966L493.4807984088707,74.23357483821951L498.44871855670084,58.211589850446046L503.4166387045309,65.80211976306589L508.3845588523611,72.60402055063048L513.3524790001912,70.75064247588608L518.3203991480214,83.19604208864104L523.2883192958515,85.31927747653276L528.2562394436817,57.370420693958295L533.2241595915117,66.05070893655437L538.1920797393418,76.9521961395817L543.159999887172,80.97911302240516L548.1279200350021,61.07050767537049L553.0958401828323,77.87119936740226L558.0637603306624,80.62491513248455L563.0316804784926,76.07495654355779L567.9996006263226,91.67316469885554L572.9675207741527,71.20837513362972L577.935440921983,86.97843636387631L582.9033610698131,55.16613864767254L587.8712812176432,86.74444616197002L592.8392013654733,86.71817614625377L597.8071215133034,88.45053321980367L602.7750416611335,70.29494310109266L607.7429618089636,72.81165940550244L612.7108819567939,78.9005285280993L617.678802104624,58.958211349750684L622.6467222524541,92.19697905247989L627.6146424002842,73.84237119860563L632.5825625481143,70.40238177217998L637.5504826959444,86.19838769287082L642.5184028437745,89.59266891857652L647.4863229916048,94.88546710052049L652.4542431394349,86.38109849877361L657.422163287265,88.86524161032156L662.3900834350951,71.85715505737187L667.3580035829252,88.28982253542176L672.3259237307553,62.154247487814246L677.2938438785854,71.56785955922078L682.2617640264157,84.8785430642526L687.2296841742458,96.54913987601344L692.1976043220759,104.30761896031782L697.165524469906,77.25576528404298L702.1334446177361,82.93517188613345L707.1013647655662,111.74073210693501L712.0692849133964,71.28848648186664L717.0372050612266,89.07369377837358L722.0051252090567,81.42281602779258L726.9730453568868,54.93039982242914L731.9409655047168,73.86583528385063L736.9088856525472,71.4982806166658L741.8768058003773,60.46845259382337L746.8447259482073,86.16853909916222L751.8126460960374,68.85236951360184L756.7805662438675,65.1731033495995L761.7484863916977,90.09976968635038L766.7164065395278,73.69353488665274L771.684326687358,87.27074112079362L776.6522468351881,59.23746243012789L781.6201669830183,79.8168884880846L786.5880871308484,79.98178773534391L791.5560072786785,69.80679253041444L796.5239274265086,79.43227268522935L801.4918475743386,76.73435020429986L806.459767722169,94.77558848989304L811.4276878699991,96.43409672669253L816.3956080178291,65.652958125841L821.3635281656592,60.81854325218467L826.3314483134893,80.4433022993748L831.2993684613195,85.29166549406938L836.2672886091497,103.33729567083486L841.2352087569798,84.39388974024865L846.2031289048099,73.13226746108614L851.17104905264,92.50433010322848L856.1389692004702,103.08740519625826L861.1068893483003,86.27085389721509L866.0748094961305,75.78130981989341L871.0427296439605,55.340472327820635L876.0106497917908,80.56538060770333L880.9785699396209,73.89458590476613L885.9464900874509,79.49392182427869L890.914410235281,67.41113789285811L895.8823303831111,74.84705696994655L900.8502505309414,60.97144613003792L905.8181706787715,93.5598479483238L910.7860908266016,77.54758205305228L915.7540109744317,89.71454389861009L920.7219311222618,85.92706641599932L925.689851270092,85.52732298799475L930.6577714179222,95.12055527521989L935.6256915657523,69.2669965728017L940.5936117135823,76.0924021112703L945.5615318614124,62.231674902556904L950.5294520092427,68.13502728877972L955.4973721570727,83.08738344778362L960.4652923049028,85.01192642578417L965.433212452733,60.59756606115951L970.4011326005632,69.25959542286307L975.3690527483933,99.82504336835996L980.3369728962234,79.89081865615299L985.3048930440535,56.30636306047222L990.2728131918836,67.16881123085619L995.2407333397139,98.58494409704764L1000.208653487544,95.65331607382495L1005.1765736353741,75.56663580601384L1010.1444937832042,96.73018338989715L1015.1124139310342,105.16664034110818L1020.0803340788646,83.03281013340086L1025.0482542266946,48.18600027669555L1030.0161743745248,74.48488861086122L1034.9840945223548,90.36702439732153L1039.9520146701848,60.04069052676539L1044.9199348180152,80.43264789671588L1049.8878549658452,61.31352565357548L1054.8557751136752,67.0622672042669L1059.8236952615055,80.16063530364136L1064.7916154093357,58.06824340245868L1069.7595355571657,94.69181723234578L1074.727455704996,81.58763394373386L1079.695375852826,54.76033603647642L1084.6632960006561,88.97097232373073L1089.6312161484864,62.22899096906269L1094.5991362963164,92.44520223503736L1099.5670564441466,83.84677396401537L1104.5349765919766,92.66613876040344L1109.5028967398068,51.88527394492763L1114.470816887637,93.71380813331115L1119.438737035467,95.36605385862413L1124.406657183297,65.41050946686204L1129.3745773311273,65.67792684046913L1134.3424974789573,84.48799007518284L1139.3104176267875,58.06698276702957L1144.2783377746177,67.21061552831173L1149.2462579224477,83.24402756626517L1154.214178070278,75.32479713191992L1159.1820982181082,79.16099207401686L1164.1500183659382,89.0802409494732L1169.1179385137684,96.740309138989L1174.0858586615984,90.326521400954L1179.0537788094286,73.5356707984011L1184.0216989572589,61.44475373517986L1188.9896191050889,92.8330712906129L1193.957539252919,79.63787825715116L1198.925459400749,77.03145350897961L1203.893379548579,56.69512676054586L1208.8612996964093,103.46543316235494L1213.8292198442396,58.39121006626459L1218.7971399920696,60.167648714174334L1223.7650601398998,73.44344108378107L1228.7329802877298,82.49435614253531L1233.70090043556,75.4485833979266L1238.6688205833902,68.75436527540336L1243.6367407312202,47.97242423560908L1248.6046608790505,72.77562963162529L1253.5725810268807,66.45553557193443L1258.5405011747107,72.8816043389885L1263.508421322541,61.9876809485358L1268.476341470371,74.31096158730315L1273.444261618201,74.93822937743244L1278.4121817660312,83.53535634736636L1283.3801019138614,60.40684412043299L1288.3480220616914,81.14677753447671L1293.3159422095216,76.6118652393813L1298.2838623573516,85.14311384172947L1303.2517825051818,58.263031909085555L1308.219702653012,65.22458607389791L1313.187622800842,84.76305259268264L1318.1555429486723,80.43874774556645L1323.1234630965023,68.83927517140273L1328.0913832443325,77.15369447994419L1333.0593033921627,101.81302477440602L1338.0272235399927,82.99271379362341L1342.9951436878227,77.05170500716332L1347.963063835653,60.88543826124544L1352.9309839834832,58.41569079298472L1357.8989041313132,73.54673185765006L1362.8668242791434,87.32807969998856L1367.8347444269734,67.8513436515712L1372.8026645748037,74.93147887803786L1377.7705847226339,88.22768540846442L1382.7385048704639,73.67267340358399L1387.706425018294,75.86735835434484L1392.674345166124,72.98538310076549L1397.6422653139543,75.99992840269636L1402.6101854617846,64.44901062538281L1407.5781056096146,75.2241902915452L1412.5460257574446,88.9982183152631L1417.5139459052748,61.788337888100614L1422.481866053105,90.45738349162735L1427.449786200935,102.7981910294252L1432.4177063487653,41.52244406106098L1437.3856264965953,51.449012755137915L1442.3535466444255,69.79178690224217"
                                          fill="none"></path>
                                </g>
                                <g>
                                    <path stroke="rgb(0, 153, 136)" stroke-width="2px"
                                          d="M41.400064956328904,298.26004980447556L46.367985104159025,231.36458325502326L51.33590525198917,223.012080556825L56.30382539981929,206.21893234453836L61.27174554764942,157.39476616909752L66.23966569547954,107.46862163314984L71.20758584330967,114.94404739796022L76.1755059911398,101.02354167051163L81.14342613896993,119.81524436018526L86.11134628680007,90.603454538768L91.0792664346302,103.85444085638261L96.04718658246033,87.39965125983474L101.01510673029044,87.38297833964333L105.98302687812058,102.70295205603895L110.95094702595071,82.84607342725673L115.91886717378084,74.28611486965207L120.88678732161097,100.82395461612236L125.85470746944111,73.56832532258096L130.82262761727122,94.86334498202257L135.79054776510137,75.14668154548451L140.75846791293148,80.58705540395226L145.72638806076162,95.93016788032094L150.69430820859174,80.68843489184803L155.66222835642188,68.92906494648247L160.63014850425202,73.7344038739513L165.59806865208213,108.25043926032203L170.56598879991228,69.01348685457378L175.53390894774242,74.10206209700209L180.50182909557253,97.09027780037331L185.46974924340265,68.25246971198192L190.4376693912328,91.17659633676357L195.40558953906293,88.65483749063736L200.37350968689307,90.13169222866816L205.34142983472316,77.78328021263661L210.3093499825533,74.73603972086698L215.27727013038344,92.61567267758011L220.24519027821356,100.16679756662552L225.2131104260437,103.60280175846884L230.18103057387384,107.04010725140029L235.14895072170393,71.26384309251051L240.11687086953407,91.07407821041568L245.0847910173642,86.41302104109138L250.05271116519435,85.46730047530554L255.0206313130245,111.08658431620444L259.98855146085464,50.00342990888083L264.9564716086847,96.77450895821096L269.92439175651486,70.645806406975L274.892311904345,70.67955890394796L279.86023205217515,96.5608109201475L284.82815220000526,89.86630813801122L289.7960723478354,83.61510170467227L294.76399249566555,90.06674917123951L299.7319126434956,96.0868526644615L304.6998327913258,77.78722478155998L309.6677529391559,84.63097053223919L314.63567308698606,86.63765814142681L319.6035932348162,77.57657666792176L324.5715133826463,62.47688882634816L329.5394335304764,60.62586935982597"
                                          style="fill: none;" fill="none"></path>
                                </g>
                                <g>
                                    <path stroke="rgb(238, 51, 119)" stroke-width="2px"
                                          d="M41.400064956328904,273.2455761435213L46.367985104159025,234.17840286411274L51.33590525198917,249.87815316994227L56.30382539981929,231.07984231068062L61.27174554764942,230.14985935492913L66.23966569547954,240.02838157289347L71.20758584330967,253.89836021903014L76.1755059911398,223.5285140933402L81.14342613896993,239.66481024857248L86.11134628680007,237.71798248943804L91.0792664346302,246.41726159478878L96.04718658246033,247.18332127909707L101.01510673029044,219.70687745716648L105.98302687812058,220.69708625390217L110.95094702595071,203.82529065710276L115.91886717378084,208.07792228022524L120.88678732161097,224.39635992213428L125.85470746944111,204.68707730270532L130.82262761727122,208.90225585388555L135.79054776510137,197.4455400756537L140.75846791293148,195.351604295074L145.72638806076162,195.16431860253329L150.69430820859174,166.92817927192849L155.66222835642188,182.40546809017926L160.63014850425202,141.76837671211038L165.59806865208213,138.3502044117401L170.56598879991228,153.2458116436045L175.53390894774242,147.96265122284439L180.50182909557253,153.95567138716996L185.46974924340265,151.41890691287142L190.4376693912328,144.0151950377138L195.40558953906293,124.51686552436556L200.37350968689307,143.70841330619123L205.34142983472316,141.31715055980732L210.3093499825533,145.95962352296704L215.27727013038344,132.9675961218868L220.24519027821356,134.02002337689788L225.2131104260437,124.71791654247897L230.18103057387384,145.43774078814536L235.14895072170393,134.55247918306046L240.11687086953407,124.77265251949771L245.0847910173642,115.94182000727056L250.05271116519435,129.0093635371203L255.0206313130245,117.82248473920629L259.98855146085464,135.69719715118003L264.9564716086847,131.46530501414932L269.92439175651486,150.66590090510329L274.892311904345,118.12556589575951L279.86023205217515,123.82432935153562L284.82815220000526,118.94412494584134L289.7960723478354,141.63842959876462L294.76399249566555,118.43950478326667L299.7319126434956,139.0253356825165L304.6998327913258,127.514697240446L309.6677529391559,120.94562768350602L314.63567308698606,93.39043481291515L319.6035932348162,113.6660477324566L324.5715133826463,134.7705081138078L329.5394335304764,133.04461688003948L334.5073536783065,122.12598910174219L339.4752738261367,133.05128604811605L344.4431939739668,111.27110474393288L349.41111412179697,127.73815503667029L354.3790342696271,133.45558402992904L359.3469544174572,131.55338683155094L364.31487456528737,106.16705621825372L369.2827947131174,121.96558340980278L374.25071486094765,128.31302512517354L379.2186350087777,120.98308075544833L384.1865551566078,119.52139430822581L389.154475304438,92.76027976099658L394.1223954522681,121.19734811273781L399.0903156000983,132.59605432840118L404.05823574792834,123.04704594534238L409.02615589575845,134.52472487079055L413.9940760435886,133.04055031413913L418.96199619141873,134.41419560961901L423.9299163392489,137.15859893878945L428.897836487079,122.3005057773558L433.8657566349092,137.31825231603727L438.8336767827393,133.38763171373415L443.80159693056936,119.29458159513365L448.76951707839953,110.34573734047831L453.73743722622964,100.94249501211766L458.7053573740598,109.28908085693092L463.67327752188993,98.04409083230087L468.6411976697201,101.78569745155562L473.6091178175502,103.34400550457042L478.57703796538027,108.68970970887801L483.54495811321044,127.32198268242828L488.51287826104056,126.10664879744911L493.4807984088707,128.86414646881872L498.44871855670084,108.13559943929607L503.4166387045309,89.4671746948917L508.3845588523611,99.88124330910284L513.3524790001912,115.71514962398498L518.3203991480214,119.5074663200171L523.2883192958515,106.36125507282503L528.2562394436817,103.33176514121038L533.2241595915117,104.81187313196148L538.1920797393418,120.11009072079025L543.159999887172,81.45392525693023L548.1279200350021,134.37137467068828L553.0958401828323,92.17640222902412L558.0637603306624,116.88422632184762L563.0316804784926,92.93457277548572L567.9996006263226,79.97389859749717L572.9675207741527,96.2386982351806L577.935440921983,97.17730231064081L582.9033610698131,96.71834968312709L587.8712812176432,116.59911938657393L592.8392013654733,99.96143598865774L597.8071215133034,109.85693611925603L602.7750416611335,100.79369936582378L607.7429618089636,83.46565540783439L612.7108819567939,112.7910040820189L617.678802104624,102.2142321661347L622.6467222524541,104.82334084780047L627.6146424002842,114.6709368320926L632.5825625481143,86.11368112516652L637.5504826959444,119.83763080546669L642.5184028437745,98.09699685466444L647.4863229916048,90.15531897654921L652.4542431394349,100.49049621229352L657.422163287265,105.09612608839609L662.3900834350951,85.4505462237961L667.3580035829252,107.12416316856053L672.3259237307553,97.6464213529054L677.2938438785854,83.72437033041473L682.2617640264157,99.52798072933922L687.2296841742458,101.69249176111953L692.1976043220759,88.60921062123538L697.165524469906,107.62016221142648L702.1334446177361,80.19206985805107L707.1013647655662,80.94780046497249L712.0692849133964,113.0427245112507L717.0372050612266,103.81979371491161L722.0051252090567,86.119374317427L726.9730453568868,93.63540474275237L731.9409655047168,72.90437710803047L736.9088856525472,87.08774565527779L741.8768058003773,76.46652617410274L746.8447259482073,99.78022981213809L751.8126460960374,66.8216891656021L756.7805662438675,78.9833238098305L761.7484863916977,104.85896396508753L766.7164065395278,79.46102330614485L771.684326687358,73.42798813335975L776.6522468351881,86.13511192746131L781.6201669830183,96.8231044207202L786.5880871308484,97.66996676946843L791.5560072786785,76.87968926957842L796.5239274265086,83.09429660981425L801.4918475743386,74.67292661809353L806.459767722169,102.575831205994L811.4276878699991,76.07093064331644L816.3956080178291,91.17688099637661L821.3635281656592,90.92951179265822L826.3314483134893,70.9937417854091L831.2993684613195,86.88262807126404L836.2672886091497,100.51172368629335L841.2352087569798,88.51299567203307L846.2031289048099,85.94264136339768L851.17104905264,80.15933400255324L856.1389692004702,103.4971523763777L861.1068893483003,88.18433581596668L866.0748094961305,82.61354718907461L871.0427296439605,100.79833525095017L876.0106497917908,108.250032603732L880.9785699396209,81.38276035367409L885.9464900874509,81.64733113115096L890.914410235281,90.28748236831063L895.8823303831111,105.60831006354539L900.8502505309414,106.86380128679053L905.8181706787715,85.62695385255336L910.7860908266016,87.61469126464539L915.7540109744317,93.72730913210029L920.7219311222618,101.86414150777335L925.689851270092,91.3785419993751L930.6577714179222,78.65385064058398L935.6256915657523,116.53486764534836L940.5936117135823,81.78502505253692L945.5615318614124,89.96451570450472L950.5294520092427,108.91914535697589L955.4973721570727,87.50631728340102L960.4652923049028,96.98527906882623L965.433212452733,66.25379323761797L970.4011326005632,72.20012922540752L975.3690527483933,85.91820130233657L980.3369728962234,92.83469791697308L985.3048930440535,103.13819660435365L990.2728131918836,82.72318180574808L995.2407333397139,81.8494394563985L1000.208653487544,78.72704882679028L1005.1765736353741,84.48579412959663L1010.1444937832042,89.85699570209937L1015.1124139310342,94.77819109206922L1020.0803340788646,103.94349864960031L1025.0482542266946,79.68212249414694L1030.0161743745248,72.75887538011585L1034.9840945223548,83.73852197974799L1039.9520146701848,85.36901157749406L1044.9199348180152,91.18489213120029L1049.8878549658452,81.1709736015838L1054.8557751136752,89.24814945549872L1059.8236952615055,97.98183170836649L1064.7916154093357,89.28157662719963L1069.7595355571657,87.96490391998367L1074.727455704996,75.85873723463612L1079.695375852826,81.45880513601071L1084.6632960006561,90.53660019536619L1089.6312161484864,102.27994787108435L1094.5991362963164,70.78040973827666L1099.5670564441466,94.50231526138936L1104.5349765919766,80.2636414178973L1109.5028967398068,86.17236167110855L1114.470816887637,100.35963412162022L1119.438737035467,82.07436121634697L1124.406657183297,66.33036667352161L1129.3745773311273,60.99909877816026L1134.3424974789573,85.58323826912459L1139.3104176267875,90.10855346869516L1144.2783377746177,76.49596811122126L1149.2462579224477,75.71315417540353L1154.214178070278,108.33498316539033L1159.1820982181082,73.3983022022872L1164.1500183659382,87.9270848571104L1169.1179385137684,107.54444275436191L1174.0858586615984,82.39110603432533L1179.0537788094286,86.66470080466416L1184.0216989572589,80.2544509789625L1188.9896191050889,78.1090934725728L1193.957539252919,90.4231836724054L1198.925459400749,76.608286661389L1203.893379548579,81.59918299089082L1208.8612996964093,91.12242967897089L1213.8292198442396,82.04422796302532L1218.7971399920696,73.68247382740378L1223.7650601398998,92.35207787591929L1228.7329802877298,97.02919798055001L1233.70090043556,76.36551267713793L1238.6688205833902,110.03513303700942L1243.6367407312202,101.66435112508913L1248.6046608790505,104.13157732249164L1253.5725810268807,85.20094040883248L1258.5405011747107,62.27486183241871L1263.508421322541,81.35909294013408L1268.476341470371,93.07539795261488L1273.444261618201,100.15671248319262L1278.4121817660312,79.10694741320117L1283.3801019138614,89.23716972756779L1288.3480220616914,73.49964102452395L1293.3159422095216,84.37022232670864L1298.2838623573516,95.88909556472737L1303.2517825051818,80.81693837429913L1308.219702653012,66.66044982765317L1313.187622800842,80.01728885565393L1318.1555429486723,82.36776394605738L1323.1234630965023,87.43173646478851L1328.0913832443325,74.0015365879454L1333.0593033921627,92.1093852229863L1338.0272235399927,68.70613580382519L1342.9951436878227,104.54612305037347L1347.963063835653,98.33383365270089L1352.9309839834832,79.08458130074922L1357.8989041313132,65.17172071719335L1362.8668242791434,84.81364067248296L1367.8347444269734,102.62345069268713L1372.8026645748037,63.36722276457118L1377.7705847226339,77.09676255733922L1382.7385048704639,78.84075000936411L1387.706425018294,71.52056539779971L1392.674345166124,72.59108887106731L1397.6422653139543,71.62023692801733L1402.6101854617846,70.62429427336218L1407.5781056096146,45.36669080364061L1412.5460257574446,45.03725830005311L1417.5139459052748,81.13551314693274L1422.481866053105,57.05892174599131L1427.449786200935,61.75808263780192L1432.4177063487653,76.66269731313565L1437.3856264965953,71.59042899996774L1442.3535466444255,67.09719900535094"
                                          style="fill: none;" fill="none"></path>
                                </g>
                                <g>
                                    <path stroke="rgb(51, 187, 238)" stroke-width="2px"
                                          d="M41.400064956328904,267.68660089056976L46.367985104159025,222.8109482073936L51.33590525198917,257.3204364226648L56.30382539981929,233.05960925360793L61.27174554764942,217.3273874190641L66.23966569547954,205.53843320677348L71.20758584330967,202.19262544659995L76.1755059911398,189.61670940127325L81.14342613896993,163.26434572551793L86.11134628680007,155.0943098392685L91.0792664346302,152.48467250403567L96.04718658246033,132.89901348797738L101.01510673029044,130.7140476297183L105.98302687812058,131.3040453433709L110.95094702595071,106.56094379136181L115.91886717378084,123.27587160855518L120.88678732161097,118.97765378168975L125.85470746944111,100.74477857804254L130.82262761727122,111.02578915599418L135.79054776510137,128.1004250599032L140.75846791293148,95.9609924498456L145.72638806076162,88.99829964658107L150.69430820859174,100.13060513011237L155.66222835642188,110.79659750185033L160.63014850425202,125.64594754659828L165.59806865208213,103.36905555051663L170.56598879991228,100.03487816881812L175.53390894774242,71.60429598968796L180.50182909557253,90.27048412284717L185.46974924340265,95.76230003995437L190.4376693912328,120.5947440447942L195.40558953906293,85.10578276676426L200.37350968689307,99.18716184123076L205.34142983472316,101.99634556519385L210.3093499825533,106.29905694737914L215.27727013038344,93.74219276329558L220.24519027821356,96.55743567045022L225.2131104260437,98.27259117024158L230.18103057387384,112.60005848016789L235.14895072170393,93.931532071616L240.11687086953407,105.16777897956024L245.0847910173642,110.54571071862813L250.05271116519435,98.473560857037L255.0206313130245,112.41232546537816L259.98855146085464,87.42616526950508L264.9564716086847,113.44065831742967L269.92439175651486,86.47780143588398L274.892311904345,91.90028240439017L279.86023205217515,92.42625203794177L284.82815220000526,130.99539299153415L289.7960723478354,97.1062187387027L294.76399249566555,94.13892693253393L299.7319126434956,84.744590383495L304.6998327913258,99.24368710724565L309.6677529391559,121.80141614440561L314.63567308698606,122.42776895720726L319.6035932348162,98.51341320286048L324.5715133826463,105.84413022010676L329.5394335304764,113.71348422368425L334.5073536783065,106.07397252479467L339.4752738261367,90.03755122807502L344.4431939739668,90.75497478421511L349.41111412179697,77.40671621026405L354.3790342696271,88.62254895738857L359.3469544174572,110.07100014825056L364.31487456528737,90.42257368752036L369.2827947131174,103.14917633228458L374.25071486094765,111.62255770187079L379.2186350087777,93.8255573642528L384.1865551566078,97.92465579180748L389.154475304438,116.48873245520889L394.1223954522681,88.0903981436685L399.0903156000983,85.14091789614332L404.05823574792834,100.55637457987922L409.02615589575845,92.0770560240785L413.9940760435886,82.4721120270604L418.96199619141873,85.5812456518334L423.9299163392489,82.3906993777353L428.897836487079,75.84580555507296L433.8657566349092,64.56563973540489L438.8336767827393,84.1485131538214L443.80159693056936,117.67385175554841L448.76951707839953,98.14465700701652L453.73743722622964,88.30722743747526L458.7053573740598,106.52721162721838L463.67327752188993,94.39121668099176L468.6411976697201,104.46873630128977L473.6091178175502,94.93255793364659L478.57703796538027,109.05374868827755L483.54495811321044,102.15526696057958L488.51287826104056,84.03196537511735L493.4807984088707,97.77720211226074L498.44871855670084,119.13618885331499L503.4166387045309,74.71290096089399L508.3845588523611,70.4453247080877L513.3524790001912,88.28701660495057L518.3203991480214,94.12119670520838L523.2883192958515,79.79761296571695L528.2562394436817,99.28618272090432L533.2241595915117,112.54955173168554L538.1920797393418,86.16674981016604L543.159999887172,105.233982672418L548.1279200350021,60.95696915543266L553.0958401828323,93.79705073729133L558.0637603306624,105.55076815605543L563.0316804784926,81.17219357135389L567.9996006263226,78.62209076090221L572.9675207741527,91.86957983184254L577.935440921983,93.75207451843346L582.9033610698131,89.56192568036988L587.8712812176432,66.86756002895811L592.8392013654733,89.45859424084193L597.8071215133034,108.97426765775515L602.7750416611335,95.94065962034381L607.7429618089636,86.67275260514685L612.7108819567939,86.02620929264992L617.678802104624,98.09032768658784L622.6467222524541,101.64324564806628L627.6146424002842,108.14247193566763L632.5825625481143,106.80284346394427L637.5504826959444,115.70648783861719L642.5184028437745,84.15209173181375L647.4863229916048,114.16347007338771L652.4542431394349,101.61360038265275L657.422163287265,110.50905062703646L662.3900834350951,76.36778995404217L667.3580035829252,99.23181273481663L672.3259237307553,86.91491660451283L677.2938438785854,82.64176915642304L682.2617640264157,85.45400280481141L687.2296841742458,84.84584787441378L692.1976043220759,104.3247798684173L697.165524469906,92.05448658333154L702.1334446177361,73.30013530145271L707.1013647655662,103.44339237517505L712.0692849133964,94.12863852080602L717.0372050612266,88.27436958500044L722.0051252090567,84.06352192650405L726.9730453568868,99.0651241985612L731.9409655047168,108.23368500881259L736.9088856525472,106.21943358705028L741.8768058003773,98.3245212167891L746.8447259482073,103.38206856139772L751.8126460960374,87.33027564557477L756.7805662438675,84.95324587984203L761.7484863916977,74.2363401030317L766.7164065395278,76.78091238385889L771.684326687358,106.57434312600344L776.6522468351881,89.4872635304394L781.6201669830183,89.11216349179097L786.5880871308484,84.3541187257432L791.5560072786785,87.77458863584718L796.5239274265086,87.82102881842923L801.4918475743386,68.24783382685553L806.459767722169,84.26091303530717L811.4276878699991,107.87572554543408L816.3956080178291,76.48279243770412L821.3635281656592,83.87723254260897L826.3314483134893,102.39592633056242L831.2993684613195,106.70949544370166L836.2672886091497,98.46392309585315L841.2352087569798,81.06800815298686L846.2031289048099,94.18398448270983L851.17104905264,87.42522995934797L856.1389692004702,89.0330281193701L861.1068893483003,83.90260791382718L866.0748094961305,83.900818624831L871.0427296439605,74.11121187027788L876.0106497917908,101.52389193889093L880.9785699396209,94.070445962772L885.9464900874509,69.44543748450917L890.914410235281,91.51737455921307L895.8823303831111,91.11771246252653L900.8502505309414,88.19336359226543L905.8181706787715,111.17446280531101"
                                          style="fill: none;" fill="none"></path>
                                </g>
                                <g>
                                    <path stroke="rgb(0, 119, 187)" stroke-width="2px"
                                          d="M41.400064956328904,216.7761034127829L46.367985104159025,235.38918219528352L51.33590525198917,260.31365258644826L56.30382539981929,220.16400013002504L61.27174554764942,152.8730498803488L66.23966569547954,132.27203035746115L71.20758584330967,106.39590221429603L76.1755059911398,95.78625211310748L81.14342613896993,97.31369493093865L86.11134628680007,112.56469968966434L91.0792664346302,121.59467193403168L96.04718658246033,89.01643653049666L101.01510673029044,108.36656004960656L105.98302687812058,71.41450935911854L110.95094702595071,96.17176256046082L115.91886717378084,97.42373620420216L120.88678732161097,88.4066143080799L125.85470746944111,88.35976746890782L130.82262761727122,76.71182142921191L135.79054776510137,67.38360724171275L140.75846791293148,81.11387901634288L145.72638806076162,104.30688697845574L150.69430820859174,73.53233621436277L155.66222835642188,77.37833158027962L160.63014850425202,115.12964546565229L165.59806865208213,87.81997151129514L170.56598879991228,103.19077730144522L175.53390894774242,88.11642416543077L180.50182909557253,52.32641501379783L185.46974924340265,72.70666067395535L190.4376693912328,84.35895793916467L195.40558953906293,101.41807989416384L200.37350968689307,77.20615318005866L205.34142983472316,78.37220028632561L210.3093499825533,67.76826371022702L215.27727013038344,69.40208789201142L220.24519027821356,96.32560074847112L225.2131104260437,69.85807192641784L230.18103057387384,97.52125245449264L235.14895072170393,83.29429032079355L240.11687086953407,84.81453531698105L245.0847910173642,77.29362501257526L250.05271116519435,82.82822120295418L255.0206313130245,97.56151145690609L259.98855146085464,83.07481775915153L264.9564716086847,97.0165916262589L269.92439175651486,86.2769537460656L274.892311904345,67.18881873508587L279.86023205217515,92.69655667333814L284.82815220000526,78.71159587636896L289.7960723478354,89.99424230123628L294.76399249566555,80.20077230907782L299.7319126434956,83.66930902812396L304.6998327913258,98.64801653416208L309.6677529391559,88.03671947378388L314.63567308698606,92.61160611167975L319.6035932348162,88.45305449066188L324.5715133826463,29.598459528049148L329.5394335304764,82.91951560741711L334.5073536783065,57.15493336689866L339.4752738261367,83.20608650641486L344.4431939739668,85.54403657384518L349.41111412179697,97.1966998299855L354.3790342696271,82.57776140915149L359.3469544174572,84.10032434790224L364.31487456528737,82.72277514915805L369.2827947131174,102.68839375011572L374.25071486094765,84.46741325172707L379.2186350087777,72.00062350233623L384.1865551566078,89.04652911815924L389.154475304438,60.38187540580486L394.1223954522681,77.18118446543053L399.0903156000983,90.67063420744182L404.05823574792834,71.69676969826196L409.02615589575845,103.64094614661417L413.9940760435886,83.94404622035177L418.96199619141873,60.22474329941525L423.9299163392489,86.43054794012193L428.897836487079,66.41055935307656L433.8657566349092,61.585904237581076L438.8336767827393,83.65279877056855L443.80159693056936,69.92484493850162L448.76951707839953,101.76300601383167L453.73743722622964,74.7191634723805L458.7053573740598,70.87690934709201L463.67327752188993,86.89242849508389L468.6411976697201,80.90314957138662L473.6091178175502,83.0139412676233L478.57703796538027,86.42668470251652L483.54495811321044,107.32903675862025L488.51287826104056,70.1870977734153L493.4807984088707,84.83055758662846L498.44871855670084,59.32741486784363L503.4166387045309,75.39588070385804L508.3845588523611,80.46664438764282L513.3524790001912,92.94884642179596L518.3203991480214,73.37870135464749L523.2883192958515,70.31617057509254L528.2562394436817,92.86015461950927L533.2241595915117,97.67179672412362L538.1920797393418,87.4349490518498L543.159999887172,88.88146720826398L548.1279200350021,82.45556110384592L553.0958401828323,71.09219334585669L558.0637603306624,91.35060469163966L563.0316804784926,84.26213300507726L567.9996006263226,70.74446129571754L572.9675207741527,72.9776566255548L577.935440921983,85.45819136768876L582.9033610698131,63.25396890424639L587.8712812176432,80.31211488342944L592.8392013654733,69.48903107096095L597.8071215133034,55.767990400924646L602.7750416611335,85.08764588284868L607.7429618089636,102.57143931482159L612.7108819567939,59.249174139920854L617.678802104624,83.24752481293945L622.6467222524541,102.70059344781674L627.6146424002842,83.67573420224653L632.5825625481143,80.87826218807646L637.5504826959444,65.22361009808179L642.5184028437745,99.99836040703292L647.4863229916048,65.25931454668694L652.4542431394349,80.89550442749396L657.422163287265,86.86579248843657L662.3900834350951,79.94831989798399L667.3580035829252,98.69266742774795L672.3259237307553,82.53469647626679L677.2938438785854,76.47628593226358L682.2617640264157,78.27191877122294L687.2296841742458,86.77205814443346L692.1976043220759,82.83265375978556L697.165524469906,63.086711048764926L702.1334446177361,61.43926387121434L707.1013647655662,59.67575690286776L712.0692849133964,61.26578416990537L717.0372050612266,75.95539950608747L722.0051252090567,87.24634172539152L726.9730453568868,73.68491376694396L731.9409655047168,77.34392843276265L736.9088856525472,71.70319487238453L741.8768058003773,50.259745557580004L746.8447259482073,53.00357956752441L751.8126460960374,70.42645584231002L756.7805662438675,87.52067226102923L761.7484863916977,73.87136581347517L766.7164065395278,72.35474006093887L771.684326687358,88.72506708373646L776.6522468351881,81.60064695461494L781.6201669830183,97.60343775133867L786.5880871308484,74.17940818042678L791.5560072786785,79.55622161387208L796.5239274265086,67.92128858505731L801.4918475743386,81.38243502840209L806.459767722169,82.9970243534778L811.4276878699991,70.58480791846978L816.3956080178291,64.21005921307813L821.3635281656592,46.99901035604182L826.3314483134893,63.810966435617615L831.2993684613195,111.31349869344405L836.2672886091497,50.9929067237544L841.2352087569798,70.25704270690136L846.2031289048099,59.17943253472981L851.17104905264,75.20044154668716L856.1389692004702,58.60202084253882L861.1068893483003,81.45286794979614L866.0748094961305,85.01273973896423L871.0427296439605,89.09357928562633L876.0106497917908,85.62012202184076L880.9785699396209,72.45681086503771L885.9464900874509,56.1319480490061L890.914410235281,87.50334869029376L895.8823303831111,108.79942565686952L900.8502505309414,82.08326699566868L905.8181706787715,67.9848083444208L910.7860908266016,66.69359233974103L915.7540109744317,49.61519486237421L920.7219311222618,85.0584886053432L925.689851270092,54.56074898208715L930.6577714179222,80.82116760283549L935.6256915657523,55.97241666873532L940.5936117135823,70.07193262711735L945.5615318614124,75.5212935962249L950.5294520092427,68.98563087815637L955.4973721570727,77.8498905620844L960.4652923049028,92.03724434391404L965.433212452733,83.63051398943463L970.4011326005632,75.44415084109522L975.3690527483933,80.87639156776225L980.3369728962234,58.74557061882126L985.3048930440535,79.22251921608921L990.2728131918836,73.68247382740378L995.2407333397139,70.72713772498207L1000.208653487544,63.838781746376014L1005.1765736353741,54.33318395430348L1010.1444937832042,66.27087281439941L1015.1124139310342,61.63698030528951L1020.0803340788646,111.15473996069431L1025.0482542266946,57.47851001558962L1030.0161743745248,82.69060861288631L1034.9840945223548,81.85871122665134L1039.9520146701848,89.6619225358595L1044.9199348180152,63.17153961344627L1049.8878549658452,53.289296487683146L1054.8557751136752,70.07648718092577L1059.8236952615055,68.55957676877648L1064.7916154093357,86.44116167712184L1069.7595355571657,53.97581414298054L1074.727455704996,75.72942043900491L1079.695375852826,64.75115647177893L1084.6632960006561,74.53263009453133L1089.6312161484864,69.64770847239265L1094.5991362963164,42.66575906394485L1099.5670564441466,69.43152982913L1104.5349765919766,63.88977648276642L1109.5028967398068,66.81884256947188L1114.470816887637,77.69198580817374L1119.438737035467,64.9933204711449L1124.406657183297,87.19485900109305L1129.3745773311273,78.85368168892728L1134.3424974789573,67.28641631669433L1139.3104176267875,77.66925370479078L1144.2783377746177,98.58303281107447L1149.2462579224477,86.83073869037554L1154.214178070278,80.96008149399154L1159.1820982181082,93.50275336308289L1164.1500183659382,56.6265644594659L1169.1179385137684,75.43109716455513L1174.0858586615984,77.23071523809682L1179.0537788094286,71.13485162215136L1184.0216989572589,83.30990593385087L1188.9896191050889,83.25321800519993L1193.957539252919,63.09187558745839L1198.925459400749,65.64210039488705L1203.893379548579,73.10323218055765L1208.8612996964093,71.74987904892055L1213.8292198442396,52.99898434805698L1218.7971399920696,89.46229481581122L1223.7650601398998,69.29989509093554L1228.7329802877298,79.6061590431284L1233.70090043556,47.95932989340997L1238.6688205833902,66.762642628729L1243.6367407312202,64.03820613812923L1248.6046608790505,66.84698320550234L1253.5725810268807,74.62030525534294L1258.5405011747107,77.12461853375663L1263.508421322541,87.59984829910911L1268.476341470371,66.26310567352976L1273.444261618201,70.86283902907678L1278.4121817660312,65.98869380657402L1283.3801019138614,116.78973966315294L1288.3480220616914,93.1320045499478L1293.3159422095216,68.5574621545083L1298.2838623573516,91.25833431136067L1303.2517825051818,88.00093369386082L1308.219702653012,70.8860591203678L1313.187622800842,53.05750223136312L1318.1555429486723,79.80737272387779L1323.1234630965023,80.21842120508535L1328.0913832443325,78.1844469387064L1333.0593033921627,90.673399472254L1338.0272235399927,85.37433877882347L1342.9951436878227,73.9354955577237L1347.963063835653,73.29379145864817L1352.9309839834832,83.38440542114535L1357.8989041313132,90.32424412404981L1362.8668242791434,92.93733804029796L1367.8347444269734,61.269688073169675L1372.8026645748037,91.53616209367271L1377.7705847226339,94.74801717308861L1382.7385048704639,81.94504442071576L1387.706425018294,52.52478209841695L1392.674345166124,94.70678219485904L1397.6422653139543,68.11981833231249L1402.6101854617846,94.18536711511592L1407.5781056096146,68.99648860911032L1412.5460257574446,68.48556526939007L1417.5139459052748,58.73556686670639L1422.481866053105,68.75656122098951L1427.449786200935,88.26172256505032L1432.4177063487653,82.04402463473036L1437.3856264965953,69.52335288715989L1442.3535466444255,76.77599183911946"
                                          style="fill: none;" fill="none"></path>
                                </g>
                            </g>
                        </g>
                    </g>
                </g>
            </g>
            <g transform="translate(58, 378)" clip-path="url(#clip_1)">
                <clipPath id="clip_1">
                    <rect width="1440" height="22"></rect>
                </clipPath>
                <g>
                    <g>
                        <line x1="41.400064956328904" y1="0" x2="41.400064956328904" y2="5" style="visibility: inherit;"
                              fill="rgb(0, 0, 0)" stroke="rgb(204, 204, 204)" stroke-width="1px"></line>
                        <line x1="240.11687086953407" y1="0" x2="240.11687086953407" y2="5" style="visibility: inherit;"
                              fill="rgb(0, 0, 0)" stroke="rgb(204, 204, 204)" stroke-width="1px"></line>
                        <line x1="438.8336767827393" y1="0" x2="438.8336767827393" y2="5" style="visibility: inherit;"
                              fill="rgb(0, 0, 0)" stroke="rgb(204, 204, 204)" stroke-width="1px"></line>
                        <line x1="637.5504826959444" y1="0" x2="637.5504826959444" y2="5" style="visibility: inherit;"
                              fill="rgb(0, 0, 0)" stroke="rgb(204, 204, 204)" stroke-width="1px"></line>
                        <line x1="836.2672886091497" y1="0" x2="836.2672886091497" y2="5" style="visibility: inherit;"
                              fill="rgb(0, 0, 0)" stroke="rgb(204, 204, 204)" stroke-width="1px"></line>
                        <line x1="1034.9840945223548" y1="0" x2="1034.9840945223548" y2="5" style="visibility: inherit;"
                              fill="rgb(0, 0, 0)" stroke="rgb(204, 204, 204)" stroke-width="1px"></line>
                        <line x1="1233.70090043556" y1="0" x2="1233.70090043556" y2="5" style="visibility: inherit;"
                              fill="rgb(0, 0, 0)" stroke="rgb(204, 204, 204)" stroke-width="1px"></line>
                        <line x1="1432.4177063487653" y1="0" x2="1432.4177063487653" y2="5" style="visibility: inherit;"
                              fill="rgb(0, 0, 0)" stroke="rgb(204, 204, 204)" stroke-width="1px"></line>
                    </g>
                    <g transform="translate(0, 8)">
                        <text x="41.400064956328904" y="0" dx="0em" dy="0.95em"
                              style="text-anchor: middle; visibility: inherit; font-family: &quot;Helvetica Neue&quot;, sans-serif; font-size: 12px; font-weight: 200;"
                              fill="rgb(50, 49, 63)" stroke="none" stroke-width="1px">0
                        </text>
                        <text x="240.11687086953407" y="0" dx="0em" dy="0.95em"
                              style="text-anchor: middle; visibility: inherit; font-family: &quot;Helvetica Neue&quot;, sans-serif; font-size: 12px; font-weight: 200;"
                              fill="rgb(50, 49, 63)" stroke="none" stroke-width="1px">200
                        </text>
                        <text x="438.8336767827393" y="0" dx="0em" dy="0.95em"
                              style="text-anchor: middle; visibility: inherit; font-family: &quot;Helvetica Neue&quot;, sans-serif; font-size: 12px; font-weight: 200;"
                              fill="rgb(50, 49, 63)" stroke="none" stroke-width="1px">400
                        </text>
                        <text x="637.5504826959444" y="0" dx="0em" dy="0.95em"
                              style="text-anchor: middle; visibility: inherit; font-family: &quot;Helvetica Neue&quot;, sans-serif; font-size: 12px; font-weight: 200;"
                              fill="rgb(50, 49, 63)" stroke="none" stroke-width="1px">600
                        </text>
                        <text x="836.2672886091497" y="0" dx="0em" dy="0.95em"
                              style="text-anchor: middle; visibility: inherit; font-family: &quot;Helvetica Neue&quot;, sans-serif; font-size: 12px; font-weight: 200;"
                              fill="rgb(50, 49, 63)" stroke="none" stroke-width="1px">800
                        </text>
                        <text x="1034.9840945223548" y="0" dx="0em" dy="0.95em"
                              style="text-anchor: middle; visibility: inherit; font-family: &quot;Helvetica Neue&quot;, sans-serif; font-size: 12px; font-weight: 200;"
                              fill="rgb(50, 49, 63)" stroke="none" stroke-width="1px">1k
                        </text>
                        <text x="1233.70090043556" y="0" dx="0em" dy="0.95em"
                              style="text-anchor: middle; visibility: inherit; font-family: &quot;Helvetica Neue&quot;, sans-serif; font-size: 12px; font-weight: 200;"
                              fill="rgb(50, 49, 63)" stroke="none" stroke-width="1px">1.2k
                        </text>
                        <text x="1432.4177063487653" y="0" dx="0em" dy="0.95em"
                              style="text-anchor: middle; visibility: hidden; font-family: &quot;Helvetica Neue&quot;, sans-serif; font-size: 12px; font-weight: 200;"
                              fill="rgb(50, 49, 63)" stroke="none" stroke-width="1px">1.4k
                        </text>
                    </g>
                    <line x1="0" y1="0" x2="1440" y2="0" fill="rgb(0, 0, 0)" stroke="rgb(204, 204, 204)"
                          stroke-width="1px"></line>
                </g>
            </g>
        </g>
    </g>
</svg>