<svg viewBox="0 0 1498 400" xmlns="http://www.w3.org/2000/svg">
    <g>
        <g>
            <g>
                <g>
                    <g>
                        <line x1="70" y1="354.15284861499066" x2="65" y2="354.15284861499066"
                              style="visibility: inherit;" fill="rgb(0, 0, 0)" stroke="rgb(204, 204, 204)"
                              stroke-width="1px"></line>
                        <line x1="70" y1="323.07275779124944" x2="65" y2="323.07275779124944"
                              style="visibility: inherit;" fill="rgb(0, 0, 0)" stroke="rgb(204, 204, 204)"
                              stroke-width="1px"></line>
                        <line x1="70" y1="291.9926669675082" x2="65" y2="291.9926669675082" style="visibility: inherit;"
                              fill="rgb(0, 0, 0)" stroke="rgb(204, 204, 204)" stroke-width="1px"></line>
                        <line x1="70" y1="260.912576143767" x2="65" y2="260.912576143767" style="visibility: inherit;"
                              fill="rgb(0, 0, 0)" stroke="rgb(204, 204, 204)" stroke-width="1px"></line>
                        <line x1="70" y1="229.8324853200258" x2="65" y2="229.8324853200258" style="visibility: inherit;"
                              fill="rgb(0, 0, 0)" stroke="rgb(204, 204, 204)" stroke-width="1px"></line>
                        <line x1="70" y1="198.75239449628458" x2="65" y2="198.75239449628458"
                              style="visibility: inherit;" fill="rgb(0, 0, 0)" stroke="rgb(204, 204, 204)"
                              stroke-width="1px"></line>
                        <line x1="70" y1="167.67230367254336" x2="65" y2="167.67230367254336"
                              style="visibility: inherit;" fill="rgb(0, 0, 0)" stroke="rgb(204, 204, 204)"
                              stroke-width="1px"></line>
                        <line x1="70" y1="136.59221284880215" x2="65" y2="136.59221284880215"
                              style="visibility: inherit;" fill="rgb(0, 0, 0)" stroke="rgb(204, 204, 204)"
                              stroke-width="1px"></line>
                        <line x1="70" y1="105.51212202506093" x2="65" y2="105.51212202506093"
                              style="visibility: inherit;" fill="rgb(0, 0, 0)" stroke="rgb(204, 204, 204)"
                              stroke-width="1px"></line>
                        <line x1="70" y1="74.43203120131972" x2="65" y2="74.43203120131972" style="visibility: inherit;"
                              fill="rgb(0, 0, 0)" stroke="rgb(204, 204, 204)" stroke-width="1px"></line>
                        <line x1="70" y1="43.3519403775785" x2="65" y2="43.3519403775785" style="visibility: inherit;"
                              fill="rgb(0, 0, 0)" stroke="rgb(204, 204, 204)" stroke-width="1px"></line>
                        <line x1="70" y1="12.271849553837285" x2="65" y2="12.271849553837285"
                              style="visibility: inherit;" fill="rgb(0, 0, 0)" stroke="rgb(204, 204, 204)"
                              stroke-width="1px"></line>
                    </g>
                    <g transform="translate(60, 0)">
                        <text x="0" y="354.15284861499066" dx="0em" dy="0.3em"
                              style="text-anchor: end; visibility: inherit; font-family: &quot;Helvetica Neue&quot;, sans-serif; font-size: 12px; font-weight: 200;"
                              fill="rgb(50, 49, 63)" stroke="none" stroke-width="1px">0.964
                        </text>
                        <text x="0" y="323.07275779124944" dx="0em" dy="0.3em"
                              style="text-anchor: end; visibility: inherit; font-family: &quot;Helvetica Neue&quot;, sans-serif; font-size: 12px; font-weight: 200;"
                              fill="rgb(50, 49, 63)" stroke="none" stroke-width="1px">0.966
                        </text>
                        <text x="0" y="291.9926669675082" dx="0em" dy="0.3em"
                              style="text-anchor: end; visibility: inherit; font-family: &quot;Helvetica Neue&quot;, sans-serif; font-size: 12px; font-weight: 200;"
                              fill="rgb(50, 49, 63)" stroke="none" stroke-width="1px">0.968
                        </text>
                        <text x="0" y="260.912576143767" dx="0em" dy="0.3em"
                              style="text-anchor: end; visibility: inherit; font-family: &quot;Helvetica Neue&quot;, sans-serif; font-size: 12px; font-weight: 200;"
                              fill="rgb(50, 49, 63)" stroke="none" stroke-width="1px">0.97
                        </text>
                        <text x="0" y="229.8324853200258" dx="0em" dy="0.3em"
                              style="text-anchor: end; visibility: inherit; font-family: &quot;Helvetica Neue&quot;, sans-serif; font-size: 12px; font-weight: 200;"
                              fill="rgb(50, 49, 63)" stroke="none" stroke-width="1px">0.972
                        </text>
                        <text x="0" y="198.75239449628458" dx="0em" dy="0.3em"
                              style="text-anchor: end; visibility: inherit; font-family: &quot;Helvetica Neue&quot;, sans-serif; font-size: 12px; font-weight: 200;"
                              fill="rgb(50, 49, 63)" stroke="none" stroke-width="1px">0.974
                        </text>
                        <text x="0" y="167.67230367254336" dx="0em" dy="0.3em"
                              style="text-anchor: end; visibility: inherit; font-family: &quot;Helvetica Neue&quot;, sans-serif; font-size: 12px; font-weight: 200;"
                              fill="rgb(50, 49, 63)" stroke="none" stroke-width="1px">0.976
                        </text>
                        <text x="0" y="136.59221284880215" dx="0em" dy="0.3em"
                              style="text-anchor: end; visibility: inherit; font-family: &quot;Helvetica Neue&quot;, sans-serif; font-size: 12px; font-weight: 200;"
                              fill="rgb(50, 49, 63)" stroke="none" stroke-width="1px">0.978
                        </text>
                        <text x="0" y="105.51212202506093" dx="0em" dy="0.3em"
                              style="text-anchor: end; visibility: inherit; font-family: &quot;Helvetica Neue&quot;, sans-serif; font-size: 12px; font-weight: 200;"
                              fill="rgb(50, 49, 63)" stroke="none" stroke-width="1px">0.98
                        </text>
                        <text x="0" y="74.43203120131972" dx="0em" dy="0.3em"
                              style="text-anchor: end; visibility: inherit; font-family: &quot;Helvetica Neue&quot;, sans-serif; font-size: 12px; font-weight: 200;"
                              fill="rgb(50, 49, 63)" stroke="none" stroke-width="1px">0.982
                        </text>
                        <text x="0" y="43.3519403775785" dx="0em" dy="0.3em"
                              style="text-anchor: end; visibility: inherit; font-family: &quot;Helvetica Neue&quot;, sans-serif; font-size: 12px; font-weight: 200;"
                              fill="rgb(50, 49, 63)" stroke="none" stroke-width="1px">0.984
                        </text>
                        <text x="0" y="12.271849553837285" dx="0em" dy="0.3em"
                              style="text-anchor: end; visibility: inherit; font-family: &quot;Helvetica Neue&quot;, sans-serif; font-size: 12px; font-weight: 200;"
                              fill="rgb(50, 49, 63)" stroke="none" stroke-width="1px">0.986
                        </text>
                    </g>
                    <line x1="70" y1="0" x2="70" y2="378" fill="rgb(0, 0, 0)" stroke="rgb(204, 204, 204)"
                          stroke-width="1px"></line>
                </g>
            </g>
            <g transform="translate(70, 0)" clip-path="url(#clip_0)">
                <clipPath id="clip_0">
                    <rect width="1428" height="378"></rect>
                </clipPath>
                <g>
                    <g>
                        <g>
                            <line x1="32.613753762034136" y1="0" x2="32.613753762034136" y2="378" fill="rgb(0, 0, 0)"
                                  stroke="rgb(60, 60, 60)" stroke-width="1px" opacity="0.25"></line>
                            <line x1="179.7211023563562" y1="0" x2="179.7211023563562" y2="378" fill="rgb(0, 0, 0)"
                                  stroke="rgb(60, 60, 60)" stroke-width="1px" opacity="0.25"></line>
                            <line x1="326.8284509506783" y1="0" x2="326.8284509506783" y2="378" fill="rgb(0, 0, 0)"
                                  stroke="rgb(60, 60, 60)" stroke-width="1px" opacity="0.25"></line>
                            <line x1="473.9357995450003" y1="0" x2="473.9357995450003" y2="378" fill="rgb(0, 0, 0)"
                                  stroke="rgb(60, 60, 60)" stroke-width="1px" opacity="0.25"></line>
                            <line x1="621.0431481393224" y1="0" x2="621.0431481393224" y2="378" fill="rgb(0, 0, 0)"
                                  stroke="rgb(60, 60, 60)" stroke-width="1px" opacity="0.25"></line>
                            <line x1="768.1504967336444" y1="0" x2="768.1504967336444" y2="378" fill="rgb(0, 0, 0)"
                                  stroke="rgb(60, 60, 60)" stroke-width="1px" opacity="0.25"></line>
                            <line x1="915.2578453279666" y1="0" x2="915.2578453279666" y2="378" fill="rgb(0, 0, 0)"
                                  stroke="rgb(60, 60, 60)" stroke-width="1px" opacity="0.25"></line>
                            <line x1="1062.3651939222887" y1="0" x2="1062.3651939222887" y2="378" fill="rgb(0, 0, 0)"
                                  stroke="rgb(60, 60, 60)" stroke-width="1px" opacity="0.25"></line>
                            <line x1="1209.4725425166107" y1="0" x2="1209.4725425166107" y2="378" fill="rgb(0, 0, 0)"
                                  stroke="rgb(60, 60, 60)" stroke-width="1px" opacity="0.25"></line>
                            <line x1="1356.5798911109327" y1="0" x2="1356.5798911109327" y2="378" fill="rgb(0, 0, 0)"
                                  stroke="rgb(60, 60, 60)" stroke-width="1px" opacity="0.25"></line>
                        </g>
                        <g>
                            <line x1="0" y1="354.15284861499066" x2="1428" y2="354.15284861499066" fill="rgb(0, 0, 0)"
                                  stroke="rgb(60, 60, 60)" stroke-width="1px" opacity="0.25"></line>
                            <line x1="0" y1="323.07275779124944" x2="1428" y2="323.07275779124944" fill="rgb(0, 0, 0)"
                                  stroke="rgb(60, 60, 60)" stroke-width="1px" opacity="0.25"></line>
                            <line x1="0" y1="291.9926669675082" x2="1428" y2="291.9926669675082" fill="rgb(0, 0, 0)"
                                  stroke="rgb(60, 60, 60)" stroke-width="1px" opacity="0.25"></line>
                            <line x1="0" y1="260.912576143767" x2="1428" y2="260.912576143767" fill="rgb(0, 0, 0)"
                                  stroke="rgb(60, 60, 60)" stroke-width="1px" opacity="0.25"></line>
                            <line x1="0" y1="229.8324853200258" x2="1428" y2="229.8324853200258" fill="rgb(0, 0, 0)"
                                  stroke="rgb(60, 60, 60)" stroke-width="1px" opacity="0.25"></line>
                            <line x1="0" y1="198.75239449628458" x2="1428" y2="198.75239449628458" fill="rgb(0, 0, 0)"
                                  stroke="rgb(60, 60, 60)" stroke-width="1px" opacity="0.25"></line>
                            <line x1="0" y1="167.67230367254336" x2="1428" y2="167.67230367254336" fill="rgb(0, 0, 0)"
                                  stroke="rgb(60, 60, 60)" stroke-width="1px" opacity="0.25"></line>
                            <line x1="0" y1="136.59221284880215" x2="1428" y2="136.59221284880215" fill="rgb(0, 0, 0)"
                                  stroke="rgb(60, 60, 60)" stroke-width="1px" opacity="0.25"></line>
                            <line x1="0" y1="105.51212202506093" x2="1428" y2="105.51212202506093" fill="rgb(0, 0, 0)"
                                  stroke="rgb(60, 60, 60)" stroke-width="1px" opacity="0.25"></line>
                            <line x1="0" y1="74.43203120131972" x2="1428" y2="74.43203120131972" fill="rgb(0, 0, 0)"
                                  stroke="rgb(60, 60, 60)" stroke-width="1px" opacity="0.25"></line>
                            <line x1="0" y1="43.3519403775785" x2="1428" y2="43.3519403775785" fill="rgb(0, 0, 0)"
                                  stroke="rgb(60, 60, 60)" stroke-width="1px" opacity="0.25"></line>
                            <line x1="0" y1="12.271849553837285" x2="1428" y2="12.271849553837285" fill="rgb(0, 0, 0)"
                                  stroke="rgb(60, 60, 60)" stroke-width="1px" opacity="0.25"></line>
                        </g>
                    </g>
                </g>
                <g>
                    <g>
                        <line x1="0" y1="15334.756625658241" x2="1428" y2="15334.756625658241" fill="rgb(0, 0, 0)"
                              stroke="rgb(153, 153, 153)" stroke-width="1.5px"></line>
                    </g>
                </g>
                <g>
                    <g>
                        <line x1="32.613753762034136" y1="0" x2="32.613753762034136" y2="378" fill="rgb(0, 0, 0)"
                              stroke="rgb(153, 153, 153)" stroke-width="1.5px"></line>
                    </g>
                </g>
                <g>
                    <g>
                        <g>
                            <g>
                                <g>
                                    <path style="fill: none;" stroke="rgb(0,200,50)" stroke-width="2px"
                                          d="M885.9471104685344,58.393809787796386L915.2578453279666,69.12189274562053L929.9685801873987,67.45462674979814L944.6793150468309,76.02715274498485L959.3900499062631,72.78154160645062L974.1007847656954,65.64656940321743L988.8115196251275,62.70662369725062L1003.5222544845597,63.410580451042335L1018.232989343992,63.08361106408381L1032.9437242034242,59.367460411173056L1047.6544590628564,66.82754948359161L1062.3651939222887,67.32680302345176L1077.075928781721,62.58157874756398L1091.786663641153,59.134969430644446L1106.4973985005852,66.8914613467648L1121.2081333600174,66.43111068014053L1135.9188682194497,54.63057246526438L1150.629603078882,59.75834166130471L1165.340337938314,57.31209194187869L1180.0510727977462,63.329995927910886L1194.7618076571785,60.10290996710802L1209.4725425166107,64.17103899691466L1224.1832773760427,55.981984180767085L1238.8940122354752,58.126273503171944L1253.6047470949072,65.12786442673934L1268.3154819543395,57.5399516279744L1283.0262168137717,64.43409652069994L1297.736951673204,60.11587759151996L1312.447686532636,70.04259407886912L1327.1584213920685,56.03755971396117L1341.8691562515005,61.63586842437803L1356.5798911109327,57.22965490097414L1371.290625970365,61.99155183682018L1386.0013608297972,67.25548108918599L1400.7120956892293,54.246175027338666L1415.4228305486615,58.10311703100774L1430.133565408094,54.101678641034084"
                                          fill="none"></path>
                                </g>
                                <g>
                                    <path style="fill: none;" stroke="rgb(0, 200, 50)" stroke-width="2px"
                                          d="M32.613753762034136,2906.602061903596L47.32448862146634,296.39710948392053L62.03522348089855,225.80784599746096L76.74595834033076,198.92132929705204L91.45669319976297,161.40136057884263L106.16742805919517,125.45140067336598L120.87816291862737,119.59373947471005L135.5888977780596,127.45489864501255L150.29963263749178,112.95987332911011L165.010367496924,99.54486587494603L179.7211023563562,103.59817476256751L194.43183721578842,94.31706071915625L209.1425720752206,100.5952434523141L223.8533069346528,95.42486634749162L238.56404179408503,85.2489862196557L253.27477665351725,93.07772632892835L267.9855115129494,83.94851874291425L282.69624637238167,87.96755605173274L297.40698123181386,86.79028100690482L312.11771609124605,80.34722419193793L326.8284509506783,84.20879749003984L341.5391858101105,81.97743983229759L356.2499206695427,77.83798886822524L370.9606555289749,83.6354432392543L385.6713903884071,82.2627275693605L400.3821252478393,73.82543537161274L415.0928601072715,75.82985960214586L429.8035949667037,74.81838489801362L444.5143298261359,70.07871817544526L459.22506468556816,79.49043472186253L473.9357995450003,75.13887047276614L488.64653440443254,68.23361047340182L503.3572692638648,76.07068691265357L518.068004123297,68.80048091198142L532.7787389827291,70.76322349261898L547.4894738421614,64.69900656225838L562.2002087015935,66.69416820392581L576.9109435610258,70.95125404659228L591.621678420458,74.90730575112417L606.3324132798901,66.38201895915245L621.0431481393224,66.90442897117674L635.7538829987546,58.03735265006145L650.4646178581868,68.29381730102875L665.175352717619,68.41608347405571L679.8860875770513,63.765337604597846L694.5968224364834,62.35927661478763L709.3075572959157,68.7717668864978L724.0182921553478,61.20886307767017L738.7290270147802,59.53233449298216L753.4397618742123,68.60781906357528L768.1504967336444,60.73832356329365L782.8612315930767,66.13378157755216L797.571966452509,66.36905133474045L812.2827013119411,72.98346604372244L826.9934361713733,58.49955583445882L841.7041710308056,68.91626327280238L856.4149058902377,56.79431322428718L871.12564074967,62.65938449403569L885.8363756091021,58.696848977297805"
                                          fill="none"></path>
                                </g>
                                <g>
                                    <path style="fill: none;" stroke="rgb(238, 51, 119)" stroke-width="2px"
                                          d="M32.613753762034136,2703.7393243796823L47.32448862146634,376.49534669988714L62.03522348089855,272.0985601125826L76.74595834033076,269.467058615843L91.45669319976297,259.7005849158701L106.16742805919517,262.13479326977074L120.87816291862737,265.9815464256876L135.5888977780596,270.73788580821423L150.29963263749178,255.19989298603628L165.010367496924,262.0190109089498L179.7211023563562,263.3259621978972L194.43183721578842,263.4973200919123L209.1425720752206,234.21457165195199L223.8533069346528,229.71110094545844L238.56404179408503,216.85555385878135L253.27477665351725,218.48391698136788L267.9855115129494,226.20521105979861L282.69624637238167,206.65929603544097L297.40698123181386,212.0630903796786L312.11771609124605,215.604178103028L326.8284509506783,201.62044769251114L341.5391858101105,198.24330779208427L356.2499206695427,183.79737419716997L370.9606555289749,169.98222290400847L385.6713903884071,160.66127972847482L400.3821252478393,162.92876148279328L415.0928601072715,165.82424676220478L429.8035949667037,160.07403159439073L444.5143298261359,158.98660366155988L459.22506468556816,146.32186590551584L473.9357995450003,146.67106550575195L488.64653440443254,133.98872883086312L503.3572692638648,146.28111051450682L518.068004123297,144.68609271183678L532.7787389827291,149.76013889245618L547.4894738421614,147.79554379404547L562.2002087015935,127.92636441827565L576.9109435610258,144.31188412166333L591.621678420458,137.8836474488815L606.3324132798901,136.9685036689523L621.0431481393224,135.70693906544673L635.7538829987546,124.93917950909392L650.4646178581868,140.11315258885062L665.175352717619,132.4844843990767L679.8860875770513,126.51845091069228L694.5968224364834,138.6209495225896L709.3075572959157,131.34796474525777L724.0182921553478,132.01579740247328L738.7290270147802,134.90387261079226L753.4397618742123,132.39556354596616L768.1504967336444,130.95708349512608L782.8612315930767,140.51237016896144L797.571966452509,132.47429555132447L812.2827013119411,127.64848675230525L826.9934361713733,146.47191984513984L841.7041710308056,121.93254316329421L856.4149058902377,141.19687548613518L871.12564074967,131.69531182772076L885.8363756091021,133.4996641387552L900.5471104685344,129.6260494751279L915.2578453279666,136.29881849396364L929.9685801873987,137.42514930003034L944.6793150468309,130.30221846232254L959.3900499062631,136.04965485347685L974.1007847656954,133.23197532053706L988.8115196251275,126.13127469610686L1003.5222544845597,134.45093201526052L1018.232989343992,139.79729830853094L1032.9437242034242,134.64452012255325L1047.6544590628564,137.60206474736484L1062.3651939222887,138.47274810073873L1077.075928781721,136.82122850598802L1091.786663641153,132.9411300301547L1106.4973985005852,128.2607438763267L1121.2081333600174,126.19889159482634L1135.9188682194497,127.62810905680078L1150.629603078882,117.06227393771974L1165.340337938314,127.59939503131716L1180.0510727977462,132.13713731661372L1194.7618076571785,134.78994276774444L1209.4725425166107,130.867236383129L1224.1832773760427,131.63325248232073L1238.8940122354752,131.38501510072052L1253.6047470949072,124.85118491486995L1268.3154819543395,118.00520548424595L1283.0262168137717,114.70679758917737L1297.736951673204,124.84655362043708L1312.447686532636,128.41728162815667L1327.1584213920685,119.80400024196098L1341.8691562515005,109.22519749846805L1356.5798911109327,122.05851437186743L1371.290625970365,120.65060086428412L1386.0013608297972,114.1621573638754L1400.7120956892293,109.85412728244768L1415.4228305486615,113.47765204670162L1430.133565408094,107.6977965945174"
                                          fill="none"></path>
                                </g>
                                <g>
                                    <path style="fill: none;" stroke="rgb(51, 187, 238)" stroke-width="2px"
                                          d="M32.613753762034136,3566.71435129957L47.32448862146634,348.93451353005673L62.03522348089855,259.4523475342699L76.74595834033076,243.36230441569742L91.45669319976297,208.18206564495875L106.16742805919517,212.53733492960143L120.87816291862737,211.26558147834356L135.5888977780596,181.78368737777117L150.29963263749178,174.29395802098244L165.010367496924,156.57555177982343L179.7211023563562,163.9708027301822L194.43183721578842,149.7230885369935L209.1425720752206,150.39184745309558L223.8533069346528,126.46658041304448L238.56404179408503,122.49570856632755L253.27477665351725,107.89972103178923L267.9855115129494,123.61185052464197L282.69624637238167,118.72676115688239L297.40698123181386,112.99414490791315L312.11771609124605,103.46294096512855L326.8284509506783,112.64124027213074L341.5391858101105,102.54131337299344L356.2499206695427,117.03541243000927L370.9606555289749,118.0811587129445L385.6713903884071,103.20173595911638L400.3821252478393,98.72049546590046L415.0928601072715,109.00382162457828L429.8035949667037,91.75965993334205L444.5143298261359,98.90852601987382L459.22506468556816,106.70947836254936L473.9357995450003,110.86560198657992L488.64653440443254,101.1213584998847L503.3572692638648,105.97773384216066L518.068004123297,99.38462308756971L532.7787389827291,105.76191552159031L547.4894738421614,101.9846317821661L562.2002087015935,96.93652085037053L576.9109435610258,100.90739269708752L591.621678420458,106.65205031158217L606.3324132798901,100.18027947113166L621.0431481393224,106.65019779380901L635.7538829987546,100.37294131953774L650.4646178581868,108.99548529459918L665.175352717619,97.26163771955595L679.8860875770513,85.19804198089446L694.5968224364834,93.7372226561647L709.3075572959157,98.46855304875402L724.0182921553478,92.555316316904L738.7290270147802,98.3675908301181L753.4397618742123,101.07875059110256L768.1504967336444,96.92447948484516L782.8612315930767,95.28685377339298L797.571966452509,95.67773502352463L812.2827013119411,96.66605325549267L826.9934361713733,99.4485349507429L841.7041710308056,97.80813046263103L856.4149058902377,84.60523629349098L871.12564074967,98.37314838343747L885.8363756091021,86.21507423834612L900.5471104685344,99.46891264624742L915.2578453279666,98.60563936396608L929.9685801873987,93.54178203109888L944.6793150468309,88.3565847840913L959.3900499062631,90.2285539938452L974.1007847656954,96.99858019577061L988.8115196251275,90.78153054912627L1003.5222544845597,90.01458819104795L1018.232989343992,78.37429276354811L1032.9437242034242,92.16628758454539L1047.6544590628564,91.94305919288257L1062.3651939222887,88.06018194038955L1077.075928781721,98.30831026137776L1091.786663641153,86.42626126448357L1106.4973985005852,95.30074765669144L1121.2081333600174,91.55588297829712L1135.9188682194497,94.0104690277023L1150.629603078882,82.46002071219948L1165.340337938314,89.69873391072832L1180.0510727977462,87.3414050444128L1194.7618076571785,96.6947672809763L1209.4725425166107,83.51410332511387L1224.1832773760427,81.4985639879419L1238.8940122354752,82.06913946206782L1253.6047470949072,92.08662932030057L1268.3154819543395,88.86046961838429L1283.0262168137717,86.51055082316128L1297.736951673204,84.87663014725536L1312.447686532636,83.02318611523287L1327.1584213920685,83.54096483282433L1341.8691562515005,83.58172022383332L1356.5798911109327,87.31824857224859L1371.290625970365,81.70326720187347L1386.0013608297972,89.63111701200887L1400.7120956892293,86.44663895998815L1415.4228305486615,86.33826667025966L1430.133565408094,98.00727612324312"
                                          fill="none"></path>
                                </g>
                                <g>
                                    <path style="fill: none;" stroke="rgb(0, 119, 187)" stroke-width="2px"
                                          d="M32.613753762034136,2949.68328897676L47.32448862146634,264.17719411465316L62.03522348089855,261.422500186L76.74595834033076,213.921165706134L91.45669319976297,132.99207426891593L106.16742805919517,147.10548092355236L120.87816291862737,139.42123720058433L135.5888977780596,134.62414242704875L150.29963263749178,120.43756132037345L165.010367496924,94.47452472987288L179.7211023563562,91.61331102926437L194.43183721578842,97.38575641035601L209.1425720752206,81.40779061705825L223.8533069346528,100.81939810286354L238.56404179408503,89.64408463642081L253.27477665351725,78.55398698754232L267.9855115129494,92.04124263485875L282.69624637238167,71.97662263402304L297.40698123181386,78.34002118474507L312.11771609124605,78.80037185136939L326.8284509506783,93.83818487480067L341.5391858101105,75.58532725609189L356.2499206695427,69.71932972745685L370.9606555289749,63.033593084209144L385.6713903884071,83.59931914267816L400.3821252478393,83.33533536000624L415.0928601072715,73.30024658292871L429.8035949667037,75.66869055588302L444.5143298261359,65.37332303167989L459.22506468556816,74.65999462841046L473.9357995450003,77.49342056242199L488.64653440443254,77.82780002047303L503.3572692638648,78.27425680379878L518.068004123297,69.72951857520911L532.7787389827291,82.7703174391998L547.4894738421614,47.22605892603991L562.2002087015935,77.47304286691747L576.9109435610258,49.765860793009324L591.621678420458,65.07043637577215L606.3324132798901,76.18554301458795L621.0431481393224,62.12493311648598L635.7538829987546,63.755148756845585L650.4646178581868,68.52723454044383L665.175352717619,61.59418677448252L679.8860875770513,64.52394363269701L694.5968224364834,72.7037358599789L709.3075572959157,76.92006631163639L724.0182921553478,78.33538989031223L738.7290270147802,76.19665812122679L753.4397618742123,71.82286365885273L768.1504967336444,75.95027325739972L782.8612315930767,51.38496132673015L797.571966452509,64.20160554017139L812.2827013119411,61.49878210916597L826.9934361713733,76.23741351223578L841.7041710308056,59.11551799402656L856.4149058902377,67.49538214080712L871.12564074967,85.53520021560519L885.8363756091021,77.21832167311123L900.5471104685344,70.91142491446988L915.2578453279666,63.56711820287228L929.9685801873987,72.96771964265082L944.6793150468309,61.48303570809429L959.3900499062631,63.69401567033208L974.1007847656954,74.33117272367889L988.8115196251275,55.463279204288995L1003.5222544845597,55.56424142292491L1018.232989343992,51.7804738712947L1032.9437242034242,54.64909764299574L1047.6544590628564,61.94153385694551L1062.3651939222887,68.84123630299041L1077.075928781721,60.24092254120666L1091.786663641153,67.0016861542664L1106.4973985005852,67.08041815962468L1121.2081333600174,64.1525138191833L1135.9188682194497,66.83032826025129L1150.629603078882,63.988565996260775L1165.340337938314,61.57010404343174L1180.0510727977462,46.528585984454196L1194.7618076571785,56.986975072693326L1209.4725425166107,73.96530046348448L1224.1832773760427,70.52239618211127L1238.8940122354752,66.34496860368967L1253.6047470949072,60.27241534334996L1268.3154819543395,47.58359485625516L1283.0262168137717,54.15540165645501L1297.736951673204,70.69190155835321L1312.447686532636,61.97673169463508L1327.1584213920685,64.76940223763751L1341.8691562515005,59.348008974555114L1356.5798911109327,67.1600764238695L1371.290625970365,50.66525817186681L1386.0013608297972,48.09303724386751L1400.7120956892293,74.99159530980182L1415.4228305486615,51.133945168470234L1430.133565408094,64.91389862394215"
                                          fill="none"></path>
                                </g>
                            </g>
                        </g>
                    </g>
                </g>
            </g>
            <g transform="translate(70, 378)" clip-path="url(#clip_1)">
                <clipPath id="clip_1">
                    <rect width="1428" height="22"></rect>
                </clipPath>
                <g>
                    <g>
                        <line x1="32.613753762034136" y1="0" x2="32.613753762034136" y2="5" style="visibility: inherit;"
                              fill="rgb(0, 0, 0)" stroke="rgb(204, 204, 204)" stroke-width="1px"></line>
                        <line x1="179.7211023563562" y1="0" x2="179.7211023563562" y2="5" style="visibility: inherit;"
                              fill="rgb(0, 0, 0)" stroke="rgb(204, 204, 204)" stroke-width="1px"></line>
                        <line x1="326.8284509506783" y1="0" x2="326.8284509506783" y2="5" style="visibility: inherit;"
                              fill="rgb(0, 0, 0)" stroke="rgb(204, 204, 204)" stroke-width="1px"></line>
                        <line x1="473.9357995450003" y1="0" x2="473.9357995450003" y2="5" style="visibility: inherit;"
                              fill="rgb(0, 0, 0)" stroke="rgb(204, 204, 204)" stroke-width="1px"></line>
                        <line x1="621.0431481393224" y1="0" x2="621.0431481393224" y2="5" style="visibility: inherit;"
                              fill="rgb(0, 0, 0)" stroke="rgb(204, 204, 204)" stroke-width="1px"></line>
                        <line x1="768.1504967336444" y1="0" x2="768.1504967336444" y2="5" style="visibility: inherit;"
                              fill="rgb(0, 0, 0)" stroke="rgb(204, 204, 204)" stroke-width="1px"></line>
                        <line x1="915.2578453279666" y1="0" x2="915.2578453279666" y2="5" style="visibility: inherit;"
                              fill="rgb(0, 0, 0)" stroke="rgb(204, 204, 204)" stroke-width="1px"></line>
                        <line x1="1062.3651939222887" y1="0" x2="1062.3651939222887" y2="5" style="visibility: inherit;"
                              fill="rgb(0, 0, 0)" stroke="rgb(204, 204, 204)" stroke-width="1px"></line>
                        <line x1="1209.4725425166107" y1="0" x2="1209.4725425166107" y2="5" style="visibility: inherit;"
                              fill="rgb(0, 0, 0)" stroke="rgb(204, 204, 204)" stroke-width="1px"></line>
                        <line x1="1356.5798911109327" y1="0" x2="1356.5798911109327" y2="5" style="visibility: inherit;"
                              fill="rgb(0, 0, 0)" stroke="rgb(204, 204, 204)" stroke-width="1px"></line>
                    </g>
                    <g transform="translate(0, 8)">
                        <text x="32.613753762034136" y="0" dx="0em" dy="0.95em"
                              style="text-anchor: middle; visibility: inherit; font-family: &quot;Helvetica Neue&quot;, sans-serif; font-size: 12px; font-weight: 200;"
                              fill="rgb(50, 49, 63)" stroke="none" stroke-width="1px">0
                        </text>
                        <text x="179.7211023563562" y="0" dx="0em" dy="0.95em"
                              style="text-anchor: middle; visibility: inherit; font-family: &quot;Helvetica Neue&quot;, sans-serif; font-size: 12px; font-weight: 200;"
                              fill="rgb(50, 49, 63)" stroke="none" stroke-width="1px">50
                        </text>
                        <text x="326.8284509506783" y="0" dx="0em" dy="0.95em"
                              style="text-anchor: middle; visibility: inherit; font-family: &quot;Helvetica Neue&quot;, sans-serif; font-size: 12px; font-weight: 200;"
                              fill="rgb(50, 49, 63)" stroke="none" stroke-width="1px">100
                        </text>
                        <text x="473.9357995450003" y="0" dx="0em" dy="0.95em"
                              style="text-anchor: middle; visibility: inherit; font-family: &quot;Helvetica Neue&quot;, sans-serif; font-size: 12px; font-weight: 200;"
                              fill="rgb(50, 49, 63)" stroke="none" stroke-width="1px">150
                        </text>
                        <text x="621.0431481393224" y="0" dx="0em" dy="0.95em"
                              style="text-anchor: middle; visibility: inherit; font-family: &quot;Helvetica Neue&quot;, sans-serif; font-size: 12px; font-weight: 200;"
                              fill="rgb(50, 49, 63)" stroke="none" stroke-width="1px">200
                        </text>
                        <text x="768.1504967336444" y="0" dx="0em" dy="0.95em"
                              style="text-anchor: middle; visibility: inherit; font-family: &quot;Helvetica Neue&quot;, sans-serif; font-size: 12px; font-weight: 200;"
                              fill="rgb(50, 49, 63)" stroke="none" stroke-width="1px">250
                        </text>
                        <text x="915.2578453279666" y="0" dx="0em" dy="0.95em"
                              style="text-anchor: middle; visibility: inherit; font-family: &quot;Helvetica Neue&quot;, sans-serif; font-size: 12px; font-weight: 200;"
                              fill="rgb(50, 49, 63)" stroke="none" stroke-width="1px">300
                        </text>
                        <text x="1062.3651939222887" y="0" dx="0em" dy="0.95em"
                              style="text-anchor: middle; visibility: inherit; font-family: &quot;Helvetica Neue&quot;, sans-serif; font-size: 12px; font-weight: 200;"
                              fill="rgb(50, 49, 63)" stroke="none" stroke-width="1px">350
                        </text>
                        <text x="1209.4725425166107" y="0" dx="0em" dy="0.95em"
                              style="text-anchor: middle; visibility: inherit; font-family: &quot;Helvetica Neue&quot;, sans-serif; font-size: 12px; font-weight: 200;"
                              fill="rgb(50, 49, 63)" stroke="none" stroke-width="1px">400
                        </text>
                        <text x="1356.5798911109327" y="0" dx="0em" dy="0.95em"
                              style="text-anchor: middle; visibility: inherit; font-family: &quot;Helvetica Neue&quot;, sans-serif; font-size: 12px; font-weight: 200;"
                              fill="rgb(50, 49, 63)" stroke="none" stroke-width="1px">450
                        </text>
                    </g>
                    <line x1="0" y1="0" x2="1428" y2="0" fill="rgb(0, 0, 0)" stroke="rgb(204, 204, 204)"
                          stroke-width="1px"></line>
                </g>
            </g>
        </g>
    </g>
</svg>