<svg viewBox="0 0 1498 400" xmlns="http://www.w3.org/2000/svg">
    <g>
        <g>
            <g>
                <g>
                    <g>
                        <line x1="70" y1="378" x2="65" y2="378" style="visibility: inherit;" fill="rgb(0, 0, 0)"
                              stroke="rgb(204, 204, 204)" stroke-width="1px"></line>
                        <line x1="70" y1="351" x2="65" y2="351" style="visibility: inherit;" fill="rgb(0, 0, 0)"
                              stroke="rgb(204, 204, 204)" stroke-width="1px"></line>
                        <line x1="70" y1="324" x2="65" y2="324" style="visibility: inherit;" fill="rgb(0, 0, 0)"
                              stroke="rgb(204, 204, 204)" stroke-width="1px"></line>
                        <line x1="70" y1="297" x2="65" y2="297" style="visibility: inherit;" fill="rgb(0, 0, 0)"
                              stroke="rgb(204, 204, 204)" stroke-width="1px"></line>
                        <line x1="70" y1="270" x2="65" y2="270" style="visibility: inherit;" fill="rgb(0, 0, 0)"
                              stroke="rgb(204, 204, 204)" stroke-width="1px"></line>
                        <line x1="70" y1="242.99999999999997" x2="65" y2="242.99999999999997"
                              style="visibility: inherit;" fill="rgb(0, 0, 0)" stroke="rgb(204, 204, 204)"
                              stroke-width="1px"></line>
                        <line x1="70" y1="216" x2="65" y2="216" style="visibility: inherit;" fill="rgb(0, 0, 0)"
                              stroke="rgb(204, 204, 204)" stroke-width="1px"></line>
                        <line x1="70" y1="188.99999999999997" x2="65" y2="188.99999999999997"
                              style="visibility: inherit;" fill="rgb(0, 0, 0)" stroke="rgb(204, 204, 204)"
                              stroke-width="1px"></line>
                        <line x1="70" y1="161.99999999999997" x2="65" y2="161.99999999999997"
                              style="visibility: inherit;" fill="rgb(0, 0, 0)" stroke="rgb(204, 204, 204)"
                              stroke-width="1px"></line>
                        <line x1="70" y1="134.99999999999994" x2="65" y2="134.99999999999994"
                              style="visibility: inherit;" fill="rgb(0, 0, 0)" stroke="rgb(204, 204, 204)"
                              stroke-width="1px"></line>
                        <line x1="70" y1="107.99999999999994" x2="65" y2="107.99999999999994"
                              style="visibility: inherit;" fill="rgb(0, 0, 0)" stroke="rgb(204, 204, 204)"
                              stroke-width="1px"></line>
                        <line x1="70" y1="80.99999999999994" x2="65" y2="80.99999999999994" style="visibility: inherit;"
                              fill="rgb(0, 0, 0)" stroke="rgb(204, 204, 204)" stroke-width="1px"></line>
                        <line x1="70" y1="53.99999999999994" x2="65" y2="53.99999999999994" style="visibility: inherit;"
                              fill="rgb(0, 0, 0)" stroke="rgb(204, 204, 204)" stroke-width="1px"></line>
                        <line x1="70" y1="26.999999999999943" x2="65" y2="26.999999999999943"
                              style="visibility: inherit;" fill="rgb(0, 0, 0)" stroke="rgb(204, 204, 204)"
                              stroke-width="1px"></line>
                        <line x1="70" y1="0" x2="65" y2="0" style="visibility: inherit;" fill="rgb(0, 0, 0)"
                              stroke="rgb(204, 204, 204)" stroke-width="1px"></line>
                    </g>
                    <g transform="translate(60, 0)">
                        <text x="0" y="378" dx="0em" dy="0.3em"
                              style="text-anchor: end; visibility: hidden; font-family: &quot;Helvetica Neue&quot;, sans-serif; font-size: 12px; font-weight: 200;"
                              fill="rgb(50, 49, 63)" stroke="none" stroke-width="1px">-0.02
                        </text>
                        <text x="0" y="351" dx="0em" dy="0.3em"
                              style="text-anchor: end; visibility: inherit; font-family: &quot;Helvetica Neue&quot;, sans-serif; font-size: 12px; font-weight: 200;"
                              fill="rgb(50, 49, 63)" stroke="none" stroke-width="1px">-0.01
                        </text>
                        <text x="0" y="324" dx="0em" dy="0.3em"
                              style="text-anchor: end; visibility: inherit; font-family: &quot;Helvetica Neue&quot;, sans-serif; font-size: 12px; font-weight: 200;"
                              fill="rgb(50, 49, 63)" stroke="none" stroke-width="1px">0
                        </text>
                        <text x="0" y="297" dx="0em" dy="0.3em"
                              style="text-anchor: end; visibility: inherit; font-family: &quot;Helvetica Neue&quot;, sans-serif; font-size: 12px; font-weight: 200;"
                              fill="rgb(50, 49, 63)" stroke="none" stroke-width="1px">0.01
                        </text>
                        <text x="0" y="270" dx="0em" dy="0.3em"
                              style="text-anchor: end; visibility: inherit; font-family: &quot;Helvetica Neue&quot;, sans-serif; font-size: 12px; font-weight: 200;"
                              fill="rgb(50, 49, 63)" stroke="none" stroke-width="1px">0.02
                        </text>
                        <text x="0" y="242.99999999999997" dx="0em" dy="0.3em"
                              style="text-anchor: end; visibility: inherit; font-family: &quot;Helvetica Neue&quot;, sans-serif; font-size: 12px; font-weight: 200;"
                              fill="rgb(50, 49, 63)" stroke="none" stroke-width="1px">0.03
                        </text>
                        <text x="0" y="216" dx="0em" dy="0.3em"
                              style="text-anchor: end; visibility: inherit; font-family: &quot;Helvetica Neue&quot;, sans-serif; font-size: 12px; font-weight: 200;"
                              fill="rgb(50, 49, 63)" stroke="none" stroke-width="1px">0.04
                        </text>
                        <text x="0" y="188.99999999999997" dx="0em" dy="0.3em"
                              style="text-anchor: end; visibility: inherit; font-family: &quot;Helvetica Neue&quot;, sans-serif; font-size: 12px; font-weight: 200;"
                              fill="rgb(50, 49, 63)" stroke="none" stroke-width="1px">0.05
                        </text>
                        <text x="0" y="161.99999999999997" dx="0em" dy="0.3em"
                              style="text-anchor: end; visibility: inherit; font-family: &quot;Helvetica Neue&quot;, sans-serif; font-size: 12px; font-weight: 200;"
                              fill="rgb(50, 49, 63)" stroke="none" stroke-width="1px">0.06
                        </text>
                        <text x="0" y="134.99999999999994" dx="0em" dy="0.3em"
                              style="text-anchor: end; visibility: inherit; font-family: &quot;Helvetica Neue&quot;, sans-serif; font-size: 12px; font-weight: 200;"
                              fill="rgb(50, 49, 63)" stroke="none" stroke-width="1px">0.07
                        </text>
                        <text x="0" y="107.99999999999994" dx="0em" dy="0.3em"
                              style="text-anchor: end; visibility: inherit; font-family: &quot;Helvetica Neue&quot;, sans-serif; font-size: 12px; font-weight: 200;"
                              fill="rgb(50, 49, 63)" stroke="none" stroke-width="1px">0.08
                        </text>
                        <text x="0" y="80.99999999999994" dx="0em" dy="0.3em"
                              style="text-anchor: end; visibility: inherit; font-family: &quot;Helvetica Neue&quot;, sans-serif; font-size: 12px; font-weight: 200;"
                              fill="rgb(50, 49, 63)" stroke="none" stroke-width="1px">0.09
                        </text>
                        <text x="0" y="53.99999999999994" dx="0em" dy="0.3em"
                              style="text-anchor: end; visibility: inherit; font-family: &quot;Helvetica Neue&quot;, sans-serif; font-size: 12px; font-weight: 200;"
                              fill="rgb(50, 49, 63)" stroke="none" stroke-width="1px">0.1
                        </text>
                        <text x="0" y="26.999999999999943" dx="0em" dy="0.3em"
                              style="text-anchor: end; visibility: inherit; font-family: &quot;Helvetica Neue&quot;, sans-serif; font-size: 12px; font-weight: 200;"
                              fill="rgb(50, 49, 63)" stroke="none" stroke-width="1px">0.11
                        </text>
                        <text x="0" y="0" dx="0em" dy="0.3em"
                              style="text-anchor: end; visibility: hidden; font-family: &quot;Helvetica Neue&quot;, sans-serif; font-size: 12px; font-weight: 200;"
                              fill="rgb(50, 49, 63)" stroke="none" stroke-width="1px">0.12
                        </text>
                    </g>
                    <line x1="70" y1="0" x2="70" y2="378" fill="rgb(0, 0, 0)" stroke="rgb(204, 204, 204)"
                          stroke-width="1px"></line>
                </g>
            </g>
            <g transform="translate(70, 0)" clip-path="url(#clip_0)">
                <clipPath id="clip_0">
                    <rect width="1428" height="378"></rect>
                </clipPath>
                <g>
                    <g>
                        <g>
                            <line x1="0" y1="0" x2="0" y2="378" fill="rgb(0, 0, 0)" stroke="rgb(60, 60, 60)"
                                  stroke-width="1px" opacity="0.25"></line>
                            <line x1="204" y1="0" x2="204" y2="378" fill="rgb(0, 0, 0)" stroke="rgb(60, 60, 60)"
                                  stroke-width="1px" opacity="0.25"></line>
                            <line x1="408" y1="0" x2="408" y2="378" fill="rgb(0, 0, 0)" stroke="rgb(60, 60, 60)"
                                  stroke-width="1px" opacity="0.25"></line>
                            <line x1="612" y1="0" x2="612" y2="378" fill="rgb(0, 0, 0)" stroke="rgb(60, 60, 60)"
                                  stroke-width="1px" opacity="0.25"></line>
                            <line x1="816" y1="0" x2="816" y2="378" fill="rgb(0, 0, 0)" stroke="rgb(60, 60, 60)"
                                  stroke-width="1px" opacity="0.25"></line>
                            <line x1="1020" y1="0" x2="1020" y2="378" fill="rgb(0, 0, 0)" stroke="rgb(60, 60, 60)"
                                  stroke-width="1px" opacity="0.25"></line>
                            <line x1="1224" y1="0" x2="1224" y2="378" fill="rgb(0, 0, 0)" stroke="rgb(60, 60, 60)"
                                  stroke-width="1px" opacity="0.25"></line>
                            <line x1="1428" y1="0" x2="1428" y2="378" fill="rgb(0, 0, 0)" stroke="rgb(60, 60, 60)"
                                  stroke-width="1px" opacity="0.25"></line>
                        </g>
                        <g>
                            <line x1="0" y1="378" x2="1428" y2="378" fill="rgb(0, 0, 0)" stroke="rgb(60, 60, 60)"
                                  stroke-width="1px" opacity="0.25"></line>
                            <line x1="0" y1="351" x2="1428" y2="351" fill="rgb(0, 0, 0)" stroke="rgb(60, 60, 60)"
                                  stroke-width="1px" opacity="0.25"></line>
                            <line x1="0" y1="324" x2="1428" y2="324" fill="rgb(0, 0, 0)" stroke="rgb(60, 60, 60)"
                                  stroke-width="1px" opacity="0.25"></line>
                            <line x1="0" y1="297" x2="1428" y2="297" fill="rgb(0, 0, 0)" stroke="rgb(60, 60, 60)"
                                  stroke-width="1px" opacity="0.25"></line>
                            <line x1="0" y1="270" x2="1428" y2="270" fill="rgb(0, 0, 0)" stroke="rgb(60, 60, 60)"
                                  stroke-width="1px" opacity="0.25"></line>
                            <line x1="0" y1="242.99999999999997" x2="1428" y2="242.99999999999997" fill="rgb(0, 0, 0)"
                                  stroke="rgb(60, 60, 60)" stroke-width="1px" opacity="0.25"></line>
                            <line x1="0" y1="216" x2="1428" y2="216" fill="rgb(0, 0, 0)" stroke="rgb(60, 60, 60)"
                                  stroke-width="1px" opacity="0.25"></line>
                            <line x1="0" y1="188.99999999999997" x2="1428" y2="188.99999999999997" fill="rgb(0, 0, 0)"
                                  stroke="rgb(60, 60, 60)" stroke-width="1px" opacity="0.25"></line>
                            <line x1="0" y1="161.99999999999997" x2="1428" y2="161.99999999999997" fill="rgb(0, 0, 0)"
                                  stroke="rgb(60, 60, 60)" stroke-width="1px" opacity="0.25"></line>
                            <line x1="0" y1="134.99999999999994" x2="1428" y2="134.99999999999994" fill="rgb(0, 0, 0)"
                                  stroke="rgb(60, 60, 60)" stroke-width="1px" opacity="0.25"></line>
                            <line x1="0" y1="107.99999999999994" x2="1428" y2="107.99999999999994" fill="rgb(0, 0, 0)"
                                  stroke="rgb(60, 60, 60)" stroke-width="1px" opacity="0.25"></line>
                            <line x1="0" y1="80.99999999999994" x2="1428" y2="80.99999999999994" fill="rgb(0, 0, 0)"
                                  stroke="rgb(60, 60, 60)" stroke-width="1px" opacity="0.25"></line>
                            <line x1="0" y1="53.99999999999994" x2="1428" y2="53.99999999999994" fill="rgb(0, 0, 0)"
                                  stroke="rgb(60, 60, 60)" stroke-width="1px" opacity="0.25"></line>
                            <line x1="0" y1="26.999999999999943" x2="1428" y2="26.999999999999943" fill="rgb(0, 0, 0)"
                                  stroke="rgb(60, 60, 60)" stroke-width="1px" opacity="0.25"></line>
                            <line x1="0" y1="0" x2="1428" y2="0" fill="rgb(0, 0, 0)" stroke="rgb(60, 60, 60)"
                                  stroke-width="1px" opacity="0.25"></line>
                        </g>
                    </g>
                </g>
                <g>
                    <g>
                        <line x1="0" y1="324" x2="1428" y2="324" fill="rgb(0, 0, 0)" stroke="rgb(153, 153, 153)"
                              stroke-width="1.5px"></line>
                    </g>
                </g>
                <g>
                    <g>
                        <line x1="204" y1="0" x2="204" y2="378" fill="rgb(0, 0, 0)" stroke="rgb(153, 153, 153)"
                              stroke-width="1.5px"></line>
                    </g>
                </g>
                <g>
                    <g>
                        <g>
                            <g>
                                <g>
                                    <path stroke="rgb(0,200,50)" stroke-width="2px"
                                          d="M324.36,315.36584973335263L326.4,53.99999597668642L328.44,259.714284516871L330.48,287.5135126300156L332.52,298.5283015072346L334.56,304.4347822442651L336.59999999999997,308.11764674820006L338.64000000000004,310.63366357795894L340.68,312.4615378919989L342.71999999999997,313.84962380491197L344.76,314.93959727324545L346.8,53.99999597668642L348.84,259.714284516871L350.88,287.5135126300156L352.92,298.5283015072346L354.96000000000004,304.4347822442651L357,308.11764674820006L359.04,310.63366357795894L361.08,312.4615378919989L363.12,313.84962380491197L365.16,314.93959727324545L367.2,53.99999597668642L369.24,259.714284516871L371.28000000000003,287.5135126300156L373.32000000000005,298.5283015072346L375.35999999999996,304.4347822442651L377.40000000000003,308.11764674820006L379.44000000000005,310.63366357795894L381.47999999999996,312.4615378919989L383.52,313.84962380491197L385.56,314.93959727324545L387.59999999999997,53.99999597668642L389.64,259.714284516871L391.68,287.5135126300156L393.71999999999997,298.5283015072346L395.76,304.4347822442651L397.8,308.11764674820006L399.84000000000003,310.63366357795894L401.88,312.4615378919989L403.92,313.84962380491197L405.96000000000004,314.93959727324545L408,53.99999597668642L410.04,259.714284516871L412.08000000000004,287.5135126300156L414.11999999999995,298.5283015072346L416.15999999999997,304.4347822442651L418.20000000000005,308.11764674820006L420.23999999999995,310.63366357795894L422.28,312.4615378919989L424.32,313.84962380491197L426.36,314.93959727324545L428.4,53.99999597668642L430.44,259.714284516871L432.48,287.5135126300156L434.52,298.5283015072346L436.56,304.4347822442651L438.6,308.11764674820006L440.64,310.63366357795894L442.68,312.4615378919989L444.72,313.84962380491197L446.76,314.93959727324545L448.8,53.99999597668642L450.84000000000003,259.714284516871L452.87999999999994,287.5135126300156L454.91999999999996,298.5283015072346L456.96000000000004,304.4347822442651L459.00000000000006,308.11764674820006L461.03999999999996,310.63366357795894L463.08,312.4615378919989L465.12,313.84962380491197L467.15999999999997,314.93959727324545L469.2,53.99999597668642L471.24,259.714284516871L473.28,287.5135126300156L475.32,298.5283015072346L477.36,304.4347822442651L479.4,308.11764674820006L481.44,310.63366357795894L483.48,312.4615378919989L485.52000000000004,313.84962380491197L487.56,314.93959727324545L489.6,53.99999597668642L491.64000000000004,259.714284516871L493.67999999999995,287.5135126300156L495.71999999999997,298.5283015072346L497.76000000000005,304.4347822442651L499.79999999999995,308.11764674820006L501.84,310.63366357795894L503.88,312.4615378919989L505.91999999999996,313.84962380491197L507.96,314.93959727324545L510,53.99999597668642L512.0400000000001,259.714284516871L514.0799999999999,287.5135126300156L516.12,298.5283015072346L518.1600000000001,304.4347822442651L520.1999999999999,308.11764674820006L522.24,310.63366357795894L524.28,312.4615378919989L526.3199999999999,313.84962380491197L528.36,314.93959727324545L530.4,53.99999597668642L532.4399999999999,259.714284516871L534.48,287.5135126300156L536.52,298.5283015072346L538.5600000000001,304.4347822442651L540.6,308.11764674820006L542.64,310.63366357795894L544.6800000000001,312.4615378919989L546.72,313.84962380491197L548.76,314.93959727324545L550.8000000000001,53.99999597668642L552.8399999999999,259.714284516871L554.88,287.5135126300156L556.9200000000001,298.5283015072346L558.9599999999999,304.4347822442651L561,308.11764674820006L563.04,310.63366357795894L565.08,312.4615378919989L567.12,313.84962380491197L569.16,314.93959727324545L571.2,53.99999597668642L573.24,259.714284516871L575.28,287.5135126300156L577.32,298.5283015072346L579.36,304.4347822442651L581.4,308.11764674820006L583.44,310.63366357795894L585.48,312.4615378919989L587.52,313.84962380491197L589.5600000000001,314.93959727324545L591.6,53.99999597668642L593.64,259.714284516871L595.6800000000001,287.5135126300156L597.72,298.5283015072346L599.76,304.4347822442651L601.8,308.11764674820006L603.84,310.63366357795894L605.88,312.4615378919989L607.92,313.84962380491197L609.96,314.93959727324545L612,53.99999597668642L614.04,259.714284516871L616.08,287.5135126300156L618.12,298.5283015072346L620.16,304.4347822442651L622.2,308.11764674820006L624.24,310.63366357795894L626.28,312.4615378919989L628.32,313.84962380491197L630.36,314.93959727324545L632.4,53.99999597668642L634.4399999999999,259.714284516871L636.48,287.5135126300156L638.52,298.5283015072346L640.56,304.4347822442651L642.6,308.11764674820006L644.64,310.63366357795894L646.68,312.4615378919989L648.72,313.84962380491197L650.76,314.93959727324545L652.8,53.99999597668642L654.84,259.714284516871L656.88,287.5135126300156L658.92,298.5283015072346L660.96,304.4347822442651L663,308.11764674820006L665.04,310.63366357795894L667.08,312.4615378919989L669.12,313.84962380491197L671.16,314.93959727324545L673.1999999999999,53.99999597668642L675.24,259.714284516871L677.2800000000001,287.5135126300156L679.3199999999999,298.5283015072346L681.36,304.4347822442651L683.4,308.11764674820006L685.4399999999999,310.63366357795894L687.48,312.4615378919989L689.52,313.84962380491197L691.56,314.93959727324545L693.6,53.99999597668642L695.64,259.714284516871L697.68,287.5135126300156L699.72,298.5283015072346L701.76,304.4347822442651L703.8000000000001,308.11764674820006L705.84,310.63366357795894L707.88,312.4615378919989L709.9200000000001,313.84962380491197L711.9599999999999,314.93959727324545L714,53.99999597668642L716.0400000000001,259.714284516871L718.08,287.5135126300156L720.1200000000001,298.5283015072346L722.16,304.4347822442651L724.1999999999999,308.11764674820006L726.24,310.63366357795894L728.28,312.4615378919989L730.32,313.84962380491197L732.36,314.93959727324545L734.4,53.99999597668642L736.4399999999999,259.714284516871L738.48,287.5135126300156L740.52,298.5283015072346L742.5600000000001,304.4347822442651L744.6,308.11764674820006L746.6400000000001,310.63366357795894L748.68,312.4615378919989L750.7199999999999,313.84962380491197L752.76,314.93959727324545L754.8000000000001,53.99999597668642L756.84,259.714284516871L758.8800000000001,287.5135126300156L760.92,298.5283015072346L762.9599999999999,304.4347822442651L765,308.11764674820006L767.04,310.63366357795894L769.08,312.4615378919989L771.12,313.84962380491197L773.1600000000001,314.93959727324545L775.1999999999999,315.8181820772588L777.24,316.54143617581576L779.28,317.1472082622349L781.32,317.6619717394933L783.36,318.1048034001142L785.4000000000001,318.489796156995L787.4399999999999,318.8275863309391L789.4799999999999,319.12635382125154L791.52,319.3924916102551L793.5600000000001,319.6310678157024L795.6,53.99999597668642L797.6400000000001,259.714284516871L799.6800000000001,287.5135126300156L801.7199999999999,298.5283015072346L803.76,304.4347822442651L805.8,308.11764674820006L807.84,310.63366357795894L809.88,312.4615378919989L811.9200000000001,313.84962380491197L813.9599999999999,314.93959727324545L816,315.8181820772588L818.04,316.54143617581576L820.08,317.1472082622349L822.12,317.6619717394933L824.1600000000001,318.1048034001142L826.2,318.489796156995L828.2399999999999,318.8275863309391L830.28,319.12635382125154L832.3199999999999,319.3924916102551L834.36,319.6310678157024L836.4000000000001,53.99999597668642L838.44,259.714284516871L840.4799999999999,287.5135126300156L842.52,298.5283015072346L844.56,304.4347822442651L846.6,308.11764674820006L848.64,310.63366357795894L850.6800000000001,312.4615378919989L852.72,313.84962380491197L854.76,314.93959727324545L856.8,53.99999597668642L858.84,259.714284516871L860.88,287.5135126300156L862.9200000000001,298.5283015072346L864.96,304.4347822442651L866.9999999999999,308.11764674820006L869.04,310.63366357795894L871.0799999999999,312.4615378919989L873.12,313.84962380491197"
                                          style="fill: none;" fill="none"></path>
                                </g>
                                <g>
                                    <path stroke="rgb(0,200,50)" stroke-width="2px"
                                          d="M204,54.17269670963287L206.04000000000002,55.03284090757364L208.07999999999998,55.88751339912409L210.11999999999998,56.73677453398699L212.16,57.58068466186518L214.2,58.41926389932627L216.24,59.252592712640705L218.28,60.0806912183761L220.32,60.903639882802906L222.36,61.72147893905634L224.4,62.534248620271626L226.43999999999997,63.34198915958399L228.48000000000002,64.14474079012865L230.51999999999998,64.94258397817612L232.56,65.73553884029383L234.6,66.52364560961718L236.64,67.30696463584894L238.68,68.08553615212435L240.72,68.85938027501106L242.76000000000002,69.62857747077936L244.8,70.39314785599709L246.83999999999997,71.15313166379929L248.88000000000002,71.90856912732119L250.92,72.65952059626574L252.95999999999998,73.40600618720049L255,74.14806613326067L257.03999999999996,74.88574066758156L259.08000000000004,75.6190700232982L261.12,76.34811455011368L263.15999999999997,77.07287424802774L265.2,53.99999597668642L267.24,62.37208896875376L269.28000000000003,70.24060392379755L271.32,77.64963635802263L273.36,84.63829287886614L275.40000000000003,91.24137514829636L277.44,97.48992303013796L279.47999999999996,103.41175773739809L281.52,109.03184393048281L283.56,114.37267193198198L285.6,53.99999597668642L287.64,119.45453935861582L289.68,159.36584973335263L291.72,186.2448932379484L293.76,205.57894648611543L295.8,220.15384228527543L297.84000000000003,231.53424726426599L299.88,240.66666604578492L301.92,248.15730133652684L303.96,254.41237201541662L306,53.99999597668642L308.04,259.714284516871L310.08,287.5135126300156L312.12,298.5283015072346L314.16,304.4347822442651L316.2,308.11764674820006L318.24,310.63366357795894L320.28,312.4615378919989L322.32,313.84962380491197"
                                          style="fill: none;" fill="none"></path>
                                </g>
                                <g>
                                    <path stroke="rgb(238, 51, 119)" stroke-width="2px"
                                          d="M204,159.36584973335263L206.04000000000002,268.2148771136999L208.07999999999998,290.41790997236967L210.11999999999998,299.97864819690585L212.16,305.30193958058953L214.2,308.6938770264387L216.24,311.044145911932L218.28,312.76871913671494L220.32,314.0881057139486L222.36,315.13009173888713L224.4,53.99999597668642L226.43999999999997,259.714284516871L228.48000000000002,287.5135126300156L230.51999999999998,298.5283015072346L232.56,304.4347822442651L234.6,308.11764674820006L236.64,310.63366357795894L238.68,312.4615378919989L240.72,313.84962380491197L242.76000000000002,314.93959727324545L244.8,53.99999597668642L246.83999999999997,259.714284516871L248.88000000000002,287.5135126300156L250.92,298.5283015072346L252.95999999999998,304.4347822442651L255,308.11764674820006L257.03999999999996,310.63366357795894L259.08000000000004,312.4615378919989L261.12,313.84962380491197L263.15999999999997,314.93959727324545L265.2,315.8181820772588L267.24,316.54143617581576L269.28000000000003,317.1472082622349L271.32,317.6619717394933L273.36,318.1048034001142L275.40000000000003,318.489796156995L277.44,318.8275863309391L279.47999999999996,319.12635382125154L281.52,319.3924916102551L283.56,319.6310678157024L285.6,319.8461538422853L287.64,320.0410557221621L289.68,320.21848730603233L291.72,320.38069693464786L293.76,320.52956299250945L295.8,320.66666651610285L297.84000000000003,320.79334902903065L299.88,320.9107552897185L301.92,321.01986755244434L303.96,321.121535113547L306,321.21649474231526L308.04,321.3053892259486L310.08,321.3887813568581L312.12,321.4671669770032L314.16,321.54098362172954L316.2,321.6106194779277L318.24,321.6764199847821L320.28,321.73869349155575L322.32,321.7977161295712L324.36,321.85373605554923L326.4,321.90697675198317L328.44,321.95764001319185L330.48,322.00590845989063L332.52,322.0519480537623L334.56,322.095909669064L336.59999999999997,322.13793097855523L338.64000000000004,322.17813771078363L340.68,322.21664459304884L342.71999999999997,322.2535575516522L344.76,322.2889733975753L346.8,322.322981398087L348.84,322.3556637482252L350.88,322.3870968280826L352.92,322.4173505741637L354.96000000000004,322.4464902081527L357,322.474576236913L359.04,322.501664766809L361.08,322.5278081323486L363.12,322.5530547390226L365.16,322.5774500062689L367.2,53.99999597668642L369.24,259.714284516871L371.28000000000003,287.5135126300156L373.32000000000005,298.5283015072346L375.35999999999996,304.4347822442651L377.40000000000003,308.11764674820006L379.44000000000005,310.63366357795894L381.47999999999996,312.4615378919989L383.52,313.84962380491197L385.56,314.93959727324545L387.59999999999997,53.99999597668642L389.64,259.714284516871L391.68,287.5135126300156L393.71999999999997,298.5283015072346L395.76,304.4347822442651L397.8,308.11764674820006L399.84000000000003,310.63366357795894L401.88,312.4615378919989L403.92,313.84962380491197L405.96000000000004,314.93959727324545L408,53.99999597668642L410.04,259.714284516871L412.08000000000004,287.5135126300156L414.11999999999995,298.5283015072346L416.15999999999997,304.4347822442651L418.20000000000005,308.11764674820006L420.23999999999995,310.63366357795894L422.28,312.4615378919989L424.32,313.84962380491197L426.36,314.93959727324545L428.4,315.8181820772588L430.44,316.54143617581576L432.48,317.1472082622349L434.52,317.6619717394933L436.56,318.1048034001142L438.6,318.489796156995L440.64,318.8275863309391L442.68,319.12635382125154L444.72,319.3924916102551L446.76,319.6310678157024L448.8,53.99999597668642L450.84000000000003,259.714284516871L452.87999999999994,287.5135126300156L454.91999999999996,298.5283015072346L456.96000000000004,304.4347822442651L459.00000000000006,308.11764674820006L461.03999999999996,310.63366357795894L463.08,312.4615378919989L465.12,313.84962380491197L467.15999999999997,314.93959727324545L469.2,315.8181820772588L471.24,316.54143617581576L473.28,317.1472082622349L475.32,317.6619717394933L477.36,318.1048034001142L479.4,318.489796156995L481.44,318.8275863309391L483.48,319.12635382125154L485.52000000000004,319.3924916102551L487.56,319.6310678157024L489.6,319.8461538422853L491.64000000000004,320.0410557221621L493.67999999999995,320.21848730603233L495.71999999999997,320.38069693464786L497.76000000000005,320.52956299250945L499.79999999999995,320.66666651610285L501.84,320.79334902903065L503.88,320.9107552897185L505.91999999999996,321.01986755244434L507.96,321.121535113547L510,321.21649474231526L512.0400000000001,321.3053892259486L514.0799999999999,321.3887813568581L516.12,321.4671669770032L518.1600000000001,321.54098362172954L520.1999999999999,321.6106194779277L522.24,321.6764199847821L524.28,321.73869349155575L526.3199999999999,321.7977161295712L528.36,321.85373605554923L530.4,321.90697675198317L532.4399999999999,321.95764001319185L534.48,322.00590845989063L536.52,322.0519480537623L538.5600000000001,322.095909669064L540.6,322.13793097855523L542.64,322.17813771078363L544.6800000000001,322.21664459304884L546.72,322.2535575516522L548.76,322.2889733975753L550.8000000000001,322.322981398087L552.8399999999999,322.3556637482252L554.88,322.3870968280826L556.9200000000001,322.4173505741637L558.9599999999999,322.4464902081527L561,322.474576236913L563.04,322.501664766809L565.08,322.5278081323486L567.12,322.5530547390226L569.16,322.5774500062689L571.2,53.99999597668642L573.24,259.714284516871L575.28,287.5135126300156L577.32,298.5283015072346L579.36,304.4347822442651L581.4,308.11764674820006L583.44,310.63366357795894L585.48,312.4615378919989L587.52,313.84962380491197L589.5600000000001,314.93959727324545L591.6,53.99999597668642L593.64,259.714284516871L595.6800000000001,287.5135126300156L597.72,298.5283015072346L599.76,304.4347822442651L601.8,308.11764674820006L603.84,310.63366357795894L605.88,312.4615378919989L607.92,313.84962380491197L609.96,314.93959727324545L612,315.8181820772588L614.04,316.54143617581576L616.08,317.1472082622349L618.12,317.6619717394933L620.16,318.1048034001142L622.2,318.489796156995L624.24,318.8275863309391L626.28,319.12635382125154L628.32,319.3924916102551L630.36,319.6310678157024L632.4,319.8461538422853L634.4399999999999,320.0410557221621L636.48,320.21848730603233L638.52,320.38069693464786L640.56,320.52956299250945L642.6,320.66666651610285L644.64,320.79334902903065L646.68,320.9107552897185L648.72,321.01986755244434L650.76,321.121535113547L652.8,321.21649474231526L654.84,321.3053892259486L656.88,321.3887813568581L658.92,321.4671669770032L660.96,321.54098362172954L663,321.6106194779277L665.04,321.6764199847821L667.08,321.73869349155575L669.12,321.7977161295712L671.16,321.85373605554923L673.1999999999999,321.90697675198317L675.24,321.95764001319185L677.2800000000001,322.00590845989063L679.3199999999999,322.0519480537623L681.36,322.095909669064L683.4,322.13793097855523L685.4399999999999,322.17813771078363L687.48,322.21664459304884L689.52,322.2535575516522L691.56,322.2889733975753L693.6,322.322981398087L695.64,322.3556637482252L697.68,322.3870968280826L699.72,322.4173505741637L701.76,322.4464902081527L703.8000000000001,322.474576236913L705.84,322.501664766809L707.88,322.5278081323486L709.9200000000001,322.5530547390226L711.9599999999999,322.5774500062689L714,53.99999597668642L716.0400000000001,259.714284516871L718.08,287.5135126300156L720.1200000000001,298.5283015072346L722.16,304.4347822442651L724.1999999999999,308.11764674820006L726.24,310.63366357795894L728.28,312.4615378919989L730.32,313.84962380491197L732.36,314.93959727324545L734.4,53.99999597668642L736.4399999999999,259.714284516871L738.48,287.5135126300156L740.52,298.5283015072346L742.5600000000001,304.4347822442651L744.6,308.11764674820006L746.6400000000001,310.63366357795894L748.68,312.4615378919989L750.7199999999999,313.84962380491197L752.76,314.93959727324545L754.8000000000001,315.8181820772588L756.84,316.54143617581576L758.8800000000001,317.1472082622349L760.92,317.6619717394933L762.9599999999999,318.1048034001142L765,318.489796156995L767.04,318.8275863309391L769.08,319.12635382125154L771.12,319.3924916102551L773.1600000000001,319.6310678157024L775.1999999999999,319.8461538422853L777.24,320.0410557221621L779.28,320.21848730603233L781.32,320.38069693464786L783.36,320.52956299250945L785.4000000000001,320.66666651610285L787.4399999999999,320.79334902903065L789.4799999999999,320.9107552897185L791.52,321.01986755244434L793.5600000000001,321.121535113547L795.6,53.99999597668642L797.6400000000001,259.714284516871L799.6800000000001,287.5135126300156L801.7199999999999,298.5283015072346L803.76,304.4347822442651L805.8,308.11764674820006L807.84,310.63366357795894L809.88,312.4615378919989L811.9200000000001,313.84962380491197L813.9599999999999,314.93959727324545L816,53.99999597668642L818.04,259.714284516871L820.08,287.5135126300156L822.12,298.5283015072346L824.1600000000001,304.4347822442651L826.2,308.11764674820006L828.2399999999999,310.63366357795894L830.28,312.4615378919989L832.3199999999999,313.84962380491197L834.36,314.93959727324545L836.4000000000001,315.8181820772588L838.44,316.54143617581576L840.4799999999999,317.1472082622349L842.52,317.6619717394933L844.56,318.1048034001142L846.6,318.489796156995L848.64,318.8275863309391L850.6800000000001,319.12635382125154L852.72,319.3924916102551L854.76,319.6310678157024L856.8,319.8461538422853L858.84,320.0410557221621L860.88,320.21848730603233L862.9200000000001,320.38069693464786L864.96,320.52956299250945L866.9999999999999,320.66666651610285L869.04,320.79334902903065L871.0799999999999,320.9107552897185L873.12,321.01986755244434L875.1600000000001,321.121535113547L877.2,53.99999597668642L879.2400000000001,259.714284516871L881.28,287.5135126300156L883.3199999999999,298.5283015072346L885.36,304.4347822442651L887.4,308.11764674820006L889.44,310.63366357795894L891.48,312.4615378919989L893.52,313.84962380491197L895.56,314.93959727324545L897.6,315.8181820772588L899.64,316.54143617581576L901.6800000000001,317.1472082622349L903.72,317.6619717394933L905.7599999999999,318.1048034001142L907.8,318.489796156995L909.8399999999999,318.8275863309391L911.88,319.12635382125154L913.9200000000001,319.3924916102551L915.96,319.6310678157024L918.0000000000001,319.8461538422853L920.04,320.0410557221621L922.0799999999999,320.21848730603233L924.12,320.38069693464786L926.16,320.52956299250945L928.2,320.66666651610285L930.24,320.79334902903065L932.28,320.9107552897185L934.3199999999999,321.01986755244434L936.36,321.121535113547L938.4,53.99999597668642L940.44,259.714284516871L942.48,287.5135126300156L944.5200000000001,298.5283015072346L946.56,304.4347822442651L948.5999999999999,308.11764674820006L950.64,310.63366357795894L952.6800000000001,312.4615378919989L954.72,313.84962380491197L956.7600000000001,314.93959727324545L958.8,53.99999597668642L960.8399999999999,259.714284516871L962.88,287.5135126300156L964.92,298.5283015072346L966.96,304.4347822442651L969,308.11764674820006L971.0400000000001,310.63366357795894L973.0799999999999,312.4615378919989L975.12,313.84962380491197L977.16,314.93959727324545L979.2,315.8181820772588L981.24,316.54143617581576L983.2800000000001,317.1472082622349L985.3199999999999,317.6619717394933L987.3599999999999,318.1048034001142L989.4,318.489796156995L991.4399999999999,318.8275863309391L993.48,319.12635382125154L995.5200000000001,319.3924916102551L997.5600000000001,319.6310678157024L999.5999999999999,53.99999597668642L1001.64,259.714284516871L1003.68,287.5135126300156L1005.72,298.5283015072346L1007.76,304.4347822442651L1009.8000000000001,308.11764674820006L1011.8399999999999,310.63366357795894L1013.88,312.4615378919989L1015.92,313.84962380491197L1017.96,314.93959727324545L1020,315.8181820772588L1022.0400000000001,316.54143617581576L1024.0800000000002,317.1472082622349L1026.12,317.6619717394933L1028.1599999999999,318.1048034001142L1030.2,318.489796156995L1032.24,318.8275863309391L1034.28,319.12635382125154L1036.3200000000002,319.3924916102551L1038.36,319.6310678157024L1040.3999999999999,53.99999597668642L1042.44,259.714284516871L1044.48,287.5135126300156L1046.52,298.5283015072346L1048.56,304.4347822442651L1050.6000000000001,308.11764674820006L1052.6399999999999,310.63366357795894L1054.68,312.4615378919989L1056.72,313.84962380491197L1058.76,314.93959727324545L1060.8,53.99999597668642L1062.8400000000001,259.714284516871L1064.8799999999999,287.5135126300156L1066.9199999999998,298.5283015072346L1068.96,304.4347822442651L1071,308.11764674820006L1073.04,310.63366357795894L1075.0800000000002,312.4615378919989L1077.1200000000001,313.84962380491197L1079.1599999999999,314.93959727324545L1081.2,315.8181820772588L1083.24,316.54143617581576L1085.28,317.1472082622349L1087.32,317.6619717394933L1089.3600000000001,318.1048034001142L1091.3999999999999,318.489796156995L1093.44,318.8275863309391L1095.48,319.12635382125154L1097.52,319.3924916102551L1099.56,319.6310678157024L1101.6000000000001,319.8461538422853L1103.64,320.0410557221621L1105.6799999999998,320.21848730603233L1107.72,320.38069693464786L1109.76,320.52956299250945L1111.8,320.66666651610285L1113.8400000000001,320.79334902903065L1115.88,320.9107552897185L1117.9199999999998,321.01986755244434L1119.96,321.121535113547L1122,53.99999597668642L1124.04,259.714284516871L1126.08,287.5135126300156L1128.1200000000001,298.5283015072346L1130.16,304.4347822442651L1132.2,308.11764674820006L1134.24,310.63366357795894L1136.28,312.4615378919989L1138.32,313.84962380491197L1140.3600000000001,314.93959727324545L1142.4,315.8181820772588L1144.4399999999998,316.54143617581576L1146.48,317.1472082622349L1148.52,317.6619717394933L1150.56,318.1048034001142L1152.6000000000001,318.489796156995L1154.64,318.8275863309391L1156.68,319.12635382125154L1158.72,319.3924916102551L1160.76,319.6310678157024L1162.8,53.99999597668642L1164.84,259.714284516871L1166.88,287.5135126300156L1168.92,298.5283015072346L1170.96,304.4347822442651L1173,308.11764674820006L1175.04,310.63366357795894L1177.08,312.4615378919989L1179.1200000000001,313.84962380491197L1181.16,314.93959727324545L1183.2,53.99999597668642L1185.24,259.714284516871L1187.28,287.5135126300156L1189.32,298.5283015072346L1191.3600000000001,304.4347822442651L1193.4,308.11764674820006L1195.44,310.63366357795894L1197.48,312.4615378919989L1199.52,313.84962380491197L1201.56,314.93959727324545L1203.6,315.8181820772588L1205.64,316.54143617581576L1207.68,317.1472082622349L1209.72,317.6619717394933L1211.76,318.1048034001142L1213.8,318.489796156995L1215.84,318.8275863309391L1217.88,319.12635382125154L1219.92,319.3924916102551L1221.96,319.6310678157024L1224,53.99999597668642L1226.04,259.714284516871L1228.08,287.5135126300156L1230.1200000000001,298.5283015072346L1232.16,304.4347822442651L1234.2,308.11764674820006L1236.24,310.63366357795894L1238.28,312.4615378919989L1240.32,313.84962380491197L1242.36,314.93959727324545L1244.4,53.99999597668642L1246.44,259.714284516871L1248.48,287.5135126300156L1250.52,298.5283015072346L1252.56,304.4347822442651L1254.6,308.11764674820006L1256.64,310.63366357795894L1258.68,312.4615378919989L1260.72,313.84962380491197L1262.76,314.93959727324545L1264.8,315.8181820772588L1266.84,316.54143617581576L1268.8799999999999,317.1472082622349L1270.92,317.6619717394933L1272.96,318.1048034001142L1275,318.489796156995L1277.04,318.8275863309391L1279.08,319.12635382125154L1281.12,319.3924916102551L1283.16,319.6310678157024L1285.2,53.99999597668642L1287.24,259.714284516871L1289.28,287.5135126300156L1291.32,298.5283015072346L1293.36,304.4347822442651L1295.4,308.11764674820006L1297.44,310.63366357795894L1299.48,312.4615378919989L1301.52,313.84962380491197L1303.56,314.93959727324545L1305.6,53.99999597668642L1307.6399999999999,259.714284516871L1309.68,287.5135126300156L1311.72,298.5283015072346L1313.76,304.4347822442651L1315.8,308.11764674820006L1317.84,310.63366357795894L1319.8799999999999,312.4615378919989L1321.92,313.84962380491197L1323.96,314.93959727324545L1326,315.8181820772588L1328.04,316.54143617581576L1330.08,317.1472082622349L1332.12,317.6619717394933"
                                          style="fill: none;" fill="none"></path>
                                </g>
                                <g>
                                    <path stroke="rgb(51, 187, 238)" stroke-width="2px"
                                          d="M204,70.24060392379755L206.04000000000002,128.9132890999317L208.07999999999998,165.54930040240285L210.11999999999998,190.6007939726114L212.16,208.81228239834306L214.2,222.64864870905873L216.24,233.51742902398107L218.28,242.2808697223663L220.32,249.49668755382297L222.36,255.54158033430573L224.4,260.6791756823659L226.43999999999997,265.09947457909584L228.48000000000002,268.94290575385094L230.51999999999998,272.3154684305191L232.56,275.29870008677244L234.6,277.9563450962305L236.64,280.3389413058758L238.68,282.48708394914865L240.72,284.4337641969323L242.76000000000002,286.20604637637734L244.8,287.8263654895127L246.83999999999997,289.3134626336396L248.88000000000002,290.6831192560494L250.92,291.9487179033458L252.95999999999998,293.12168227136135L255,294.21182673051953L257.03999999999996,295.2276203557849L259.08000000000004,296.17642329633236L261.12,297.0646451935172L263.15999999999997,297.89791114255786L265.2,298.6811698190868L267.24,299.41879154741764L269.28000000000003,300.11464876681566L271.32,300.77219649776816L273.36,301.39450754597783L275.40000000000003,301.9843454249203L277.44,302.5441819578409L279.47999999999996,303.07625511288643L281.52,303.582576546818L283.56,304.0649730954319L285.6,304.5251006036997L287.64,304.9644665569067L289.68,305.38444516807795L291.72,305.7862924654037L293.76,306.17115635052323L295.8,306.54009294323623L297.84000000000003,306.894070353359L299.88,307.2339787390083L301.92,307.5606428794563L303.96,307.8748209178448L306,308.1772156767547L308.04,308.46847717277706L310.08,308.74920890294015L312.12,309.01997287385166L314.16,309.281290858984L316.2,309.5336481705308L318.24,309.7774974312633L320.28,310.01326108910143L322.32,310.2413377035409L324.36,310.4620944019407L326.4,310.6758781950921L328.44,310.88301597721875L330.48,311.0838120114058L332.52,311.2785529587418L334.56,311.46750787831843L336.59999999999997,311.6509332563728L338.64000000000004,311.82906546257436L340.68,312.0021333228797L342.71999999999997,312.1703468039632L344.76,312.33390958607197L346.8,312.4930102620274L348.84,312.64782988093793L350.88,312.7985394336283L352.92,312.94529985263944L354.96000000000004,313.08826326951385L357,313.2275767866522L359.04,313.36337870545685L361.08,313.4957985263318L363.12,313.62496134918183L365.16,313.75098724476993L367.2,313.8739874828607L369.24,313.99407081864774L371.28000000000003,314.11133909225464L373.32000000000005,314.2258903719485L375.35999999999996,314.3378183254972L377.40000000000003,314.4472122201696L379.44000000000005,314.55415629409254L381.47999999999996,314.65873227082193L383.52,314.7610181020573L385.56,314.8610885962844L387.59999999999997,314.9590141614899L389.64,315.05486331973225L391.68,315.1487020784989L393.71999999999997,315.24059204477817L395.76,315.3305935682729L397.8,315.41876448411494L399.84000000000003,315.50516011286527L401.88,315.58983326051384L403.92,315.67283484712243L405.96000000000004,315.7542145354673L408,315.83401884511113L410.04,315.912293038331L412.08000000000004,315.9890811201185L414.11999999999995,316.06442520953715L416.15999999999997,316.1383649110794L418.20000000000005,316.210939200595L420.23999999999995,316.282186425291L422.28,316.35214116051793L424.32,316.4208398675546L426.36,316.4883152358234L428.4,316.5545993261039L430.44,316.61972419917583L432.48,316.68372002989054L434.52,316.74661510717124L436.56,316.8084383485839L438.6,316.86921615712345L440.64,316.9289755644277L442.68,316.9877417162061L444.72,317.0455391295254L446.76,317.102391064167L448.8,317.1583214085549L450.84000000000003,317.2133521651849L452.87999999999994,317.2675047079101L454.91999999999996,317.3207997819409L456.96000000000004,317.3732575038448L459.00000000000006,317.4248979901895L461.03999999999996,317.47573947161436L463.08,317.52580080740154L465.12,317.5751002281904L467.15999999999997,317.6236540786922L469.2,317.6714793322608L471.24,317.7185929622501L473.28,317.7650100560859L475.32,317.81074632983655L477.36,317.8558162422851L479.4,317.90023488085717L481.44,317.94401607569307L483.48,317.98717239964753L485.52000000000004,318.02971894014627L487.56,318.07166701275855L489.6,318.1130298189819L491.64000000000004,318.1538193030283L493.67999999999995,318.1940480377525L495.71999999999997,318.23372608143836L497.76000000000005,318.2728660069406L499.79999999999995,318.31147787254304L501.84,318.34957299381495L503.88,318.38716142904013L505.91999999999996,318.42425260785967L507.96,318.46085658855736L510,318.496983429417L512.0400000000001,318.53264193143696L514.0799999999999,318.56784152425826L516.12,318.60259100887924L518.1600000000001,318.6368979290128L520.1999999999999,318.67077234294266L522.24,318.704221165739L524.28,318.7372525697574L526.3199999999999,318.7698744130321L528.36,318.80209455359727L530.4,318.83392022084445L532.4399999999999,318.86535832984373L534.48,318.8964161099866L536.52,318.9271004763432L538.5600000000001,318.9574183439836L540.6,318.98737568501383L542.64,319.01697910018265L544.6800000000001,319.0462351902388L546.72,319.0751496129669L548.76,319.103728340473L550.8000000000001,319.1319773448631L552.8399999999999,319.1599025982432L554.88,319.18750881543383L556.9200000000001,319.21480228286237L558.9599999999999,319.24178771534935"
                                          style="fill: none;" fill="none"></path>
                                </g>
                                <g>
                                    <path style="fill: none;" stroke="rgb(0, 119, 187)" stroke-width="2px"
                                          d="M204,53.99999597668642L206.04000000000002,53.99999597668642L208.07999999999998,53.99999597668642L210.11999999999998,53.99999597668642L212.16,53.99999597668642L214.2,53.99999597668642L216.24,53.99999597668642L218.28,53.99999597668642L220.32,53.99999597668642L222.36,53.99999597668642L224.4,53.99999597668642L226.43999999999997,53.99999597668642L228.48000000000002,53.99999597668642L230.51999999999998,53.99999597668642L232.56,53.99999597668642L234.6,53.99999597668642L236.64,53.99999597668642L238.68,53.99999597668642L240.72,53.99999597668642L242.76000000000002,53.99999597668642L244.8,53.99999597668642L246.83999999999997,53.99999597668642L248.88000000000002,53.99999597668642L250.92,53.99999597668642L252.95999999999998,53.99999597668642L255,53.99999597668642L257.03999999999996,53.99999597668642L259.08000000000004,53.99999597668642L261.12,53.99999597668642L263.15999999999997,53.99999597668642L265.2,53.99999597668642L267.24,53.99999597668642L269.28000000000003,53.99999597668642L271.32,53.99999597668642L273.36,53.99999597668642L275.40000000000003,53.99999597668642L277.44,53.99999597668642L279.47999999999996,53.99999597668642L281.52,53.99999597668642L283.56,53.99999597668642L285.6,53.99999597668642L287.64,53.99999597668642L289.68,53.99999597668642L291.72,53.99999597668642L293.76,53.99999597668642L295.8,53.99999597668642L297.84000000000003,53.99999597668642L299.88,53.99999597668642L301.92,53.99999597668642L303.96,53.99999597668642L306,53.99999597668642L308.04,53.99999597668642L310.08,53.99999597668642L312.12,53.99999597668642L314.16,53.99999597668642L316.2,53.99999597668642L318.24,53.99999597668642L320.28,53.99999597668642L322.32,53.99999597668642L324.36,53.99999597668642L326.4,53.99999597668642L328.44,53.99999597668642L330.48,53.99999597668642L332.52,53.99999597668642L334.56,53.99999597668642L336.59999999999997,53.99999597668642L338.64000000000004,53.99999597668642L340.68,53.99999597668642L342.71999999999997,53.99999597668642L344.76,53.99999597668642L346.8,53.99999597668642L348.84,53.99999597668642L350.88,53.99999597668642L352.92,53.99999597668642L354.96000000000004,53.99999597668642L357,53.99999597668642L359.04,53.99999597668642L361.08,53.99999597668642L363.12,53.99999597668642L365.16,53.99999597668642L367.2,53.99999597668642L369.24,53.99999597668642L371.28000000000003,53.99999597668642L373.32000000000005,53.99999597668642L375.35999999999996,53.99999597668642L377.40000000000003,53.99999597668642L379.44000000000005,53.99999597668642L381.47999999999996,53.99999597668642L383.52,53.99999597668642L385.56,53.99999597668642L387.59999999999997,53.99999597668642L389.64,53.99999597668642L391.68,53.99999597668642L393.71999999999997,53.99999597668642L395.76,53.99999597668642L397.8,53.99999597668642L399.84000000000003,53.99999597668642L401.88,53.99999597668642L403.92,53.99999597668642L405.96000000000004,53.99999597668642L408,53.99999597668642L410.04,53.99999597668642L412.08000000000004,53.99999597668642L414.11999999999995,53.99999597668642L416.15999999999997,53.99999597668642L418.20000000000005,53.99999597668642L420.23999999999995,53.99999597668642L422.28,53.99999597668642L424.32,53.99999597668642L426.36,53.99999597668642L428.4,53.99999597668642L430.44,53.99999597668642L432.48,53.99999597668642L434.52,53.99999597668642L436.56,53.99999597668642L438.6,53.99999597668642L440.64,53.99999597668642L442.68,53.99999597668642L444.72,53.99999597668642L446.76,53.99999597668642L448.8,53.99999597668642L450.84000000000003,53.99999597668642L452.87999999999994,53.99999597668642L454.91999999999996,53.99999597668642L456.96000000000004,53.99999597668642L459.00000000000006,53.99999597668642L461.03999999999996,53.99999597668642L463.08,53.99999597668642L465.12,53.99999597668642L467.15999999999997,53.99999597668642L469.2,53.99999597668642L471.24,53.99999597668642L473.28,53.99999597668642L475.32,53.99999597668642L477.36,53.99999597668642L479.4,53.99999597668642L481.44,53.99999597668642L483.48,53.99999597668642L485.52000000000004,53.99999597668642L487.56,53.99999597668642L489.6,53.99999597668642L491.64000000000004,53.99999597668642L493.67999999999995,53.99999597668642L495.71999999999997,53.99999597668642L497.76000000000005,53.99999597668642L499.79999999999995,53.99999597668642L501.84,53.99999597668642L503.88,53.99999597668642L505.91999999999996,53.99999597668642L507.96,53.99999597668642L510,53.99999597668642L512.0400000000001,53.99999597668642L514.0799999999999,53.99999597668642L516.12,53.99999597668642L518.1600000000001,53.99999597668642L520.1999999999999,53.99999597668642L522.24,53.99999597668642L524.28,53.99999597668642L526.3199999999999,53.99999597668642L528.36,53.99999597668642L530.4,53.99999597668642L532.4399999999999,53.99999597668642L534.48,53.99999597668642L536.52,53.99999597668642L538.5600000000001,53.99999597668642L540.6,53.99999597668642L542.64,53.99999597668642L544.6800000000001,53.99999597668642L546.72,53.99999597668642L548.76,53.99999597668642L550.8000000000001,53.99999597668642L552.8399999999999,53.99999597668642L554.88,53.99999597668642L556.9200000000001,53.99999597668642L558.9599999999999,53.99999597668642L561,53.99999597668642L563.04,53.99999597668642L565.08,53.99999597668642L567.12,53.99999597668642L569.16,53.99999597668642L571.2,53.99999597668642L573.24,53.99999597668642L575.28,53.99999597668642L577.32,53.99999597668642L579.36,53.99999597668642L581.4,53.99999597668642L583.44,53.99999597668642L585.48,53.99999597668642L587.52,53.99999597668642L589.5600000000001,53.99999597668642L591.6,53.99999597668642L593.64,53.99999597668642L595.6800000000001,53.99999597668642L597.72,53.99999597668642L599.76,53.99999597668642L601.8,53.99999597668642L603.84,53.99999597668642L605.88,53.99999597668642L607.92,53.99999597668642L609.96,53.99999597668642L612,53.99999597668642L614.04,53.99999597668642L616.08,53.99999597668642L618.12,53.99999597668642L620.16,53.99999597668642L622.2,53.99999597668642L624.24,53.99999597668642L626.28,53.99999597668642L628.32,53.99999597668642L630.36,53.99999597668642L632.4,53.99999597668642L634.4399999999999,53.99999597668642L636.48,53.99999597668642L638.52,53.99999597668642L640.56,53.99999597668642L642.6,53.99999597668642L644.64,53.99999597668642L646.68,53.99999597668642L648.72,53.99999597668642L650.76,53.99999597668642L652.8,53.99999597668642L654.84,53.99999597668642L656.88,53.99999597668642L658.92,53.99999597668642L660.96,53.99999597668642L663,53.99999597668642L665.04,53.99999597668642L667.08,53.99999597668642L669.12,53.99999597668642L671.16,53.99999597668642L673.1999999999999,53.99999597668642L675.24,53.99999597668642L677.2800000000001,53.99999597668642L679.3199999999999,53.99999597668642L681.36,53.99999597668642L683.4,53.99999597668642L685.4399999999999,53.99999597668642L687.48,53.99999597668642L689.52,53.99999597668642L691.56,53.99999597668642L693.6,53.99999597668642L695.64,53.99999597668642L697.68,53.99999597668642L699.72,53.99999597668642L701.76,53.99999597668642L703.8000000000001,53.99999597668642L705.84,53.99999597668642L707.88,53.99999597668642L709.9200000000001,53.99999597668642L711.9599999999999,53.99999597668642L714,53.99999597668642L716.0400000000001,53.99999597668642L718.08,53.99999597668642L720.1200000000001,53.99999597668642L722.16,53.99999597668642L724.1999999999999,53.99999597668642L726.24,53.99999597668642L728.28,53.99999597668642L730.32,53.99999597668642L732.36,53.99999597668642L734.4,53.99999597668642L736.4399999999999,53.99999597668642L738.48,53.99999597668642L740.52,53.99999597668642L742.5600000000001,53.99999597668642L744.6,53.99999597668642L746.6400000000001,53.99999597668642L748.68,53.99999597668642L750.7199999999999,53.99999597668642L752.76,53.99999597668642L754.8000000000001,53.99999597668642L756.84,53.99999597668642L758.8800000000001,53.99999597668642L760.92,53.99999597668642L762.9599999999999,53.99999597668642L765,53.99999597668642L767.04,53.99999597668642L769.08,53.99999597668642L771.12,53.99999597668642L773.1600000000001,53.99999597668642L775.1999999999999,53.99999597668642L777.24,53.99999597668642L779.28,53.99999597668642L781.32,53.99999597668642L783.36,53.99999597668642L785.4000000000001,53.99999597668642L787.4399999999999,53.99999597668642L789.4799999999999,53.99999597668642L791.52,53.99999597668642L793.5600000000001,53.99999597668642L795.6,53.99999597668642L797.6400000000001,53.99999597668642L799.6800000000001,53.99999597668642L801.7199999999999,53.99999597668642L803.76,53.99999597668642L805.8,53.99999597668642L807.84,53.99999597668642L809.88,53.99999597668642L811.9200000000001,53.99999597668642L813.9599999999999,53.99999597668642L816,53.99999597668642L818.04,53.99999597668642L820.08,53.99999597668642L822.12,53.99999597668642L824.1600000000001,53.99999597668642L826.2,53.99999597668642L828.2399999999999,53.99999597668642L830.28,53.99999597668642L832.3199999999999,53.99999597668642L834.36,53.99999597668642L836.4000000000001,53.99999597668642L838.44,53.99999597668642L840.4799999999999,53.99999597668642L842.52,53.99999597668642L844.56,53.99999597668642L846.6,53.99999597668642L848.64,53.99999597668642L850.6800000000001,53.99999597668642L852.72,53.99999597668642L854.76,53.99999597668642L856.8,53.99999597668642L858.84,53.99999597668642L860.88,53.99999597668642L862.9200000000001,53.99999597668642L864.96,53.99999597668642L866.9999999999999,53.99999597668642L869.04,53.99999597668642L871.0799999999999,53.99999597668642L873.12,53.99999597668642L875.1600000000001,53.99999597668642L877.2,53.99999597668642L879.2400000000001,53.99999597668642L881.28,53.99999597668642L883.3199999999999,53.99999597668642L885.36,53.99999597668642L887.4,53.99999597668642L889.44,53.99999597668642L891.48,53.99999597668642L893.52,53.99999597668642L895.56,53.99999597668642L897.6,53.99999597668642L899.64,53.99999597668642L901.6800000000001,53.99999597668642L903.72,53.99999597668642L905.7599999999999,53.99999597668642L907.8,53.99999597668642L909.8399999999999,53.99999597668642L911.88,53.99999597668642L913.9200000000001,53.99999597668642L915.96,53.99999597668642L918.0000000000001,53.99999597668642L920.04,53.99999597668642L922.0799999999999,53.99999597668642L924.12,53.99999597668642L926.16,53.99999597668642L928.2,53.99999597668642L930.24,53.99999597668642L932.28,53.99999597668642L934.3199999999999,53.99999597668642L936.36,53.99999597668642L938.4,53.99999597668642L940.44,53.99999597668642L942.48,53.99999597668642L944.5200000000001,53.99999597668642L946.56,53.99999597668642L948.5999999999999,53.99999597668642L950.64,53.99999597668642L952.6800000000001,53.99999597668642L954.72,53.99999597668642L956.7600000000001,53.99999597668642L958.8,53.99999597668642L960.8399999999999,53.99999597668642L962.88,53.99999597668642L964.92,53.99999597668642L966.96,53.99999597668642L969,53.99999597668642L971.0400000000001,53.99999597668642L973.0799999999999,53.99999597668642L975.12,53.99999597668642L977.16,53.99999597668642L979.2,53.99999597668642L981.24,53.99999597668642L983.2800000000001,53.99999597668642L985.3199999999999,53.99999597668642L987.3599999999999,53.99999597668642L989.4,53.99999597668642L991.4399999999999,53.99999597668642L993.48,53.99999597668642L995.5200000000001,53.99999597668642L997.5600000000001,53.99999597668642L999.5999999999999,53.99999597668642L1001.64,53.99999597668642L1003.68,53.99999597668642L1005.72,53.99999597668642L1007.76,53.99999597668642L1009.8000000000001,53.99999597668642L1011.8399999999999,53.99999597668642L1013.88,53.99999597668642L1015.92,53.99999597668642L1017.96,53.99999597668642L1020,53.99999597668642L1022.0400000000001,53.99999597668642L1024.0800000000002,53.99999597668642L1026.12,53.99999597668642L1028.1599999999999,53.99999597668642L1030.2,53.99999597668642L1032.24,53.99999597668642L1034.28,53.99999597668642L1036.3200000000002,53.99999597668642L1038.36,53.99999597668642L1040.3999999999999,53.99999597668642L1042.44,53.99999597668642L1044.48,53.99999597668642L1046.52,53.99999597668642L1048.56,53.99999597668642L1050.6000000000001,53.99999597668642L1052.6399999999999,53.99999597668642L1054.68,53.99999597668642L1056.72,53.99999597668642L1058.76,53.99999597668642L1060.8,53.99999597668642L1062.8400000000001,53.99999597668642L1064.8799999999999,53.99999597668642L1066.9199999999998,53.99999597668642L1068.96,53.99999597668642L1071,53.99999597668642L1073.04,53.99999597668642L1075.0800000000002,53.99999597668642L1077.1200000000001,53.99999597668642L1079.1599999999999,53.99999597668642L1081.2,53.99999597668642L1083.24,53.99999597668642L1085.28,53.99999597668642L1087.32,53.99999597668642L1089.3600000000001,53.99999597668642L1091.3999999999999,53.99999597668642L1093.44,53.99999597668642L1095.48,53.99999597668642L1097.52,53.99999597668642L1099.56,53.99999597668642L1101.6000000000001,53.99999597668642L1103.64,53.99999597668642L1105.6799999999998,53.99999597668642L1107.72,53.99999597668642L1109.76,53.99999597668642L1111.8,53.99999597668642L1113.8400000000001,53.99999597668642L1115.88,53.99999597668642L1117.9199999999998,53.99999597668642L1119.96,53.99999597668642L1122,53.99999597668642L1124.04,53.99999597668642L1126.08,53.99999597668642L1128.1200000000001,53.99999597668642L1130.16,53.99999597668642L1132.2,53.99999597668642L1134.24,53.99999597668642L1136.28,53.99999597668642L1138.32,53.99999597668642"
                                          fill="none"></path>
                                </g>
                            </g>
                        </g>
                    </g>
                </g>
            </g>
            <g transform="translate(70, 378)" clip-path="url(#clip_1)">
                <clipPath id="clip_1">
                    <rect width="1428" height="22"></rect>
                </clipPath>
                <g>
                    <g>
                        <line x1="0" y1="0" x2="0" y2="5" style="visibility: inherit;" fill="rgb(0, 0, 0)"
                              stroke="rgb(204, 204, 204)" stroke-width="1px"></line>
                        <line x1="204" y1="0" x2="204" y2="5" style="visibility: inherit;" fill="rgb(0, 0, 0)"
                              stroke="rgb(204, 204, 204)" stroke-width="1px"></line>
                        <line x1="408" y1="0" x2="408" y2="5" style="visibility: inherit;" fill="rgb(0, 0, 0)"
                              stroke="rgb(204, 204, 204)" stroke-width="1px"></line>
                        <line x1="612" y1="0" x2="612" y2="5" style="visibility: inherit;" fill="rgb(0, 0, 0)"
                              stroke="rgb(204, 204, 204)" stroke-width="1px"></line>
                        <line x1="816" y1="0" x2="816" y2="5" style="visibility: inherit;" fill="rgb(0, 0, 0)"
                              stroke="rgb(204, 204, 204)" stroke-width="1px"></line>
                        <line x1="1020" y1="0" x2="1020" y2="5" style="visibility: inherit;" fill="rgb(0, 0, 0)"
                              stroke="rgb(204, 204, 204)" stroke-width="1px"></line>
                        <line x1="1224" y1="0" x2="1224" y2="5" style="visibility: inherit;" fill="rgb(0, 0, 0)"
                              stroke="rgb(204, 204, 204)" stroke-width="1px"></line>
                        <line x1="1428" y1="0" x2="1428" y2="5" style="visibility: inherit;" fill="rgb(0, 0, 0)"
                              stroke="rgb(204, 204, 204)" stroke-width="1px"></line>
                    </g>
                    <g transform="translate(0, 8)">
                        <text x="0" y="0" dx="0em" dy="0.95em"
                              style="text-anchor: middle; visibility: hidden; font-family: &quot;Helvetica Neue&quot;, sans-serif; font-size: 12px; font-weight: 200;"
                              fill="rgb(50, 49, 63)" stroke="none" stroke-width="1px">-500
                        </text>
                        <text x="204" y="0" dx="0em" dy="0.95em"
                              style="text-anchor: middle; visibility: inherit; font-family: &quot;Helvetica Neue&quot;, sans-serif; font-size: 12px; font-weight: 200;"
                              fill="rgb(50, 49, 63)" stroke="none" stroke-width="1px">0
                        </text>
                        <text x="408" y="0" dx="0em" dy="0.95em"
                              style="text-anchor: middle; visibility: inherit; font-family: &quot;Helvetica Neue&quot;, sans-serif; font-size: 12px; font-weight: 200;"
                              fill="rgb(50, 49, 63)" stroke="none" stroke-width="1px">500
                        </text>
                        <text x="612" y="0" dx="0em" dy="0.95em"
                              style="text-anchor: middle; visibility: inherit; font-family: &quot;Helvetica Neue&quot;, sans-serif; font-size: 12px; font-weight: 200;"
                              fill="rgb(50, 49, 63)" stroke="none" stroke-width="1px">1k
                        </text>
                        <text x="816" y="0" dx="0em" dy="0.95em"
                              style="text-anchor: middle; visibility: inherit; font-family: &quot;Helvetica Neue&quot;, sans-serif; font-size: 12px; font-weight: 200;"
                              fill="rgb(50, 49, 63)" stroke="none" stroke-width="1px">1.5k
                        </text>
                        <text x="1020" y="0" dx="0em" dy="0.95em"
                              style="text-anchor: middle; visibility: inherit; font-family: &quot;Helvetica Neue&quot;, sans-serif; font-size: 12px; font-weight: 200;"
                              fill="rgb(50, 49, 63)" stroke="none" stroke-width="1px">2k
                        </text>
                        <text x="1224" y="0" dx="0em" dy="0.95em"
                              style="text-anchor: middle; visibility: inherit; font-family: &quot;Helvetica Neue&quot;, sans-serif; font-size: 12px; font-weight: 200;"
                              fill="rgb(50, 49, 63)" stroke="none" stroke-width="1px">2.5k
                        </text>
                        <text x="1428" y="0" dx="0em" dy="0.95em"
                              style="text-anchor: middle; visibility: hidden; font-family: &quot;Helvetica Neue&quot;, sans-serif; font-size: 12px; font-weight: 200;"
                              fill="rgb(50, 49, 63)" stroke="none" stroke-width="1px">3k
                        </text>
                    </g>
                    <line x1="0" y1="0" x2="1428" y2="0" fill="rgb(0, 0, 0)" stroke="rgb(204, 204, 204)"
                          stroke-width="1px"></line>
                </g>
            </g>
        </g>
    </g>
</svg>